<?xml version="1.0" encoding="UTF-8" standalone="no"?>
<!DOCTYPE svg PUBLIC "-//W3C//DTD SVG 1.1//EN"
 "http://www.w3.org/Graphics/SVG/1.1/DTD/svg11.dtd">
<!-- Generated by graphviz version 2.40.1 (20161225.0304)
 -->
<!-- Title: %3 Pages: 1 -->
<svg width="3336pt" height="785pt"
 viewBox="0.00 0.00 3335.50 785.00" xmlns="http://www.w3.org/2000/svg" xmlns:xlink="http://www.w3.org/1999/xlink">
<g id="graph0" class="graph" transform="scale(1 1) rotate(0) translate(4 781)">
<title>%3</title>
<polygon fill="#ffffff" stroke="transparent" points="-4,4 -4,-781 3331.5,-781 3331.5,4 -4,4"/>
<!-- 1 -->
<g id="node1" class="node">
<title>1</title>
<polygon fill="#f25402" stroke="#f25402" points="646,-777 376,-777 376,-736 646,-736 646,-777"/>
<text text-anchor="middle" x="511" y="-765" font-family="Arial" font-size="10.00" fill="#ffffff">TreeGenerator::create_grove(Tree*, int, DebugVisualizer&amp;)</text>
<text text-anchor="middle" x="511" y="-754" font-family="Arial" font-size="10.00" fill="#ffffff">91.51%</text>
<text text-anchor="middle" x="511" y="-743" font-family="Arial" font-size="10.00" fill="#ffffff">(0.01%)</text>
</g>
<!-- 2 -->
<g id="node2" class="node">
<title>2</title>
<polygon fill="#0ab50f" stroke="#0ab50f" points="316.5,-696 157.5,-696 157.5,-644 316.5,-644 316.5,-696"/>
<text text-anchor="middle" x="237" y="-684" font-family="Arial" font-size="10.00" fill="#ffffff">TreeGenerator::grow_tree(Tree&amp;)</text>
<text text-anchor="middle" x="237" y="-673" font-family="Arial" font-size="10.00" fill="#ffffff">49.16%</text>
<text text-anchor="middle" x="237" y="-662" font-family="Arial" font-size="10.00" fill="#ffffff">(0.01%)</text>
<text text-anchor="middle" x="237" y="-651" font-family="Arial" font-size="10.00" fill="#ffffff">15000×</text>
</g>
<!-- 1&#45;&gt;2 -->
<g id="edge1" class="edge">
<title>1&#45;&gt;2</title>
<path fill="none" stroke="#0ab50f" stroke-width="1.97" d="M445.7183,-735.891C409.1333,-724.3414 363.0457,-709.7918 323.4902,-697.3044"/>
<polygon fill="#0ab50f" stroke="#0ab50f" stroke-width="1.97" points="324.1068,-694.9299 316.6939,-695.1589 322.6316,-699.6026 324.1068,-694.9299"/>
<text text-anchor="middle" x="432" y="-719" font-family="Arial" font-size="10.00" fill="#0ab50f">49.16%</text>
<text text-anchor="middle" x="432" y="-708" font-family="Arial" font-size="10.00" fill="#0ab50f">15000×</text>
</g>
<!-- 4 -->
<g id="node3" class="node">
<title>4</title>
<polygon fill="#0aab3c" stroke="#0aab3c" points="1064,-696 810,-696 810,-644 1064,-644 1064,-696"/>
<text text-anchor="middle" x="937" y="-684" font-family="Arial" font-size="10.00" fill="#ffffff">Clusterizer::visualize_clusters(DebugVisualizer&amp;, bool)</text>
<text text-anchor="middle" x="937" y="-673" font-family="Arial" font-size="10.00" fill="#ffffff">42.28%</text>
<text text-anchor="middle" x="937" y="-662" font-family="Arial" font-size="10.00" fill="#ffffff">(0.00%)</text>
<text text-anchor="middle" x="937" y="-651" font-family="Arial" font-size="10.00" fill="#ffffff">1×</text>
</g>
<!-- 1&#45;&gt;4 -->
<g id="edge2" class="edge">
<title>1&#45;&gt;4</title>
<path fill="none" stroke="#0aab3c" stroke-width="1.69" d="M612.2261,-735.9459C669.3256,-724.3517 741.3778,-709.7214 803.1008,-697.1884"/>
<polygon fill="#0aab3c" stroke="#0aab3c" stroke-width="1.69" points="803.8882,-699.3501 809.8055,-695.8271 802.9828,-694.8911 803.8882,-699.3501"/>
<text text-anchor="middle" x="780" y="-719" font-family="Arial" font-size="10.00" fill="#0aab3c">42.28%</text>
<text text-anchor="middle" x="780" y="-708" font-family="Arial" font-size="10.00" fill="#0aab3c">1×</text>
</g>
<!-- 6 -->
<g id="node4" class="node">
<title>6</title>
<polygon fill="#0ba74c" stroke="#0ba74c" points="357,-144 197,-144 197,-92 357,-92 357,-144"/>
<text text-anchor="middle" x="277" y="-132" font-family="Arial" font-size="10.00" fill="#ffffff">TreeGenerator::calc_light(Joint&amp;)</text>
<text text-anchor="middle" x="277" y="-121" font-family="Arial" font-size="10.00" fill="#ffffff">39.51%</text>
<text text-anchor="middle" x="277" y="-110" font-family="Arial" font-size="10.00" fill="#ffffff">(1.08%)</text>
<text text-anchor="middle" x="277" y="-99" font-family="Arial" font-size="10.00" fill="#ffffff">152077378×</text>
</g>
<!-- 2&#45;&gt;6 -->
<g id="edge3" class="edge">
<title>2&#45;&gt;6</title>
<path fill="none" stroke="#0d4382" stroke-width=".5" d="M157.4615,-658.1606C132.6463,-652.8648 105.607,-645.3943 82,-635 41.3789,-617.1143 0,-622.3844 0,-578 0,-578 0,-578 0,-210 0,-168.8477 111.5036,-142.8807 193.0215,-129.3956"/>
<polygon fill="#0d4382" stroke="#0d4382" stroke-width=".5" points="193.6245,-130.5381 196.8801,-128.7628 193.228,-128.1204 193.6245,-130.5381"/>
<text text-anchor="middle" x="19" y="-397" font-family="Arial" font-size="10.00" fill="#0d4382">11.57%</text>
<text text-anchor="middle" x="19" y="-386" font-family="Arial" font-size="10.00" fill="#0d4382">483818×</text>
</g>
<!-- 7 -->
<g id="node5" class="node">
<title>7</title>
<polygon fill="#0ba458" stroke="#0ba458" points="759.5,-604 570.5,-604 570.5,-552 759.5,-552 759.5,-604"/>
<text text-anchor="middle" x="665" y="-592" font-family="Arial" font-size="10.00" fill="#ffffff">TreeGenerator::distribute_feed(Branch*)</text>
<text text-anchor="middle" x="665" y="-581" font-family="Arial" font-size="10.00" fill="#ffffff">37.48%</text>
<text text-anchor="middle" x="665" y="-570" font-family="Arial" font-size="10.00" fill="#ffffff">(0.91%)</text>
<text text-anchor="middle" x="665" y="-559" font-family="Arial" font-size="10.00" fill="#ffffff">29371750×</text>
</g>
<!-- 2&#45;&gt;7 -->
<g id="edge4" class="edge">
<title>2&#45;&gt;7</title>
<path fill="none" stroke="#0ba458" stroke-width="1.5" d="M316.5005,-652.9111C386.336,-637.8997 488.3083,-615.9805 563.9217,-599.7271"/>
<polygon fill="#0ba458" stroke="#0ba458" stroke-width="1.5" points="564.7198,-601.7394 570.2349,-598.3701 563.8224,-597.5648 564.7198,-601.7394"/>
<text text-anchor="middle" x="519" y="-627" font-family="Arial" font-size="10.00" fill="#0ba458">37.48%</text>
<text text-anchor="middle" x="519" y="-616" font-family="Arial" font-size="10.00" fill="#0ba458">15000×</text>
</g>
<!-- 27 -->
<g id="node6" class="node">
<title>27</title>
<polygon fill="#0d0f74" stroke="#0d0f74" points="205.5,-328 38.5,-328 38.5,-276 205.5,-276 205.5,-328"/>
<text text-anchor="middle" x="122" y="-316" font-family="Arial" font-size="10.00" fill="#ffffff">TreeGenerator::calc_size(Branch*)</text>
<text text-anchor="middle" x="122" y="-305" font-family="Arial" font-size="10.00" fill="#ffffff">0.60%</text>
<text text-anchor="middle" x="122" y="-294" font-family="Arial" font-size="10.00" fill="#ffffff">(0.60%)</text>
<text text-anchor="middle" x="122" y="-283" font-family="Arial" font-size="10.00" fill="#ffffff">88438×</text>
</g>
<!-- 2&#45;&gt;27 -->
<g id="edge5" class="edge">
<title>2&#45;&gt;27</title>
<path fill="none" stroke="#0d0d73" stroke-width=".5" d="M157.4697,-645.9163C107.3284,-628.2699 52,-603.1092 52,-578 52,-578 52,-578 52,-394 52,-369.5257 67.8836,-347.4924 84.5185,-331.1281"/>
<polygon fill="#0d0d73" stroke="#0d0d73" stroke-width=".5" points="85.7375,-331.6551 87.4101,-328.3455 84.0387,-329.8897 85.7375,-331.6551"/>
<text text-anchor="middle" x="68.5" y="-489" font-family="Arial" font-size="10.00" fill="#0d0d73">0.10%</text>
<text text-anchor="middle" x="68.5" y="-478" font-family="Arial" font-size="10.00" fill="#0d0d73">15000×</text>
</g>
<!-- 5 -->
<g id="node8" class="node">
<title>5</title>
<polygon fill="#0aab3c" stroke="#0aab3c" points="1377.5,-604 1170.5,-604 1170.5,-552 1377.5,-552 1377.5,-604"/>
<text text-anchor="middle" x="1274" y="-592" font-family="Arial" font-size="10.00" fill="#ffffff">Clusterizer::ClusterDendrogramm::make(int)</text>
<text text-anchor="middle" x="1274" y="-581" font-family="Arial" font-size="10.00" fill="#ffffff">42.23%</text>
<text text-anchor="middle" x="1274" y="-570" font-family="Arial" font-size="10.00" fill="#ffffff">(4.72%)</text>
<text text-anchor="middle" x="1274" y="-559" font-family="Arial" font-size="10.00" fill="#ffffff">1×</text>
</g>
<!-- 4&#45;&gt;5 -->
<g id="edge6" class="edge">
<title>4&#45;&gt;5</title>
<path fill="none" stroke="#0aab3c" stroke-width="1.69" d="M1032.6692,-643.8826C1076.2552,-631.9837 1127.8919,-617.8871 1172.1939,-605.7928"/>
<polygon fill="#0aab3c" stroke="#0aab3c" stroke-width="1.69" points="1173.0039,-607.93 1178.6752,-604.0234 1171.8055,-603.5406 1173.0039,-607.93"/>
<text text-anchor="middle" x="1163" y="-627" font-family="Arial" font-size="10.00" fill="#0aab3c">42.23%</text>
<text text-anchor="middle" x="1163" y="-616" font-family="Arial" font-size="10.00" fill="#0aab3c">1×</text>
</g>
<!-- 6&#45;&gt;6 -->
<g id="edge9" class="edge">
<title>6&#45;&gt;6</title>
<path fill="none" stroke="#0ba74c" stroke-width="1.58" d="M357.0976,-124.2619C362.6312,-122.8275 366,-120.7402 366,-118 366,-116.4586 364.9341,-115.1238 363.0166,-113.9956"/>
<polygon fill="#0ba74c" stroke="#0ba74c" stroke-width="1.58" points="363.7698,-111.9231 357.0976,-111.7381 362.1982,-116.0435 363.7698,-111.9231"/>
<text text-anchor="middle" x="393" y="-115.5" font-family="Arial" font-size="10.00" fill="#0ba74c">150425383×</text>
</g>
<!-- 3 -->
<g id="node7" class="node">
<title>3</title>
<polygon fill="#0aaf28" stroke="#0aaf28" points="807,-52 493,-52 493,0 807,0 807,-52"/>
<text text-anchor="middle" x="650" y="-40" font-family="Arial" font-size="10.00" fill="#ffffff">LightVoxelsCube::get_occlusion(glm::vec&lt;3, float, (glm::qualifier)0&gt;)</text>
<text text-anchor="middle" x="650" y="-29" font-family="Arial" font-size="10.00" fill="#ffffff">45.41%</text>
<text text-anchor="middle" x="650" y="-18" font-family="Arial" font-size="10.00" fill="#ffffff">(45.41%)</text>
<text text-anchor="middle" x="650" y="-7" font-family="Arial" font-size="10.00" fill="#ffffff">192027175×</text>
</g>
<!-- 6&#45;&gt;3 -->
<g id="edge8" class="edge">
<title>6&#45;&gt;3</title>
<path fill="none" stroke="#0ba652" stroke-width="1.54" d="M357.0179,-98.2637C409.7879,-85.248 479.6624,-68.0136 537.9372,-53.6401"/>
<polygon fill="#0ba652" stroke="#0ba652" stroke-width="1.54" points="538.7598,-55.6724 544.2598,-52.0807 537.7205,-51.4586 538.7598,-55.6724"/>
<text text-anchor="middle" x="535" y="-75" font-family="Arial" font-size="10.00" fill="#0ba652">38.43%</text>
<text text-anchor="middle" x="535" y="-64" font-family="Arial" font-size="10.00" fill="#0ba652">162521251×</text>
</g>
<!-- 7&#45;&gt;7 -->
<g id="edge10" class="edge">
<title>7&#45;&gt;7</title>
<path fill="none" stroke="#0ba458" stroke-width="1.5" d="M759.6781,-583.896C765.1982,-582.481 768.5,-580.5156 768.5,-578 768.5,-576.585 767.4553,-575.344 765.5587,-574.2772"/>
<polygon fill="#0ba458" stroke="#0ba458" stroke-width="1.5" points="766.14,-572.216 759.6781,-572.104 764.6598,-576.2212 766.14,-572.216"/>
<text text-anchor="middle" x="793" y="-575.5" font-family="Arial" font-size="10.00" fill="#0ba458">29356750×</text>
</g>
<!-- 11 -->
<g id="node10" class="node">
<title>11</title>
<polygon fill="#0c968c" stroke="#0c968c" points="766,-512 564,-512 564,-460 766,-460 766,-512"/>
<text text-anchor="middle" x="665" y="-500" font-family="Arial" font-size="10.00" fill="#ffffff">TreeGenerator::try_new_segment(Branch*)</text>
<text text-anchor="middle" x="665" y="-489" font-family="Arial" font-size="10.00" fill="#ffffff">26.83%</text>
<text text-anchor="middle" x="665" y="-478" font-family="Arial" font-size="10.00" fill="#ffffff">(0.01%)</text>
<text text-anchor="middle" x="665" y="-467" font-family="Arial" font-size="10.00" fill="#ffffff">14685875×</text>
</g>
<!-- 7&#45;&gt;11 -->
<g id="edge11" class="edge">
<title>7&#45;&gt;11</title>
<path fill="none" stroke="#0c968c" stroke-width="1.07" d="M665,-551.8826C665,-541.1998 665,-528.7454 665,-517.559"/>
<polygon fill="#0c968c" stroke="#0c968c" stroke-width="1.07" points="666.8201,-517.3827 665,-512.1827 663.1801,-517.3828 666.8201,-517.3827"/>
<text text-anchor="middle" x="689.5" y="-535" font-family="Arial" font-size="10.00" fill="#0c968c">26.83%</text>
<text text-anchor="middle" x="689.5" y="-524" font-family="Arial" font-size="10.00" fill="#0c968c">14685875×</text>
</g>
<!-- 17 -->
<g id="node11" class="node">
<title>17</title>
<polygon fill="#0d2e7c" stroke="#0d2e7c" points="518,-420 66,-420 66,-368 518,-368 518,-420"/>
<text text-anchor="middle" x="292" y="-408" font-family="Arial" font-size="10.00" fill="#ffffff">TreeGenerator::new_branch(Branch*, Joint&amp;, Segment&amp;, glm::vec&lt;3, float, (glm::qualifier)0&gt;&amp;, bool)</text>
<text text-anchor="middle" x="292" y="-397" font-family="Arial" font-size="10.00" fill="#ffffff">7.53%</text>
<text text-anchor="middle" x="292" y="-386" font-family="Arial" font-size="10.00" fill="#ffffff">(0.00%)</text>
<text text-anchor="middle" x="292" y="-375" font-family="Arial" font-size="10.00" fill="#ffffff">73438×</text>
</g>
<!-- 7&#45;&gt;17 -->
<g id="edge12" class="edge">
<title>7&#45;&gt;17</title>
<path fill="none" stroke="#0d2e7c" stroke-width=".5" d="M609.3912,-551.9655C583.9092,-539.9407 553.3533,-525.3884 526,-512 464.1431,-481.7234 393.6267,-445.9966 346.317,-421.8498"/>
<polygon fill="#0d2e7c" stroke="#0d2e7c" stroke-width=".5" points="346.6256,-420.632 342.9513,-420.1315 345.5115,-422.814 346.6256,-420.632"/>
<text text-anchor="middle" x="542.5" y="-489" font-family="Arial" font-size="10.00" fill="#0d2e7c">7.53%</text>
<text text-anchor="middle" x="542.5" y="-478" font-family="Arial" font-size="10.00" fill="#0d2e7c">73438×</text>
</g>
<!-- 18 -->
<g id="node12" class="node">
<title>18</title>
<polygon fill="#0d2c7c" stroke="#0d2c7c" points="1269.5,-420 886.5,-420 886.5,-368 1269.5,-368 1269.5,-420"/>
<text text-anchor="middle" x="1078" y="-408" font-family="Arial" font-size="10.00" fill="#ffffff">LightVoxelsCube::get_dir_to_bright_place(glm::vec&lt;3, float, (glm::qualifier)0&gt;, float*)</text>
<text text-anchor="middle" x="1078" y="-397" font-family="Arial" font-size="10.00" fill="#ffffff">7.05%</text>
<text text-anchor="middle" x="1078" y="-386" font-family="Arial" font-size="10.00" fill="#ffffff">(0.07%)</text>
<text text-anchor="middle" x="1078" y="-375" font-family="Arial" font-size="10.00" fill="#ffffff">1092812×</text>
</g>
<!-- 7&#45;&gt;18 -->
<g id="edge13" class="edge">
<title>7&#45;&gt;18</title>
<path fill="none" stroke="#0d1274" stroke-width=".5" d="M759.8009,-567.9382C837.2947,-557.8574 938.8051,-539.8029 969,-512 986.9913,-495.4339 972.4285,-479.6417 987,-460 997.9013,-445.3055 1013.0224,-432.5223 1027.8105,-422.2212"/>
<polygon fill="#0d1274" stroke="#0d1274" stroke-width=".5" points="1028.5705,-423.1854 1030.7623,-420.1943 1027.1836,-421.1657 1028.5705,-423.1854"/>
<text text-anchor="middle" x="1006" y="-489" font-family="Arial" font-size="10.00" fill="#0d1274">1.17%</text>
<text text-anchor="middle" x="1006" y="-478" font-family="Arial" font-size="10.00" fill="#0d1274">181379×</text>
</g>
<!-- 26 -->
<g id="node13" class="node">
<title>26</title>
<polygon fill="#0d1074" stroke="#0d1074" points="964.5,-512 775.5,-512 775.5,-460 964.5,-460 964.5,-512"/>
<text text-anchor="middle" x="870" y="-500" font-family="Arial" font-size="10.00" fill="#ffffff">TreeStructureParameters::set_state(int)</text>
<text text-anchor="middle" x="870" y="-489" font-family="Arial" font-size="10.00" fill="#ffffff">0.84%</text>
<text text-anchor="middle" x="870" y="-478" font-family="Arial" font-size="10.00" fill="#ffffff">(0.84%)</text>
<text text-anchor="middle" x="870" y="-467" font-family="Arial" font-size="10.00" fill="#ffffff">338953003×</text>
</g>
<!-- 7&#45;&gt;26 -->
<g id="edge14" class="edge">
<title>7&#45;&gt;26</title>
<path fill="none" stroke="#0d1074" stroke-width=".5" d="M723.1964,-551.8826C749.9275,-539.8862 781.6364,-525.6558 808.7323,-513.4958"/>
<polygon fill="#0d1074" stroke="#0d1074" stroke-width=".5" points="809.3215,-514.5741 812.0131,-512.0234 808.3183,-512.3389 809.3215,-514.5741"/>
<text text-anchor="middle" x="819" y="-535" font-family="Arial" font-size="10.00" fill="#0d1074">0.84%</text>
<text text-anchor="middle" x="819" y="-524" font-family="Arial" font-size="10.00" fill="#0d1074">337883595×</text>
</g>
<!-- 8 -->
<g id="node9" class="node">
<title>8</title>
<polygon fill="#0ba458" stroke="#0ba458" points="2004,-512 1030,-512 1030,-460 2004,-460 2004,-512"/>
<text text-anchor="middle" x="1517" y="-500" font-family="Arial" font-size="10.00" fill="#ffffff">Clusterizer::ClusterDendrogramm::get_P_delta(int, std::__cxx11::list&lt;int, std::allocator&lt;int&gt; &gt;&amp;, std::__cxx11::list&lt;Clusterizer::ClusterDendrogramm::Dist, std::allocator&lt;Clusterizer::ClusterDendrogramm::Dist&gt; &gt;&amp;, float&amp;)</text>
<text text-anchor="middle" x="1517" y="-489" font-family="Arial" font-size="10.00" fill="#ffffff">37.40%</text>
<text text-anchor="middle" x="1517" y="-478" font-family="Arial" font-size="10.00" fill="#ffffff">(2.27%)</text>
<text text-anchor="middle" x="1517" y="-467" font-family="Arial" font-size="10.00" fill="#ffffff">5×</text>
</g>
<!-- 5&#45;&gt;8 -->
<g id="edge7" class="edge">
<title>5&#45;&gt;8</title>
<path fill="none" stroke="#0ba458" stroke-width="1.5" d="M1342.9841,-551.8826C1374.0261,-540.13 1410.7314,-526.2334 1442.4102,-514.2398"/>
<polygon fill="#0ba458" stroke="#0ba458" stroke-width="1.5" points="1443.3155,-516.18 1448.2643,-512.0234 1441.8035,-512.1866 1443.3155,-516.18"/>
<text text-anchor="middle" x="1442" y="-535" font-family="Arial" font-size="10.00" fill="#0ba458">37.40%</text>
<text text-anchor="middle" x="1442" y="-524" font-family="Arial" font-size="10.00" fill="#0ba458">5×</text>
</g>
<!-- 9 -->
<g id="node14" class="node">
<title>9</title>
<polygon fill="#0ba165" stroke="#0ba165" points="1720,-420 1314,-420 1314,-368 1720,-368 1720,-420"/>
<text text-anchor="middle" x="1517" y="-408" font-family="Arial" font-size="10.00" fill="#ffffff">Clusterizer::dist(Clusterizer::BranchWithData&amp;, Clusterizer::BranchWithData&amp;, float, float)</text>
<text text-anchor="middle" x="1517" y="-397" font-family="Arial" font-size="10.00" fill="#ffffff">35.01%</text>
<text text-anchor="middle" x="1517" y="-386" font-family="Arial" font-size="10.00" fill="#ffffff">(0.07%)</text>
<text text-anchor="middle" x="1517" y="-375" font-family="Arial" font-size="10.00" fill="#ffffff">18358770×</text>
</g>
<!-- 8&#45;&gt;9 -->
<g id="edge15" class="edge">
<title>8&#45;&gt;9</title>
<path fill="none" stroke="#0ba165" stroke-width="1.4" d="M1517,-459.8826C1517,-449.394 1517,-437.1977 1517,-426.1704"/>
<polygon fill="#0ba165" stroke="#0ba165" stroke-width="1.4" points="1519.0651,-426.0827 1517,-420.1827 1514.9351,-426.0828 1519.0651,-426.0827"/>
<text text-anchor="middle" x="1541.5" y="-443" font-family="Arial" font-size="10.00" fill="#0ba165">35.01%</text>
<text text-anchor="middle" x="1541.5" y="-432" font-family="Arial" font-size="10.00" fill="#0ba165">18358770×</text>
</g>
<!-- 11&#45;&gt;18 -->
<g id="edge19" class="edge">
<title>11&#45;&gt;18</title>
<path fill="none" stroke="#0d267a" stroke-width=".5" d="M766.2559,-461.0967C767.8482,-460.727 769.4304,-460.3611 771,-460 829.4852,-446.5435 894.4391,-432.4559 949.4841,-420.7681"/>
<polygon fill="#0d267a" stroke="#0d267a" stroke-width=".5" points="949.9258,-421.9267 953.0953,-420.0018 949.4172,-419.5301 949.9258,-421.9267"/>
<text text-anchor="middle" x="924.5" y="-443" font-family="Arial" font-size="10.00" fill="#0d267a">5.88%</text>
<text text-anchor="middle" x="924.5" y="-432" font-family="Arial" font-size="10.00" fill="#0d267a">911433×</text>
</g>
<!-- 14 -->
<g id="node16" class="node">
<title>14</title>
<polygon fill="#0c798e" stroke="#0c798e" points="877,-420 527,-420 527,-368 877,-368 877,-420"/>
<text text-anchor="middle" x="702" y="-408" font-family="Arial" font-size="10.00" fill="#ffffff">TreeGenerator::new_segment(Branch*, glm::vec&lt;3, float, (glm::qualifier)0&gt;&amp;)</text>
<text text-anchor="middle" x="702" y="-397" font-family="Arial" font-size="10.00" fill="#ffffff">20.94%</text>
<text text-anchor="middle" x="702" y="-386" font-family="Arial" font-size="10.00" fill="#ffffff">(0.01%)</text>
<text text-anchor="middle" x="702" y="-375" font-family="Arial" font-size="10.00" fill="#ffffff">874325×</text>
</g>
<!-- 11&#45;&gt;14 -->
<g id="edge18" class="edge">
<title>11&#45;&gt;14</title>
<path fill="none" stroke="#0c798e" stroke-width=".84" d="M675.5037,-459.8826C679.9173,-448.9084 685.0826,-436.0648 689.6747,-424.6467"/>
<polygon fill="#0c798e" stroke="#0c798e" stroke-width=".84" points="691.2473,-425.0513 691.47,-420.1827 688.2598,-423.8498 691.2473,-425.0513"/>
<text text-anchor="middle" x="707" y="-443" font-family="Arial" font-size="10.00" fill="#0c798e">20.94%</text>
<text text-anchor="middle" x="707" y="-432" font-family="Arial" font-size="10.00" fill="#0c798e">874325×</text>
</g>
<!-- 17&#45;&gt;6 -->
<g id="edge26" class="edge">
<title>17&#45;&gt;6</title>
<path fill="none" stroke="#0d1c77" stroke-width=".5" d="M288.7436,-367.7751C285.0344,-336.4723 279.203,-282.5139 277,-236 275.5833,-206.087 275.7845,-171.8607 276.2178,-148.0004"/>
<polygon fill="#0d1c77" stroke="#0d1c77" stroke-width=".5" points="277.4471,-147.785 276.2892,-144.2622 274.9975,-147.7382 277.4471,-147.785"/>
<text text-anchor="middle" x="298" y="-259" font-family="Arial" font-size="10.00" fill="#0d1c77">3.51%</text>
<text text-anchor="middle" x="298" y="-248" font-family="Arial" font-size="10.00" fill="#0d1c77">146876×</text>
</g>
<!-- 17&#45;&gt;27 -->
<g id="edge29" class="edge">
<title>17&#45;&gt;27</title>
<path fill="none" stroke="#0d0f73" stroke-width=".5" d="M243.7395,-367.8826C221.7526,-355.9837 195.7044,-341.8871 173.3562,-329.7928"/>
<polygon fill="#0d0f73" stroke="#0d0f73" stroke-width=".5" points="173.7479,-328.6119 170.0867,-328.0234 172.5818,-330.7666 173.7479,-328.6119"/>
<text text-anchor="middle" x="244.5" y="-351" font-family="Arial" font-size="10.00" fill="#0d0f73">0.50%</text>
<text text-anchor="middle" x="244.5" y="-340" font-family="Arial" font-size="10.00" fill="#0d0f73">73438×</text>
</g>
<!-- 12 -->
<g id="node17" class="node">
<title>12</title>
<polygon fill="#0c9093" stroke="#0c9093" points="482,-236 282,-236 282,-184 482,-184 482,-236"/>
<text text-anchor="middle" x="382" y="-224" font-family="Arial" font-size="10.00" fill="#ffffff">TreeGenerator::new_joint(Branch*, Joint&amp;)</text>
<text text-anchor="middle" x="382" y="-213" font-family="Arial" font-size="10.00" fill="#ffffff">24.44%</text>
<text text-anchor="middle" x="382" y="-202" font-family="Arial" font-size="10.00" fill="#ffffff">(0.00%)</text>
<text text-anchor="middle" x="382" y="-191" font-family="Arial" font-size="10.00" fill="#ffffff">1021301×</text>
</g>
<!-- 17&#45;&gt;12 -->
<g id="edge27" class="edge">
<title>17&#45;&gt;12</title>
<path fill="none" stroke="#0d1475" stroke-width=".5" d="M294.6172,-367.7941C297.9575,-342.9411 305.31,-305.1681 321,-276 328.291,-262.4458 339.0198,-249.5381 349.4548,-238.7909"/>
<polygon fill="#0d1475" stroke="#0d1475" stroke-width=".5" points="350.5159,-239.4593 352.0991,-236.106 348.7703,-237.7401 350.5159,-239.4593"/>
<text text-anchor="middle" x="337.5" y="-305" font-family="Arial" font-size="10.00" fill="#0d1475">1.76%</text>
<text text-anchor="middle" x="337.5" y="-294" font-family="Arial" font-size="10.00" fill="#0d1475">73438×</text>
</g>
<!-- 13 -->
<g id="node18" class="node">
<title>13</title>
<polygon fill="#0c8490" stroke="#0c8490" points="879.5,-328 358.5,-328 358.5,-276 879.5,-276 879.5,-328"/>
<text text-anchor="middle" x="619" y="-316" font-family="Arial" font-size="10.00" fill="#ffffff">TreeGenerator::new_segment2(Branch*, glm::vec&lt;3, float, (glm::qualifier)0&gt;&amp;, glm::vec&lt;3, float, (glm::qualifier)0&gt;&amp;)</text>
<text text-anchor="middle" x="619" y="-305" font-family="Arial" font-size="10.00" fill="#ffffff">22.69%</text>
<text text-anchor="middle" x="619" y="-294" font-family="Arial" font-size="10.00" fill="#ffffff">(0.00%)</text>
<text text-anchor="middle" x="619" y="-283" font-family="Arial" font-size="10.00" fill="#ffffff">947763×</text>
</g>
<!-- 17&#45;&gt;13 -->
<g id="edge28" class="edge">
<title>17&#45;&gt;13</title>
<path fill="none" stroke="#0d1475" stroke-width=".5" d="M384.8304,-367.8826C428.0763,-355.7155 479.4902,-341.2505 523.1108,-328.978"/>
<polygon fill="#0d1475" stroke="#0d1475" stroke-width=".5" points="523.4665,-330.1506 526.5039,-328.0234 522.8029,-327.7921 523.4665,-330.1506"/>
<text text-anchor="middle" x="511.5" y="-351" font-family="Arial" font-size="10.00" fill="#0d1475">1.76%</text>
<text text-anchor="middle" x="511.5" y="-340" font-family="Arial" font-size="10.00" fill="#0d1475">73438×</text>
</g>
<!-- 18&#45;&gt;3 -->
<g id="edge30" class="edge">
<title>18&#45;&gt;3</title>
<path fill="none" stroke="#0d2c7c" stroke-width=".5" d="M1037.5313,-367.9381C1017.6887,-351.7333 998,-328.8812 998,-302 998,-302 998,-302 998,-118 998,-75.9676 901.9108,-52.7058 810.7163,-40.0938"/>
<polygon fill="#0d2c7c" stroke="#0d2c7c" stroke-width=".5" points="810.8349,-38.8737 807.201,-39.6125 810.5025,-41.301 810.8349,-38.8737"/>
<text text-anchor="middle" x="1022.5" y="-213" font-family="Arial" font-size="10.00" fill="#0d2c7c">6.98%</text>
<text text-anchor="middle" x="1022.5" y="-202" font-family="Arial" font-size="10.00" fill="#0d2c7c">29505924×</text>
</g>
<!-- 10 -->
<g id="node15" class="node">
<title>10</title>
<polygon fill="#0ba165" stroke="#0ba165" points="1822.5,-328 1211.5,-328 1211.5,-276 1822.5,-276 1822.5,-328"/>
<text text-anchor="middle" x="1517" y="-316" font-family="Arial" font-size="10.00" fill="#ffffff">Clusterizer::match_joints(Branch*, Branch*, std::vector&lt;float, std::allocator&lt;float&gt; &gt;&amp;, std::vector&lt;int, std::allocator&lt;int&gt; &gt;&amp;, float, float)</text>
<text text-anchor="middle" x="1517" y="-305" font-family="Arial" font-size="10.00" fill="#ffffff">34.94%</text>
<text text-anchor="middle" x="1517" y="-294" font-family="Arial" font-size="10.00" fill="#ffffff">(34.46%)</text>
<text text-anchor="middle" x="1517" y="-283" font-family="Arial" font-size="10.00" fill="#ffffff">145471288×</text>
</g>
<!-- 9&#45;&gt;10 -->
<g id="edge16" class="edge">
<title>9&#45;&gt;10</title>
<path fill="none" stroke="#0ba165" stroke-width="1.4" d="M1517,-367.8826C1517,-357.394 1517,-345.1977 1517,-334.1704"/>
<polygon fill="#0ba165" stroke="#0ba165" stroke-width="1.4" points="1519.0651,-334.0827 1517,-328.1827 1514.9351,-334.0828 1519.0651,-334.0827"/>
<text text-anchor="middle" x="1541.5" y="-351" font-family="Arial" font-size="10.00" fill="#0ba165">34.94%</text>
<text text-anchor="middle" x="1541.5" y="-340" font-family="Arial" font-size="10.00" fill="#0ba165">18358770×</text>
</g>
<!-- 10&#45;&gt;10 -->
<g id="edge17" class="edge">
<title>10&#45;&gt;10</title>
<path fill="none" stroke="#0ba165" stroke-width="1.4" d="M1822.5625,-305.7228C1828.3255,-304.656 1831.5,-303.415 1831.5,-302 1831.5,-301.204 1830.4956,-300.4632 1828.591,-299.7774"/>
<polygon fill="#0ba165" stroke="#0ba165" stroke-width="1.4" points="1828.7866,-297.6982 1822.5625,-298.2772 1827.7892,-301.7059 1828.7866,-297.6982"/>
<text text-anchor="middle" x="1858" y="-299.5" font-family="Arial" font-size="10.00" fill="#0ba165">127112518×</text>
</g>
<!-- 14&#45;&gt;13 -->
<g id="edge22" class="edge">
<title>14&#45;&gt;13</title>
<path fill="none" stroke="#0c798e" stroke-width=".84" d="M678.4375,-367.8826C668.2741,-356.6171 656.3333,-343.3815 645.831,-331.7404"/>
<polygon fill="#0c798e" stroke="#0c798e" stroke-width=".84" points="646.8982,-330.5197 642.6214,-328.1827 644.5073,-332.6767 646.8982,-330.5197"/>
<text text-anchor="middle" x="690" y="-351" font-family="Arial" font-size="10.00" fill="#0c798e">20.93%</text>
<text text-anchor="middle" x="690" y="-340" font-family="Arial" font-size="10.00" fill="#0c798e">874325×</text>
</g>
<!-- 12&#45;&gt;6 -->
<g id="edge20" class="edge">
<title>12&#45;&gt;6</title>
<path fill="none" stroke="#0c9093" stroke-width=".98" d="M352.1921,-183.8826C339.2239,-172.52 323.9683,-159.1531 310.5996,-147.4397"/>
<polygon fill="#0c9093" stroke="#0c9093" stroke-width=".98" points="311.6982,-146.122 306.8825,-144.1827 309.4377,-148.7018 311.6982,-146.122"/>
<text text-anchor="middle" x="363.5" y="-167" font-family="Arial" font-size="10.00" fill="#0c9093">24.43%</text>
<text text-anchor="middle" x="363.5" y="-156" font-family="Arial" font-size="10.00" fill="#0c9093">1021301×</text>
</g>
<!-- 13&#45;&gt;12 -->
<g id="edge21" class="edge">
<title>13&#45;&gt;12</title>
<path fill="none" stroke="#0c8490" stroke-width=".91" d="M551.7193,-275.8826C521.0668,-263.9837 484.7526,-249.8871 453.5966,-237.7928"/>
<polygon fill="#0c8490" stroke="#0c8490" stroke-width=".91" points="454.1212,-236.1943 449.0385,-236.0234 452.9052,-239.3266 454.1212,-236.1943"/>
<text text-anchor="middle" x="548" y="-259" font-family="Arial" font-size="10.00" fill="#0c8490">22.68%</text>
<text text-anchor="middle" x="548" y="-248" font-family="Arial" font-size="10.00" fill="#0c8490">947763×</text>
</g>
<!-- 15 -->
<g id="node19" class="node">
<title>15</title>
<polygon fill="#0d337e" stroke="#0d337e" points="2597.5,-777 2520.5,-777 2520.5,-736 2597.5,-736 2597.5,-777"/>
<text text-anchor="middle" x="2559" y="-765" font-family="Arial" font-size="10.00" fill="#ffffff">View::render()</text>
<text text-anchor="middle" x="2559" y="-754" font-family="Arial" font-size="10.00" fill="#ffffff">8.44%</text>
<text text-anchor="middle" x="2559" y="-743" font-family="Arial" font-size="10.00" fill="#ffffff">(0.00%)</text>
</g>
<!-- 16 -->
<g id="node20" class="node">
<title>16</title>
<polygon fill="#0d337e" stroke="#0d337e" points="2648,-696 2470,-696 2470,-644 2648,-644 2648,-696"/>
<text text-anchor="middle" x="2559" y="-684" font-family="Arial" font-size="10.00" fill="#ffffff">main::{lambda()#1}::operator()() const</text>
<text text-anchor="middle" x="2559" y="-673" font-family="Arial" font-size="10.00" fill="#ffffff">8.44%</text>
<text text-anchor="middle" x="2559" y="-662" font-family="Arial" font-size="10.00" fill="#ffffff">(0.07%)</text>
<text text-anchor="middle" x="2559" y="-651" font-family="Arial" font-size="10.00" fill="#ffffff">42447×</text>
</g>
<!-- 15&#45;&gt;16 -->
<g id="edge23" class="edge">
<title>15&#45;&gt;16</title>
<path fill="none" stroke="#0d337e" stroke-width=".5" d="M2559,-735.5608C2559,-724.7764 2559,-711.4435 2559,-699.6232"/>
<polygon fill="#0d337e" stroke="#0d337e" stroke-width=".5" points="2560.2251,-699.5078 2559,-696.0078 2557.7751,-699.5079 2560.2251,-699.5078"/>
<text text-anchor="middle" x="2575.5" y="-719" font-family="Arial" font-size="10.00" fill="#0d337e">8.44%</text>
<text text-anchor="middle" x="2575.5" y="-708" font-family="Arial" font-size="10.00" fill="#0d337e">42447×</text>
</g>
<!-- 19 -->
<g id="node21" class="node">
<title>19</title>
<polygon fill="#0d277b" stroke="#0d277b" points="2518,-604 2352,-604 2352,-552 2518,-552 2518,-604"/>
<text text-anchor="middle" x="2435" y="-592" font-family="Arial" font-size="10.00" fill="#ffffff">BillboardCloud::prepare(Tree&amp;, int)</text>
<text text-anchor="middle" x="2435" y="-581" font-family="Arial" font-size="10.00" fill="#ffffff">6.09%</text>
<text text-anchor="middle" x="2435" y="-570" font-family="Arial" font-size="10.00" fill="#ffffff">(0.01%)</text>
<text text-anchor="middle" x="2435" y="-559" font-family="Arial" font-size="10.00" fill="#ffffff">42597×</text>
</g>
<!-- 16&#45;&gt;19 -->
<g id="edge24" class="edge">
<title>16&#45;&gt;19</title>
<path fill="none" stroke="#0d277b" stroke-width=".5" d="M2523.7983,-643.8826C2508.0907,-632.2286 2489.5416,-618.4663 2473.4696,-606.5419"/>
<polygon fill="#0d277b" stroke="#0d277b" stroke-width=".5" points="2473.8305,-605.2844 2470.2898,-604.1827 2472.3707,-607.252 2473.8305,-605.2844"/>
<text text-anchor="middle" x="2528.5" y="-627" font-family="Arial" font-size="10.00" fill="#0d277b">6.07%</text>
<text text-anchor="middle" x="2528.5" y="-616" font-family="Arial" font-size="10.00" fill="#0d277b">42447×</text>
</g>
<!-- 22 -->
<g id="node22" class="node">
<title>22</title>
<polygon fill="#0d1676" stroke="#0d1676" points="2832.5,-604 2533.5,-604 2533.5,-552 2832.5,-552 2832.5,-604"/>
<text text-anchor="middle" x="2683" y="-592" font-family="Arial" font-size="10.00" fill="#ffffff">Tree::render(Shader&amp;, int, glm::mat&lt;4, 4, float, (glm::qualifier)0&gt;)</text>
<text text-anchor="middle" x="2683" y="-581" font-family="Arial" font-size="10.00" fill="#ffffff">2.30%</text>
<text text-anchor="middle" x="2683" y="-570" font-family="Arial" font-size="10.00" fill="#ffffff">(0.49%)</text>
<text text-anchor="middle" x="2683" y="-559" font-family="Arial" font-size="10.00" fill="#ffffff">2122350×</text>
</g>
<!-- 16&#45;&gt;22 -->
<g id="edge25" class="edge">
<title>16&#45;&gt;22</title>
<path fill="none" stroke="#0d1676" stroke-width=".5" d="M2594.2017,-643.8826C2609.9093,-632.2286 2628.4584,-618.4663 2644.5304,-606.5419"/>
<polygon fill="#0d1676" stroke="#0d1676" stroke-width=".5" points="2645.6293,-607.252 2647.7102,-604.1827 2644.1695,-605.2844 2645.6293,-607.252"/>
<text text-anchor="middle" x="2657.5" y="-627" font-family="Arial" font-size="10.00" fill="#0d1676">2.30%</text>
<text text-anchor="middle" x="2657.5" y="-616" font-family="Arial" font-size="10.00" fill="#0d1676">2122350×</text>
</g>
<!-- 20 -->
<g id="node23" class="node">
<title>20</title>
<polygon fill="#0d267a" stroke="#0d267a" points="2469,-512 2265,-512 2265,-460 2469,-460 2469,-512"/>
<text text-anchor="middle" x="2367" y="-500" font-family="Arial" font-size="10.00" fill="#ffffff">BillboardCloud::get_minimal_bbox(Branch*)</text>
<text text-anchor="middle" x="2367" y="-489" font-family="Arial" font-size="10.00" fill="#ffffff">5.86%</text>
<text text-anchor="middle" x="2367" y="-478" font-family="Arial" font-size="10.00" fill="#ffffff">(0.03%)</text>
<text text-anchor="middle" x="2367" y="-467" font-family="Arial" font-size="10.00" fill="#ffffff">23750×</text>
</g>
<!-- 19&#45;&gt;20 -->
<g id="edge31" class="edge">
<title>19&#45;&gt;20</title>
<path fill="none" stroke="#0d267a" stroke-width=".5" d="M2415.6958,-551.8826C2407.2256,-540.4228 2397.2485,-526.9245 2388.538,-515.1397"/>
<polygon fill="#0d267a" stroke="#0d267a" stroke-width=".5" points="2389.418,-514.2692 2386.3525,-512.1827 2387.4477,-515.7255 2389.418,-514.2692"/>
<text text-anchor="middle" x="2426.5" y="-535" font-family="Arial" font-size="10.00" fill="#0d267a">5.86%</text>
<text text-anchor="middle" x="2426.5" y="-524" font-family="Arial" font-size="10.00" fill="#0d267a">23750×</text>
</g>
<!-- 23 -->
<g id="node25" class="node">
<title>23</title>
<polygon fill="#0d1475" stroke="#0d1475" points="2892.5,-512 2603.5,-512 2603.5,-460 2892.5,-460 2892.5,-512"/>
<text text-anchor="middle" x="2748" y="-500" font-family="Arial" font-size="10.00" fill="#ffffff">BillboardCloud::render(glm::mat&lt;4, 4, float, (glm::qualifier)0&gt;&amp;)</text>
<text text-anchor="middle" x="2748" y="-489" font-family="Arial" font-size="10.00" fill="#ffffff">1.77%</text>
<text text-anchor="middle" x="2748" y="-478" font-family="Arial" font-size="10.00" fill="#ffffff">(0.32%)</text>
<text text-anchor="middle" x="2748" y="-467" font-family="Arial" font-size="10.00" fill="#ffffff">2122350×</text>
</g>
<!-- 22&#45;&gt;23 -->
<g id="edge34" class="edge">
<title>22&#45;&gt;23</title>
<path fill="none" stroke="#0d1475" stroke-width=".5" d="M2701.4525,-551.8826C2709.5491,-540.4228 2719.0859,-526.9245 2727.4122,-515.1397"/>
<polygon fill="#0d1475" stroke="#0d1475" stroke-width=".5" points="2728.4822,-515.7481 2729.5013,-512.1827 2726.4812,-514.3344 2728.4822,-515.7481"/>
<text text-anchor="middle" x="2745.5" y="-535" font-family="Arial" font-size="10.00" fill="#0d1475">1.77%</text>
<text text-anchor="middle" x="2745.5" y="-524" font-family="Arial" font-size="10.00" fill="#0d1475">2122350×</text>
</g>
<!-- 21 -->
<g id="node24" class="node">
<title>21</title>
<polygon fill="#0d267a" stroke="#0d267a" points="2490,-420 1802,-420 1802,-368 2490,-368 2490,-420"/>
<text text-anchor="middle" x="2146" y="-408" font-family="Arial" font-size="10.00" fill="#ffffff">BillboardCloud::update_bbox(Branch*, glm::mat&lt;4, 4, float, (glm::qualifier)0&gt;&amp;, glm::vec&lt;4, float, (glm::qualifier)0&gt;&amp;, glm::vec&lt;4, float, (glm::qualifier)0&gt;&amp;)</text>
<text text-anchor="middle" x="2146" y="-397" font-family="Arial" font-size="10.00" fill="#ffffff">5.83%</text>
<text text-anchor="middle" x="2146" y="-386" font-family="Arial" font-size="10.00" fill="#ffffff">(5.83%)</text>
<text text-anchor="middle" x="2146" y="-375" font-family="Arial" font-size="10.00" fill="#ffffff">105288627×</text>
</g>
<!-- 20&#45;&gt;21 -->
<g id="edge32" class="edge">
<title>20&#45;&gt;21</title>
<path fill="none" stroke="#0d267a" stroke-width=".5" d="M2304.2614,-459.8826C2275.4441,-447.8862 2241.2602,-433.6558 2212.0496,-421.4958"/>
<polygon fill="#0d267a" stroke="#0d267a" stroke-width=".5" points="2212.2147,-420.2376 2208.5127,-420.0234 2211.2731,-422.4995 2212.2147,-420.2376"/>
<text text-anchor="middle" x="2304.5" y="-443" font-family="Arial" font-size="10.00" fill="#0d267a">5.82%</text>
<text text-anchor="middle" x="2304.5" y="-432" font-family="Arial" font-size="10.00" fill="#0d267a">8550000×</text>
</g>
<!-- 21&#45;&gt;21 -->
<g id="edge33" class="edge">
<title>21&#45;&gt;21</title>
<path fill="none" stroke="#0d267a" stroke-width=".5" d="M2490.1652,-397.5175C2495.875,-396.4977 2499,-395.3252 2499,-394 2499,-393.0061 2497.2422,-392.0981 2493.9545,-391.276"/>
<polygon fill="#0d267a" stroke="#0d267a" stroke-width=".5" points="2493.842,-390.001 2490.1652,-390.4825 2493.3398,-392.3989 2493.842,-390.001"/>
<text text-anchor="middle" x="2523.5" y="-391.5" font-family="Arial" font-size="10.00" fill="#0d267a">96732567×</text>
</g>
<!-- 24 -->
<g id="node26" class="node">
<title>24</title>
<polygon fill="#0d1375" stroke="#0d1375" points="3327.5,-420 2566.5,-420 2566.5,-368 3327.5,-368 3327.5,-420"/>
<text text-anchor="middle" x="2947" y="-408" font-family="Arial" font-size="10.00" fill="#ffffff">std::_Function_handler&lt;void (Model*), BillboardCloud::render(glm::mat&lt;4, 4, float, (glm::qualifier)0&gt;&amp;)::{lambda(Model*)#1}&gt;::_M_invoke(std::_Any_data const&amp;, Model*&amp;&amp;)</text>
<text text-anchor="middle" x="2947" y="-397" font-family="Arial" font-size="10.00" fill="#ffffff">1.42%</text>
<text text-anchor="middle" x="2947" y="-386" font-family="Arial" font-size="10.00" fill="#ffffff">(0.29%)</text>
<text text-anchor="middle" x="2947" y="-375" font-family="Arial" font-size="10.00" fill="#ffffff">2122350×</text>
</g>
<!-- 23&#45;&gt;24 -->
<g id="edge35" class="edge">
<title>23&#45;&gt;24</title>
<path fill="none" stroke="#0d1375" stroke-width=".5" d="M2804.4931,-459.8826C2830.4418,-447.8862 2861.2227,-433.6558 2887.5255,-421.4958"/>
<polygon fill="#0d1375" stroke="#0d1375" stroke-width=".5" points="2888.0474,-422.6041 2890.7103,-420.0234 2887.0193,-420.3802 2888.0474,-422.6041"/>
<text text-anchor="middle" x="2893.5" y="-443" font-family="Arial" font-size="10.00" fill="#0d1375">1.42%</text>
<text text-anchor="middle" x="2893.5" y="-432" font-family="Arial" font-size="10.00" fill="#0d1375">2122350×</text>
</g>
<!-- 25 -->
<g id="node27" class="node">
<title>25</title>
<polygon fill="#0d1174" stroke="#0d1174" points="3083,-328 2811,-328 2811,-276 3083,-276 3083,-328"/>
<text text-anchor="middle" x="2947" y="-316" font-family="Arial" font-size="10.00" fill="#ffffff">BillboardCloud::Billboard::to_model(Model*, TextureAtlas&amp;)</text>
<text text-anchor="middle" x="2947" y="-305" font-family="Arial" font-size="10.00" fill="#ffffff">1.12%</text>
<text text-anchor="middle" x="2947" y="-294" font-family="Arial" font-size="10.00" fill="#ffffff">(0.64%)</text>
<text text-anchor="middle" x="2947" y="-283" font-family="Arial" font-size="10.00" fill="#ffffff">153315090×</text>
</g>
<!-- 24&#45;&gt;25 -->
<g id="edge36" class="edge">
<title>24&#45;&gt;25</title>
<path fill="none" stroke="#0d1174" stroke-width=".5" d="M2947,-367.8826C2947,-356.6171 2947,-343.3815 2947,-331.7404"/>
<polygon fill="#0d1174" stroke="#0d1174" stroke-width=".5" points="2948.2251,-331.6827 2947,-328.1827 2945.7751,-331.6828 2948.2251,-331.6827"/>
<text text-anchor="middle" x="2974" y="-351" font-family="Arial" font-size="10.00" fill="#0d1174">1.12%</text>
<text text-anchor="middle" x="2974" y="-340" font-family="Arial" font-size="10.00" fill="#0d1174">153315090×</text>
</g>
</g>
</svg>
