<?xml version="1.0" encoding="UTF-8" standalone="no"?>
<!DOCTYPE svg PUBLIC "-//W3C//DTD SVG 1.1//EN"
 "http://www.w3.org/Graphics/SVG/1.1/DTD/svg11.dtd">
<!-- Generated by graphviz version 2.40.1 (20161225.0304)
 -->
<!-- Title: %3 Pages: 1 -->
<svg width="3914pt" height="969pt"
 viewBox="0.00 0.00 3913.50 969.00" xmlns="http://www.w3.org/2000/svg" xmlns:xlink="http://www.w3.org/1999/xlink">
<g id="graph0" class="graph" transform="scale(1 1) rotate(0) translate(4 965)">
<title>%3</title>
<polygon fill="#ffffff" stroke="transparent" points="-4,4 -4,-965 3909.5,-965 3909.5,4 -4,4"/>
<!-- 1 -->
<g id="node1" class="node">
<title>1</title>
<polygon fill="#ff0100" stroke="#ff0100" points="2620,-880 2454,-880 2454,-828 2620,-828 2620,-880"/>
<text text-anchor="middle" x="2537" y="-868" font-family="Arial" font-size="10.00" fill="#ffffff">SceneGenerator::generate_grove()</text>
<text text-anchor="middle" x="2537" y="-857" font-family="Arial" font-size="10.00" fill="#ffffff">99.87%</text>
<text text-anchor="middle" x="2537" y="-846" font-family="Arial" font-size="10.00" fill="#ffffff">(0.00%)</text>
<text text-anchor="middle" x="2537" y="-835" font-family="Arial" font-size="10.00" fill="#ffffff">1×</text>
</g>
<!-- 3 -->
<g id="node2" class="node">
<title>3</title>
<polygon fill="#ee6a03" stroke="#ee6a03" points="1499.5,-788 758.5,-788 758.5,-736 1499.5,-736 1499.5,-788"/>
<text text-anchor="middle" x="1129" y="-776" font-family="Arial" font-size="10.00" fill="#ffffff">GroveGenerator::prepare_patch(GrovePrototype&amp;, std::vector&lt;TreeTypeData, std::allocator&lt;TreeTypeData&gt; &gt;&amp;, Heightmap&amp;, GroveMask&amp;, LightVoxelsCube&amp;, Tree*)</text>
<text text-anchor="middle" x="1129" y="-765" font-family="Arial" font-size="10.00" fill="#ffffff">89.02%</text>
<text text-anchor="middle" x="1129" y="-754" font-family="Arial" font-size="10.00" fill="#ffffff">(0.00%)</text>
<text text-anchor="middle" x="1129" y="-743" font-family="Arial" font-size="10.00" fill="#ffffff">1×</text>
</g>
<!-- 1&#45;&gt;3 -->
<g id="edge1" class="edge">
<title>1&#45;&gt;3</title>
<path fill="none" stroke="#ee6a03" stroke-width="3.56" d="M2453.9726,-848.8484C2280.0827,-838.0255 1864.6246,-811.9927 1509.0398,-788.3351"/>
<polygon fill="#ee6a03" stroke="#ee6a03" stroke-width="3.56" points="1509.193,-785.0481 1499.5952,-787.7064 1508.7559,-791.6136 1509.193,-785.0481"/>
<text text-anchor="middle" x="1975" y="-811" font-family="Arial" font-size="10.00" fill="#ee6a03">89.02%</text>
<text text-anchor="middle" x="1975" y="-800" font-family="Arial" font-size="10.00" fill="#ee6a03">1×</text>
</g>
<!-- 10 -->
<g id="node3" class="node">
<title>10</title>
<polygon fill="#0d1b77" stroke="#0d1b77" points="2233.5,-788 1508.5,-788 1508.5,-736 2233.5,-736 2233.5,-788"/>
<text text-anchor="middle" x="1871" y="-776" font-family="Arial" font-size="10.00" fill="#ffffff">LightVoxelsCube::LightVoxelsCube(LightVoxelsCube*, glm::vec&lt;3, int, (glm::qualifier)0&gt;, glm::vec&lt;3, int, (glm::qualifier)0&gt;, int, glm::vec&lt;2, float, (glm::qualifier)0&gt;)</text>
<text text-anchor="middle" x="1871" y="-765" font-family="Arial" font-size="10.00" fill="#ffffff">3.25%</text>
<text text-anchor="middle" x="1871" y="-754" font-family="Arial" font-size="10.00" fill="#ffffff">(3.25%)</text>
<text text-anchor="middle" x="1871" y="-743" font-family="Arial" font-size="10.00" fill="#ffffff">1×</text>
</g>
<!-- 1&#45;&gt;10 -->
<g id="edge2" class="edge">
<title>1&#45;&gt;10</title>
<path fill="none" stroke="#0d1b77" stroke-width=".5" d="M2453.9972,-842.5342C2356.7975,-829.1072 2192.6295,-806.4293 2063.2241,-788.5535"/>
<polygon fill="#0d1b77" stroke="#0d1b77" stroke-width=".5" points="2063.0405,-787.2916 2059.4057,-788.026 2062.7052,-789.7185 2063.0405,-787.2916"/>
<text text-anchor="middle" x="2298" y="-811" font-family="Arial" font-size="10.00" fill="#0d1b77">3.25%</text>
<text text-anchor="middle" x="2298" y="-800" font-family="Arial" font-size="10.00" fill="#0d1b77">1×</text>
</g>
<!-- 13 -->
<g id="node4" class="node">
<title>13</title>
<polygon fill="#0d1876" stroke="#0d1876" points="2565,-788 2243,-788 2243,-736 2565,-736 2565,-788"/>
<text text-anchor="middle" x="2404" y="-776" font-family="Arial" font-size="10.00" fill="#ffffff">Field_2d::fill_perlin(float, float, float, glm::vec&lt;2, int, (glm::qualifier)0&gt;)</text>
<text text-anchor="middle" x="2404" y="-765" font-family="Arial" font-size="10.00" fill="#ffffff">2.60%</text>
<text text-anchor="middle" x="2404" y="-754" font-family="Arial" font-size="10.00" fill="#ffffff">(0.00%)</text>
<text text-anchor="middle" x="2404" y="-743" font-family="Arial" font-size="10.00" fill="#ffffff">1×</text>
</g>
<!-- 1&#45;&gt;13 -->
<g id="edge3" class="edge">
<title>1&#45;&gt;13</title>
<path fill="none" stroke="#0d1876" stroke-width=".5" d="M2499.2433,-827.8826C2482.2553,-816.1315 2462.1685,-802.2368 2444.8313,-790.2442"/>
<polygon fill="#0d1876" stroke="#0d1876" stroke-width=".5" points="2445.4265,-789.1664 2441.8511,-788.1827 2444.0327,-791.1813 2445.4265,-789.1664"/>
<text text-anchor="middle" x="2501" y="-811" font-family="Arial" font-size="10.00" fill="#0d1876">2.60%</text>
<text text-anchor="middle" x="2501" y="-800" font-family="Arial" font-size="10.00" fill="#0d1876">1×</text>
</g>
<!-- 14 -->
<g id="node5" class="node">
<title>14</title>
<polygon fill="#0d1575" stroke="#0d1575" points="2862,-788 2574,-788 2574,-736 2862,-736 2862,-788"/>
<text text-anchor="middle" x="2718" y="-776" font-family="Arial" font-size="10.00" fill="#ffffff">GrassGenerator::pack_all_grass(GrassPacked&amp;, Heightmap&amp;)</text>
<text text-anchor="middle" x="2718" y="-765" font-family="Arial" font-size="10.00" fill="#ffffff">2.02%</text>
<text text-anchor="middle" x="2718" y="-754" font-family="Arial" font-size="10.00" fill="#ffffff">(0.00%)</text>
<text text-anchor="middle" x="2718" y="-743" font-family="Arial" font-size="10.00" fill="#ffffff">1×</text>
</g>
<!-- 1&#45;&gt;14 -->
<g id="edge4" class="edge">
<title>1&#45;&gt;14</title>
<path fill="none" stroke="#0d1575" stroke-width=".5" d="M2588.3832,-827.8826C2611.8888,-815.935 2639.7539,-801.7715 2663.6131,-789.6442"/>
<polygon fill="#0d1575" stroke="#0d1575" stroke-width=".5" points="2664.2368,-790.7014 2666.8018,-788.0234 2663.1267,-788.5173 2664.2368,-790.7014"/>
<text text-anchor="middle" x="2664" y="-811" font-family="Arial" font-size="10.00" fill="#0d1575">2.02%</text>
<text text-anchor="middle" x="2664" y="-800" font-family="Arial" font-size="10.00" fill="#0d1575">1×</text>
</g>
<!-- 19 -->
<g id="node6" class="node">
<title>19</title>
<polygon fill="#0d1375" stroke="#0d1375" points="3092.5,-788 2871.5,-788 2871.5,-736 3092.5,-736 3092.5,-788"/>
<text text-anchor="middle" x="2982" y="-776" font-family="Arial" font-size="10.00" fill="#ffffff">LightVoxelsCube::add_heightmap(Heightmap&amp;)</text>
<text text-anchor="middle" x="2982" y="-765" font-family="Arial" font-size="10.00" fill="#ffffff">1.56%</text>
<text text-anchor="middle" x="2982" y="-754" font-family="Arial" font-size="10.00" fill="#ffffff">(1.56%)</text>
<text text-anchor="middle" x="2982" y="-743" font-family="Arial" font-size="10.00" fill="#ffffff">1×</text>
</g>
<!-- 1&#45;&gt;19 -->
<g id="edge5" class="edge">
<title>1&#45;&gt;19</title>
<path fill="none" stroke="#0d1375" stroke-width=".5" d="M2620.2635,-837.8345C2686.8388,-824.7794 2782.5163,-805.7273 2866,-788 2866.6814,-787.8553 2867.3649,-787.7099 2868.0505,-787.5639"/>
<polygon fill="#0d1375" stroke="#0d1375" stroke-width=".5" points="2868.3275,-788.7574 2871.4944,-786.8283 2867.8157,-786.3615 2868.3275,-788.7574"/>
<text text-anchor="middle" x="2836" y="-811" font-family="Arial" font-size="10.00" fill="#0d1375">1.56%</text>
<text text-anchor="middle" x="2836" y="-800" font-family="Arial" font-size="10.00" fill="#0d1375">1×</text>
</g>
<!-- 20 -->
<g id="node7" class="node">
<title>20</title>
<polygon fill="#0d1274" stroke="#0d1274" points="3597,-788 3127,-788 3127,-736 3597,-736 3597,-788"/>
<text text-anchor="middle" x="3362" y="-776" font-family="Arial" font-size="10.00" fill="#ffffff">GrovePacker::add_trees_to_grove(GroveGenerationData, GrovePacked&amp;, Tree*, Heightmap*, bool, bool)</text>
<text text-anchor="middle" x="3362" y="-765" font-family="Arial" font-size="10.00" fill="#ffffff">1.36%</text>
<text text-anchor="middle" x="3362" y="-754" font-family="Arial" font-size="10.00" fill="#ffffff">(0.00%)</text>
<text text-anchor="middle" x="3362" y="-743" font-family="Arial" font-size="10.00" fill="#ffffff">1×</text>
</g>
<!-- 1&#45;&gt;20 -->
<g id="edge6" class="edge">
<title>1&#45;&gt;20</title>
<path fill="none" stroke="#0d1274" stroke-width=".5" d="M2620.2355,-844.7664C2683.7401,-837.7181 2773.3895,-827.7602 2852,-819 2941.4085,-809.0365 3039.6305,-798.0649 3125.8034,-788.4306"/>
<polygon fill="#0d1274" stroke="#0d1274" stroke-width=".5" points="3126.0376,-789.6371 3129.3798,-788.0307 3125.7653,-787.2023 3126.0376,-789.6371"/>
<text text-anchor="middle" x="3063" y="-811" font-family="Arial" font-size="10.00" fill="#0d1274">1.36%</text>
<text text-anchor="middle" x="3063" y="-800" font-family="Arial" font-size="10.00" fill="#0d1274">1×</text>
</g>
<!-- 4 -->
<g id="node9" class="node">
<title>4</title>
<polygon fill="#ee6b03" stroke="#ee6b03" points="1235,-696 1023,-696 1023,-644 1235,-644 1235,-696"/>
<text text-anchor="middle" x="1129" y="-684" font-family="Arial" font-size="10.00" fill="#ffffff">GETreeGenerator::iterate(LightVoxelsCube&amp;)</text>
<text text-anchor="middle" x="1129" y="-673" font-family="Arial" font-size="10.00" fill="#ffffff">88.97%</text>
<text text-anchor="middle" x="1129" y="-662" font-family="Arial" font-size="10.00" fill="#ffffff">(0.00%)</text>
<text text-anchor="middle" x="1129" y="-651" font-family="Arial" font-size="10.00" fill="#ffffff">30×</text>
</g>
<!-- 3&#45;&gt;4 -->
<g id="edge8" class="edge">
<title>3&#45;&gt;4</title>
<path fill="none" stroke="#ee6b03" stroke-width="3.56" d="M1129,-735.8826C1129,-726.5594 1129,-715.8869 1129,-705.8856"/>
<polygon fill="#ee6b03" stroke="#ee6b03" stroke-width="3.56" points="1132.2901,-705.5827 1129,-696.1827 1125.7101,-705.5828 1132.2901,-705.5827"/>
<text text-anchor="middle" x="1146" y="-719" font-family="Arial" font-size="10.00" fill="#ee6b03">88.97%</text>
<text text-anchor="middle" x="1146" y="-708" font-family="Arial" font-size="10.00" fill="#ee6b03">30×</text>
</g>
<!-- 12 -->
<g id="node18" class="node">
<title>12</title>
<polygon fill="#0d1876" stroke="#0d1876" points="2445,-696 2347,-696 2347,-644 2445,-644 2445,-696"/>
<text text-anchor="middle" x="2396" y="-684" font-family="Arial" font-size="10.00" fill="#ffffff">f_perlin(float, float)</text>
<text text-anchor="middle" x="2396" y="-673" font-family="Arial" font-size="10.00" fill="#ffffff">2.60%</text>
<text text-anchor="middle" x="2396" y="-662" font-family="Arial" font-size="10.00" fill="#ffffff">(2.60%)</text>
<text text-anchor="middle" x="2396" y="-651" font-family="Arial" font-size="10.00" fill="#ffffff">641601×</text>
</g>
<!-- 13&#45;&gt;12 -->
<g id="edge22" class="edge">
<title>13&#45;&gt;12</title>
<path fill="none" stroke="#0d1876" stroke-width=".5" d="M2401.7289,-735.8826C2400.7493,-724.6171 2399.5984,-711.3815 2398.5861,-699.7404"/>
<polygon fill="#0d1876" stroke="#0d1876" stroke-width=".5" points="2399.8004,-699.5634 2398.2768,-696.1827 2397.3597,-699.7757 2399.8004,-699.5634"/>
<text text-anchor="middle" x="2420" y="-719" font-family="Arial" font-size="10.00" fill="#0d1876">2.60%</text>
<text text-anchor="middle" x="2420" y="-708" font-family="Arial" font-size="10.00" fill="#0d1876">641601×</text>
</g>
<!-- 17 -->
<g id="node19" class="node">
<title>17</title>
<polygon fill="#0d1575" stroke="#0d1575" points="2981.5,-696 2454.5,-696 2454.5,-644 2981.5,-644 2981.5,-696"/>
<text text-anchor="middle" x="2718" y="-684" font-family="Arial" font-size="10.00" fill="#ffffff">TextureManager::save_png(Texture&amp;, std::__cxx11::basic_string&lt;char, std::char_traits&lt;char&gt;, std::allocator&lt;char&gt; &gt;)</text>
<text text-anchor="middle" x="2718" y="-673" font-family="Arial" font-size="10.00" fill="#ffffff">1.95%</text>
<text text-anchor="middle" x="2718" y="-662" font-family="Arial" font-size="10.00" fill="#ffffff">(0.00%)</text>
<text text-anchor="middle" x="2718" y="-651" font-family="Arial" font-size="10.00" fill="#ffffff">2×</text>
</g>
<!-- 14&#45;&gt;17 -->
<g id="edge23" class="edge">
<title>14&#45;&gt;17</title>
<path fill="none" stroke="#0d1575" stroke-width=".5" d="M2718,-735.8826C2718,-724.6171 2718,-711.3815 2718,-699.7404"/>
<polygon fill="#0d1575" stroke="#0d1575" stroke-width=".5" points="2719.2251,-699.6827 2718,-696.1827 2716.7751,-699.6828 2719.2251,-699.6827"/>
<text text-anchor="middle" x="2732" y="-719" font-family="Arial" font-size="10.00" fill="#0d1575">1.95%</text>
<text text-anchor="middle" x="2732" y="-708" font-family="Arial" font-size="10.00" fill="#0d1575">2×</text>
</g>
<!-- 21 -->
<g id="node23" class="node">
<title>21</title>
<polygon fill="#0d1274" stroke="#0d1274" points="3671.5,-696 3164.5,-696 3164.5,-644 3671.5,-644 3671.5,-696"/>
<text text-anchor="middle" x="3418" y="-684" font-family="Arial" font-size="10.00" fill="#ffffff">GrovePacker::add_trees_to_grove_internal(GroveGenerationData, GrovePacked&amp;, Tree*, Heightmap*, bool, bool)</text>
<text text-anchor="middle" x="3418" y="-673" font-family="Arial" font-size="10.00" fill="#ffffff">1.36%</text>
<text text-anchor="middle" x="3418" y="-662" font-family="Arial" font-size="10.00" fill="#ffffff">(0.00%)</text>
<text text-anchor="middle" x="3418" y="-651" font-family="Arial" font-size="10.00" fill="#ffffff">1×</text>
</g>
<!-- 20&#45;&gt;21 -->
<g id="edge27" class="edge">
<title>20&#45;&gt;21</title>
<path fill="none" stroke="#0d1274" stroke-width=".5" d="M3377.8976,-735.8826C3384.8139,-724.52 3392.9503,-711.1531 3400.0802,-699.4397"/>
<polygon fill="#0d1274" stroke="#0d1274" stroke-width=".5" points="3401.2892,-699.8094 3402.0627,-696.1827 3399.1964,-698.5355 3401.2892,-699.8094"/>
<text text-anchor="middle" x="3411" y="-719" font-family="Arial" font-size="10.00" fill="#0d1274">1.36%</text>
<text text-anchor="middle" x="3411" y="-708" font-family="Arial" font-size="10.00" fill="#0d1274">1×</text>
</g>
<!-- 2 -->
<g id="node8" class="node">
<title>2</title>
<polygon fill="#ff0100" stroke="#ff0100" points="2613,-961 2461,-961 2461,-920 2613,-920 2613,-961"/>
<text text-anchor="middle" x="2537" y="-949" font-family="Arial" font-size="10.00" fill="#ffffff">parser::parser_main(int, char**)</text>
<text text-anchor="middle" x="2537" y="-938" font-family="Arial" font-size="10.00" fill="#ffffff">99.87%</text>
<text text-anchor="middle" x="2537" y="-927" font-family="Arial" font-size="10.00" fill="#ffffff">(0.00%)</text>
</g>
<!-- 2&#45;&gt;1 -->
<g id="edge7" class="edge">
<title>2&#45;&gt;1</title>
<path fill="none" stroke="#ff0100" stroke-width="3.99" d="M2537,-919.5608C2537,-910.7288 2537,-900.1874 2537,-890.1675"/>
<polygon fill="#ff0100" stroke="#ff0100" stroke-width="3.99" points="2540.5001,-890.0078 2537,-880.0078 2533.5001,-890.0079 2540.5001,-890.0078"/>
<text text-anchor="middle" x="2554" y="-903" font-family="Arial" font-size="10.00" fill="#ff0100">99.87%</text>
<text text-anchor="middle" x="2554" y="-892" font-family="Arial" font-size="10.00" fill="#ff0100">1×</text>
</g>
<!-- 6 -->
<g id="node10" class="node">
<title>6</title>
<polygon fill="#8bcd07" stroke="#8bcd07" points="1661,-604 597,-604 597,-552 1661,-552 1661,-604"/>
<text text-anchor="middle" x="1129" y="-592" font-family="Arial" font-size="10.00" fill="#ffffff">GETreeGenerator::grow_nodes(GETreeGenerator::Tree&amp;, GETreeParameters&amp;, std::vector&lt;GETreeGenerator::GrowPoint, std::allocator&lt;GETreeGenerator::GrowPoint&gt; &gt;&amp;, GETreeGenerator::SpaceColonizationData&amp;, LightVoxelsCube&amp;, int)</text>
<text text-anchor="middle" x="1129" y="-581" font-family="Arial" font-size="10.00" fill="#ffffff">66.65%</text>
<text text-anchor="middle" x="1129" y="-570" font-family="Arial" font-size="10.00" fill="#ffffff">(0.32%)</text>
<text text-anchor="middle" x="1129" y="-559" font-family="Arial" font-size="10.00" fill="#ffffff">172×</text>
</g>
<!-- 4&#45;&gt;6 -->
<g id="edge9" class="edge">
<title>4&#45;&gt;6</title>
<path fill="none" stroke="#8bcd07" stroke-width="2.67" d="M1129,-643.8826C1129,-634.1709 1129,-622.9952 1129,-612.639"/>
<polygon fill="#8bcd07" stroke="#8bcd07" stroke-width="2.67" points="1131.8701,-612.3827 1129,-604.1827 1126.1301,-612.3828 1131.8701,-612.3827"/>
<text text-anchor="middle" x="1146" y="-627" font-family="Arial" font-size="10.00" fill="#8bcd07">66.65%</text>
<text text-anchor="middle" x="1146" y="-616" font-family="Arial" font-size="10.00" fill="#8bcd07">172×</text>
</g>
<!-- 7 -->
<g id="node11" class="node">
<title>7</title>
<polygon fill="#0c778e" stroke="#0c778e" points="2269.5,-604 1670.5,-604 1670.5,-552 2269.5,-552 2269.5,-604"/>
<text text-anchor="middle" x="1970" y="-592" font-family="Arial" font-size="10.00" fill="#ffffff">GETreeGenerator::remove_branches(GETreeGenerator::Tree&amp;, GETreeGenerator::Branch&amp;, GETreeParameters&amp;, LightVoxelsCube&amp;)</text>
<text text-anchor="middle" x="1970" y="-581" font-family="Arial" font-size="10.00" fill="#ffffff">20.70%</text>
<text text-anchor="middle" x="1970" y="-570" font-family="Arial" font-size="10.00" fill="#ffffff">(0.13%)</text>
<text text-anchor="middle" x="1970" y="-559" font-family="Arial" font-size="10.00" fill="#ffffff">97570×</text>
</g>
<!-- 4&#45;&gt;7 -->
<g id="edge10" class="edge">
<title>4&#45;&gt;7</title>
<path fill="none" stroke="#0c778e" stroke-width=".83" d="M1235.0871,-658.3948C1357.9593,-644.9533 1564.3395,-622.3767 1727.1686,-604.5642"/>
<polygon fill="#0c778e" stroke="#0c778e" stroke-width=".83" points="1727.6712,-606.0937 1731.9732,-604.0386 1727.3286,-602.9624 1727.6712,-606.0937"/>
<text text-anchor="middle" x="1667" y="-627" font-family="Arial" font-size="10.00" fill="#0c778e">20.70%</text>
<text text-anchor="middle" x="1667" y="-616" font-family="Arial" font-size="10.00" fill="#0c778e">172×</text>
</g>
<!-- 30 -->
<g id="node12" class="node">
<title>30</title>
<polygon fill="#0d0f74" stroke="#0d0f74" points="564,-604 0,-604 0,-552 564,-552 564,-604"/>
<text text-anchor="middle" x="282" y="-592" font-family="Arial" font-size="10.00" fill="#ffffff">Octree::insert_vector(std::vector&lt;glm::vec&lt;3, float, (glm::qualifier)0&gt;, std::allocator&lt;glm::vec&lt;3, float, (glm::qualifier)0&gt; &gt; &gt;&amp;)</text>
<text text-anchor="middle" x="282" y="-581" font-family="Arial" font-size="10.00" fill="#ffffff">0.65%</text>
<text text-anchor="middle" x="282" y="-570" font-family="Arial" font-size="10.00" fill="#ffffff">(0.00%)</text>
<text text-anchor="middle" x="282" y="-559" font-family="Arial" font-size="10.00" fill="#ffffff">172×</text>
</g>
<!-- 4&#45;&gt;30 -->
<g id="edge11" class="edge">
<title>4&#45;&gt;30</title>
<path fill="none" stroke="#0d0f74" stroke-width=".5" d="M1022.5845,-658.4413C898.5986,-644.9741 689.7713,-622.2916 525.4142,-604.4393"/>
<polygon fill="#0d0f74" stroke="#0d0f74" stroke-width=".5" points="525.152,-603.1787 521.5401,-604.0185 524.8873,-605.6144 525.152,-603.1787"/>
<text text-anchor="middle" x="821" y="-627" font-family="Arial" font-size="10.00" fill="#0d0f74">0.65%</text>
<text text-anchor="middle" x="821" y="-616" font-family="Arial" font-size="10.00" fill="#0d0f74">172×</text>
</g>
<!-- 5 -->
<g id="node13" class="node">
<title>5</title>
<polygon fill="#e1b305" stroke="#e1b305" points="2165,-420 1745,-420 1745,-368 2165,-368 2165,-420"/>
<text text-anchor="middle" x="1955" y="-408" font-family="Arial" font-size="10.00" fill="#ffffff">LightVoxelsCube::set_occluder_pyramid2(glm::vec&lt;3, float, (glm::qualifier)0&gt;, float, float, int)</text>
<text text-anchor="middle" x="1955" y="-397" font-family="Arial" font-size="10.00" fill="#ffffff">80.22%</text>
<text text-anchor="middle" x="1955" y="-386" font-family="Arial" font-size="10.00" fill="#ffffff">(79.99%)</text>
<text text-anchor="middle" x="1955" y="-375" font-family="Arial" font-size="10.00" fill="#ffffff">72266×</text>
</g>
<!-- 6&#45;&gt;5 -->
<g id="edge12" class="edge">
<title>6&#45;&gt;5</title>
<path fill="none" stroke="#52c408" stroke-width="2.39" d="M1617.3166,-551.958C1703.158,-542.4602 1778.0769,-529.544 1819,-512 1863.3918,-492.9689 1903.7396,-453.9257 1928.7541,-425.9597"/>
<polygon fill="#52c408" stroke="#52c408" stroke-width="2.39" points="1930.786,-427.7302 1933.8551,-420.1714 1926.7422,-424.1665 1930.786,-427.7302"/>
<text text-anchor="middle" x="1912" y="-489" font-family="Arial" font-size="10.00" fill="#52c408">59.82%</text>
<text text-anchor="middle" x="1912" y="-478" font-family="Arial" font-size="10.00" fill="#52c408">53893×</text>
</g>
<!-- 8 -->
<g id="node14" class="node">
<title>8</title>
<polygon fill="#0d257a" stroke="#0d257a" points="1814.5,-512 899.5,-512 899.5,-460 1814.5,-460 1814.5,-512"/>
<text text-anchor="middle" x="1357" y="-500" font-family="Arial" font-size="10.00" fill="#ffffff">GETreeGenerator::SpaceColonizationData::find_best_pos(LightVoxelsCube&amp;, float, glm::vec&lt;3, float, (glm::qualifier)0&gt;, glm::vec&lt;3, float, (glm::qualifier)0&gt;, float, glm::vec&lt;3, float, (glm::qualifier)0&gt;&amp;, float&amp;)</text>
<text text-anchor="middle" x="1357" y="-489" font-family="Arial" font-size="10.00" fill="#ffffff">5.52%</text>
<text text-anchor="middle" x="1357" y="-478" font-family="Arial" font-size="10.00" fill="#ffffff">(0.13%)</text>
<text text-anchor="middle" x="1357" y="-467" font-family="Arial" font-size="10.00" fill="#ffffff">64648×</text>
</g>
<!-- 6&#45;&gt;8 -->
<g id="edge13" class="edge">
<title>6&#45;&gt;8</title>
<path fill="none" stroke="#0d257a" stroke-width=".5" d="M1193.7258,-551.8826C1223.5768,-539.8374 1259.0093,-525.5401 1289.2256,-513.3476"/>
<polygon fill="#0d257a" stroke="#0d257a" stroke-width=".5" points="1289.72,-514.4691 1292.5073,-512.0234 1288.8031,-512.1971 1289.72,-514.4691"/>
<text text-anchor="middle" x="1287.5" y="-535" font-family="Arial" font-size="10.00" fill="#0d257a">5.52%</text>
<text text-anchor="middle" x="1287.5" y="-524" font-family="Arial" font-size="10.00" fill="#0d257a">64648×</text>
</g>
<!-- 23 -->
<g id="node15" class="node">
<title>23</title>
<polygon fill="#0d1174" stroke="#0d1174" points="829.5,-512 440.5,-512 440.5,-460 829.5,-460 829.5,-512"/>
<text text-anchor="middle" x="635" y="-500" font-family="Arial" font-size="10.00" fill="#ffffff">Octree::Node::remove_in_sphere(AABB&amp;, float, glm::vec&lt;3, float, (glm::qualifier)0&gt;&amp;)</text>
<text text-anchor="middle" x="635" y="-489" font-family="Arial" font-size="10.00" fill="#ffffff">0.97%</text>
<text text-anchor="middle" x="635" y="-478" font-family="Arial" font-size="10.00" fill="#ffffff">(0.97%)</text>
<text text-anchor="middle" x="635" y="-467" font-family="Arial" font-size="10.00" fill="#ffffff">2765117×</text>
</g>
<!-- 6&#45;&gt;23 -->
<g id="edge14" class="edge">
<title>6&#45;&gt;23</title>
<path fill="none" stroke="#0d1174" stroke-width=".5" d="M989.0906,-551.944C923.2276,-539.678 844.7663,-525.0658 778.46,-512.7172"/>
<polygon fill="#0d1174" stroke="#0d1174" stroke-width=".5" points="778.5777,-511.4932 774.9126,-512.0566 778.1291,-513.9018 778.5777,-511.4932"/>
<text text-anchor="middle" x="957.5" y="-535" font-family="Arial" font-size="10.00" fill="#0d1174">0.97%</text>
<text text-anchor="middle" x="957.5" y="-524" font-family="Arial" font-size="10.00" fill="#0d1174">53893×</text>
</g>
<!-- 7&#45;&gt;7 -->
<g id="edge16" class="edge">
<title>7&#45;&gt;7</title>
<path fill="none" stroke="#0c778e" stroke-width=".83" d="M2269.733,-581.7228C2275.3861,-580.656 2278.5,-579.415 2278.5,-578 2278.5,-577.0272 2277.0282,-576.1366 2274.2713,-575.3284"/>
<polygon fill="#0c778e" stroke="#0c778e" stroke-width=".83" points="2274.4724,-573.7583 2269.733,-574.2772 2273.7616,-576.8271 2274.4724,-573.7583"/>
<text text-anchor="middle" x="2295" y="-575.5" font-family="Arial" font-size="10.00" fill="#0c778e">97398×</text>
</g>
<!-- 7&#45;&gt;5 -->
<g id="edge15" class="edge">
<title>7&#45;&gt;5</title>
<path fill="none" stroke="#0c6489" stroke-width=".7" d="M1956.5213,-551.759C1951.1776,-539.9386 1945.6753,-525.6051 1943,-512 1937.2401,-482.7077 1941.8525,-448.7487 1946.9366,-424.803"/>
<polygon fill="#0c6489" stroke="#0c6489" stroke-width=".7" points="1948.4269,-424.8689 1947.889,-420.4517 1945.5549,-424.2402 1948.4269,-424.8689"/>
<text text-anchor="middle" x="1960" y="-489" font-family="Arial" font-size="10.00" fill="#0c6489">17.50%</text>
<text text-anchor="middle" x="1960" y="-478" font-family="Arial" font-size="10.00" fill="#0c6489">15764×</text>
</g>
<!-- 11 -->
<g id="node16" class="node">
<title>11</title>
<polygon fill="#0d1976" stroke="#0d1976" points="2474,-512 1982,-512 1982,-460 2474,-460 2474,-512"/>
<text text-anchor="middle" x="2228" y="-500" font-family="Arial" font-size="10.00" fill="#ffffff">GETreeGenerator::set_occlusion(GETreeGenerator::Branch&amp;, LightVoxelsCube&amp;, GETreeParameters&amp;, float)</text>
<text text-anchor="middle" x="2228" y="-489" font-family="Arial" font-size="10.00" fill="#ffffff">2.90%</text>
<text text-anchor="middle" x="2228" y="-478" font-family="Arial" font-size="10.00" fill="#ffffff">(0.00%)</text>
<text text-anchor="middle" x="2228" y="-467" font-family="Arial" font-size="10.00" fill="#ffffff">2328×</text>
</g>
<!-- 7&#45;&gt;11 -->
<g id="edge17" class="edge">
<title>7&#45;&gt;11</title>
<path fill="none" stroke="#0d1976" stroke-width=".5" d="M2043.2423,-551.8826C2077.1578,-539.7887 2117.4405,-525.4243 2151.7229,-513.1996"/>
<polygon fill="#0d1976" stroke="#0d1976" stroke-width=".5" points="2152.1362,-514.3528 2155.0214,-512.0234 2151.3132,-512.0452 2152.1362,-514.3528"/>
<text text-anchor="middle" x="2144" y="-535" font-family="Arial" font-size="10.00" fill="#0d1976">2.90%</text>
<text text-anchor="middle" x="2144" y="-524" font-family="Arial" font-size="10.00" fill="#0d1976">2325×</text>
</g>
<!-- 31 -->
<g id="node31" class="node">
<title>31</title>
<polygon fill="#0d0f74" stroke="#0d0f74" points="364.5,-512 95.5,-512 95.5,-460 364.5,-460 364.5,-512"/>
<text text-anchor="middle" x="230" y="-500" font-family="Arial" font-size="10.00" fill="#ffffff">Octree::Node::insert(glm::vec&lt;3, float, (glm::qualifier)0&gt;&amp;)</text>
<text text-anchor="middle" x="230" y="-489" font-family="Arial" font-size="10.00" fill="#ffffff">0.65%</text>
<text text-anchor="middle" x="230" y="-478" font-family="Arial" font-size="10.00" fill="#ffffff">(0.32%)</text>
<text text-anchor="middle" x="230" y="-467" font-family="Arial" font-size="10.00" fill="#ffffff">15577691×</text>
</g>
<!-- 30&#45;&gt;31 -->
<g id="edge37" class="edge">
<title>30&#45;&gt;31</title>
<path fill="none" stroke="#0d0f74" stroke-width=".5" d="M267.238,-551.8826C260.8156,-540.52 253.2605,-527.1531 246.6398,-515.4397"/>
<polygon fill="#0d0f74" stroke="#0d0f74" stroke-width=".5" points="247.5876,-514.6269 244.7989,-512.1827 245.4547,-515.8325 247.5876,-514.6269"/>
<text text-anchor="middle" x="284.5" y="-535" font-family="Arial" font-size="10.00" fill="#0d0f74">0.65%</text>
<text text-anchor="middle" x="284.5" y="-524" font-family="Arial" font-size="10.00" fill="#0d0f74">5162313×</text>
</g>
<!-- 9 -->
<g id="node17" class="node">
<title>9</title>
<polygon fill="#0d247a" stroke="#0d247a" points="1675,-420 983,-420 983,-368 1675,-368 1675,-420"/>
<text text-anchor="middle" x="1329" y="-408" font-family="Arial" font-size="10.00" fill="#ffffff">Octree::Node::apply_to_neighbours_sphere(AABB&amp;, float, glm::vec&lt;3, float, (glm::qualifier)0&gt;&amp;, std::function&lt;void (glm::vec&lt;3, float, (glm::qualifier)0&gt;&amp;)&gt;)</text>
<text text-anchor="middle" x="1329" y="-397" font-family="Arial" font-size="10.00" fill="#ffffff">5.39%</text>
<text text-anchor="middle" x="1329" y="-386" font-family="Arial" font-size="10.00" fill="#ffffff">(4.81%)</text>
<text text-anchor="middle" x="1329" y="-375" font-family="Arial" font-size="10.00" fill="#ffffff">8497096×</text>
</g>
<!-- 8&#45;&gt;9 -->
<g id="edge18" class="edge">
<title>8&#45;&gt;9</title>
<path fill="none" stroke="#0d247a" stroke-width=".5" d="M1349.0512,-459.8826C1345.6226,-448.6171 1341.5944,-435.3815 1338.0514,-423.7404"/>
<polygon fill="#0d247a" stroke="#0d247a" stroke-width=".5" points="1339.1597,-423.1744 1336.9687,-420.1827 1336.8159,-423.8878 1339.1597,-423.1744"/>
<text text-anchor="middle" x="1363.5" y="-443" font-family="Arial" font-size="10.00" fill="#0d247a">5.39%</text>
<text text-anchor="middle" x="1363.5" y="-432" font-family="Arial" font-size="10.00" fill="#0d247a">64648×</text>
</g>
<!-- 23&#45;&gt;23 -->
<g id="edge30" class="edge">
<title>23&#45;&gt;23</title>
<path fill="none" stroke="#0d1174" stroke-width=".5" d="M829.7736,-490.4552C835.3514,-489.237 838.5,-487.752 838.5,-486 838.5,-484.686 836.7289,-483.5222 833.4902,-482.5085"/>
<polygon fill="#0d1174" stroke="#0d1174" stroke-width=".5" points="833.4691,-481.2376 829.7736,-481.5448 832.8541,-483.6091 833.4691,-481.2376"/>
<text text-anchor="middle" x="860" y="-483.5" font-family="Arial" font-size="10.00" fill="#0d1174">2711224×</text>
</g>
<!-- 11&#45;&gt;5 -->
<g id="edge20" class="edge">
<title>11&#45;&gt;5</title>
<path fill="none" stroke="#0d1976" stroke-width=".5" d="M2150.4994,-459.8826C2114.6121,-447.7887 2071.9874,-433.4243 2035.7118,-421.1996"/>
<polygon fill="#0d1976" stroke="#0d1976" stroke-width=".5" points="2035.9295,-419.9803 2032.2216,-420.0234 2035.1471,-422.302 2035.9295,-419.9803"/>
<text text-anchor="middle" x="2138" y="-443" font-family="Arial" font-size="10.00" fill="#0d1976">2.90%</text>
<text text-anchor="middle" x="2138" y="-432" font-family="Arial" font-size="10.00" fill="#0d1976">2609×</text>
</g>
<!-- 11&#45;&gt;11 -->
<g id="edge21" class="edge">
<title>11&#45;&gt;11</title>
<path fill="none" stroke="#0d1976" stroke-width=".5" d="M2474.1187,-490.0719C2479.8224,-488.9296 2483,-487.5723 2483,-486 2483,-484.8208 2481.2126,-483.7625 2477.9126,-482.8251"/>
<polygon fill="#0d1976" stroke="#0d1976" stroke-width=".5" points="2477.8067,-481.5414 2474.1187,-481.9281 2477.2429,-483.9256 2477.8067,-481.5414"/>
<text text-anchor="middle" x="2489" y="-483.5" font-family="Arial" font-size="10.00" fill="#0d1976">3×</text>
</g>
<!-- 9&#45;&gt;9 -->
<g id="edge19" class="edge">
<title>9&#45;&gt;9</title>
<path fill="none" stroke="#0d247a" stroke-width=".5" d="M1675.1152,-397.5175C1680.8573,-396.4977 1684,-395.3252 1684,-394 1684,-393.0061 1682.2322,-392.0981 1678.9259,-391.276"/>
<polygon fill="#0d247a" stroke="#0d247a" stroke-width=".5" points="1678.7914,-389.9968 1675.1152,-390.4825 1678.2919,-392.3954 1678.7914,-389.9968"/>
<text text-anchor="middle" x="1705.5" y="-391.5" font-family="Arial" font-size="10.00" fill="#0d247a">8432448×</text>
</g>
<!-- 16 -->
<g id="node22" class="node">
<title>16</title>
<polygon fill="#0d1575" stroke="#0d1575" points="2935,-604 2371,-604 2371,-552 2935,-552 2935,-604"/>
<text text-anchor="middle" x="2653" y="-592" font-family="Arial" font-size="10.00" fill="#ffffff">TextureManager::save_png_directly(Texture&amp;, std::__cxx11::basic_string&lt;char, std::char_traits&lt;char&gt;, std::allocator&lt;char&gt; &gt;)</text>
<text text-anchor="middle" x="2653" y="-581" font-family="Arial" font-size="10.00" fill="#ffffff">1.95%</text>
<text text-anchor="middle" x="2653" y="-570" font-family="Arial" font-size="10.00" fill="#ffffff">(0.00%)</text>
<text text-anchor="middle" x="2653" y="-559" font-family="Arial" font-size="10.00" fill="#ffffff">2×</text>
</g>
<!-- 17&#45;&gt;16 -->
<g id="edge26" class="edge">
<title>17&#45;&gt;16</title>
<path fill="none" stroke="#0d1575" stroke-width=".5" d="M2699.5475,-643.8826C2691.4509,-632.4228 2681.9141,-618.9245 2673.5878,-607.1397"/>
<polygon fill="#0d1575" stroke="#0d1575" stroke-width=".5" points="2674.5188,-606.3344 2671.4987,-604.1827 2672.5178,-607.7481 2674.5188,-606.3344"/>
<text text-anchor="middle" x="2708" y="-627" font-family="Arial" font-size="10.00" fill="#0d1575">1.95%</text>
<text text-anchor="middle" x="2708" y="-616" font-family="Arial" font-size="10.00" fill="#0d1575">2×</text>
</g>
<!-- 15 -->
<g id="node20" class="node">
<title>15</title>
<polygon fill="#0d1575" stroke="#0d1575" points="2712.5,-512 2593.5,-512 2593.5,-460 2712.5,-460 2712.5,-512"/>
<text text-anchor="middle" x="2653" y="-500" font-family="Arial" font-size="10.00" fill="#ffffff">stbi_write_png_to_mem</text>
<text text-anchor="middle" x="2653" y="-489" font-family="Arial" font-size="10.00" fill="#ffffff">1.95%</text>
<text text-anchor="middle" x="2653" y="-478" font-family="Arial" font-size="10.00" fill="#ffffff">(0.00%)</text>
<text text-anchor="middle" x="2653" y="-467" font-family="Arial" font-size="10.00" fill="#ffffff">2×</text>
</g>
<!-- 18 -->
<g id="node21" class="node">
<title>18</title>
<polygon fill="#0d1475" stroke="#0d1475" points="2703.5,-420 2602.5,-420 2602.5,-368 2703.5,-368 2703.5,-420"/>
<text text-anchor="middle" x="2653" y="-408" font-family="Arial" font-size="10.00" fill="#ffffff">stbi_zlib_compress</text>
<text text-anchor="middle" x="2653" y="-397" font-family="Arial" font-size="10.00" fill="#ffffff">1.75%</text>
<text text-anchor="middle" x="2653" y="-386" font-family="Arial" font-size="10.00" fill="#ffffff">(1.75%)</text>
<text text-anchor="middle" x="2653" y="-375" font-family="Arial" font-size="10.00" fill="#ffffff">2×</text>
</g>
<!-- 15&#45;&gt;18 -->
<g id="edge24" class="edge">
<title>15&#45;&gt;18</title>
<path fill="none" stroke="#0d1475" stroke-width=".5" d="M2653,-459.8826C2653,-448.6171 2653,-435.3815 2653,-423.7404"/>
<polygon fill="#0d1475" stroke="#0d1475" stroke-width=".5" points="2654.2251,-423.6827 2653,-420.1827 2651.7751,-423.6828 2654.2251,-423.6827"/>
<text text-anchor="middle" x="2667" y="-443" font-family="Arial" font-size="10.00" fill="#0d1475">1.75%</text>
<text text-anchor="middle" x="2667" y="-432" font-family="Arial" font-size="10.00" fill="#0d1475">2×</text>
</g>
<!-- 16&#45;&gt;15 -->
<g id="edge25" class="edge">
<title>16&#45;&gt;15</title>
<path fill="none" stroke="#0d1575" stroke-width=".5" d="M2653,-551.8826C2653,-540.6171 2653,-527.3815 2653,-515.7404"/>
<polygon fill="#0d1575" stroke="#0d1575" stroke-width=".5" points="2654.2251,-515.6827 2653,-512.1827 2651.7751,-515.6828 2654.2251,-515.6827"/>
<text text-anchor="middle" x="2667" y="-535" font-family="Arial" font-size="10.00" fill="#0d1575">1.95%</text>
<text text-anchor="middle" x="2667" y="-524" font-family="Arial" font-size="10.00" fill="#0d1575">2×</text>
</g>
<!-- 22 -->
<g id="node24" class="node">
<title>22</title>
<polygon fill="#0d1274" stroke="#0d1274" points="3905.5,-604 2944.5,-604 2944.5,-552 3905.5,-552 3905.5,-604"/>
<text text-anchor="middle" x="3425" y="-592" font-family="Arial" font-size="10.00" fill="#ffffff">GrovePacker::pack_layer(Block&amp;, GroveGenerationData, GrovePacked&amp;, Tree*, Heightmap*, std::vector&lt;ClusterPackingLayer, std::allocator&lt;ClusterPackingLayer&gt; &gt;&amp;, LightVoxelsCube*, int, int, bool, bool, bool, bool)</text>
<text text-anchor="middle" x="3425" y="-581" font-family="Arial" font-size="10.00" fill="#ffffff">1.30%</text>
<text text-anchor="middle" x="3425" y="-570" font-family="Arial" font-size="10.00" fill="#ffffff">(0.00%)</text>
<text text-anchor="middle" x="3425" y="-559" font-family="Arial" font-size="10.00" fill="#ffffff">3×</text>
</g>
<!-- 21&#45;&gt;22 -->
<g id="edge28" class="edge">
<title>21&#45;&gt;22</title>
<path fill="none" stroke="#0d1274" stroke-width=".5" d="M3419.9872,-643.8826C3420.8444,-632.6171 3421.8514,-619.3815 3422.7371,-607.7404"/>
<polygon fill="#0d1274" stroke="#0d1274" stroke-width=".5" points="3423.9637,-607.7656 3423.0078,-604.1827 3421.5207,-607.5797 3423.9637,-607.7656"/>
<text text-anchor="middle" x="3437" y="-627" font-family="Arial" font-size="10.00" fill="#0d1274">1.30%</text>
<text text-anchor="middle" x="3437" y="-616" font-family="Arial" font-size="10.00" fill="#0d1274">3×</text>
</g>
<!-- 27 -->
<g id="node25" class="node">
<title>27</title>
<polygon fill="#0d1074" stroke="#0d1074" points="3720.5,-512 3129.5,-512 3129.5,-460 3720.5,-460 3720.5,-512"/>
<text text-anchor="middle" x="3425" y="-500" font-family="Arial" font-size="10.00" fill="#ffffff">Clusterizer2::get_base_clusters(Block&amp;, Tree*, int, int, std::vector&lt;ClusterData, std::allocator&lt;ClusterData&gt; &gt;&amp;, ClusteringContext*)</text>
<text text-anchor="middle" x="3425" y="-489" font-family="Arial" font-size="10.00" fill="#ffffff">0.87%</text>
<text text-anchor="middle" x="3425" y="-478" font-family="Arial" font-size="10.00" fill="#ffffff">(0.00%)</text>
<text text-anchor="middle" x="3425" y="-467" font-family="Arial" font-size="10.00" fill="#ffffff">3×</text>
</g>
<!-- 22&#45;&gt;27 -->
<g id="edge29" class="edge">
<title>22&#45;&gt;27</title>
<path fill="none" stroke="#0d1074" stroke-width=".5" d="M3425,-551.8826C3425,-540.6171 3425,-527.3815 3425,-515.7404"/>
<polygon fill="#0d1074" stroke="#0d1074" stroke-width=".5" points="3426.2251,-515.6827 3425,-512.1827 3423.7751,-515.6828 3426.2251,-515.6827"/>
<text text-anchor="middle" x="3439" y="-535" font-family="Arial" font-size="10.00" fill="#0d1074">0.87%</text>
<text text-anchor="middle" x="3439" y="-524" font-family="Arial" font-size="10.00" fill="#0d1074">3×</text>
</g>
<!-- 26 -->
<g id="node28" class="node">
<title>26</title>
<polygon fill="#0d1074" stroke="#0d1074" points="3578,-420 3272,-420 3272,-368 3578,-368 3578,-420"/>
<text text-anchor="middle" x="3425" y="-408" font-family="Arial" font-size="10.00" fill="#ffffff">Clusterizer2::convert_branch(Block&amp;, Branch*, ClusteringContext*)</text>
<text text-anchor="middle" x="3425" y="-397" font-family="Arial" font-size="10.00" fill="#ffffff">0.87%</text>
<text text-anchor="middle" x="3425" y="-386" font-family="Arial" font-size="10.00" fill="#ffffff">(0.00%)</text>
<text text-anchor="middle" x="3425" y="-375" font-family="Arial" font-size="10.00" fill="#ffffff">92×</text>
</g>
<!-- 27&#45;&gt;26 -->
<g id="edge34" class="edge">
<title>27&#45;&gt;26</title>
<path fill="none" stroke="#0d1074" stroke-width=".5" d="M3425,-459.8826C3425,-448.6171 3425,-435.3815 3425,-423.7404"/>
<polygon fill="#0d1074" stroke="#0d1074" stroke-width=".5" points="3426.2251,-423.6827 3425,-420.1827 3423.7751,-423.6828 3426.2251,-423.6827"/>
<text text-anchor="middle" x="3439" y="-443" font-family="Arial" font-size="10.00" fill="#0d1074">0.87%</text>
<text text-anchor="middle" x="3439" y="-432" font-family="Arial" font-size="10.00" fill="#0d1074">92×</text>
</g>
<!-- 24 -->
<g id="node26" class="node">
<title>24</title>
<polygon fill="#0d1174" stroke="#0d1174" points="3598,-52 3252,-52 3252,0 3598,0 3598,-52"/>
<text text-anchor="middle" x="3425" y="-40" font-family="Arial" font-size="10.00" fill="#ffffff">Visualizer::recursive_branch_to_model(Branch&amp;, Model*, bool, float, int, int)</text>
<text text-anchor="middle" x="3425" y="-29" font-family="Arial" font-size="10.00" fill="#ffffff">0.91%</text>
<text text-anchor="middle" x="3425" y="-18" font-family="Arial" font-size="10.00" fill="#ffffff">(0.13%)</text>
<text text-anchor="middle" x="3425" y="-7" font-family="Arial" font-size="10.00" fill="#ffffff">289956×</text>
</g>
<!-- 24&#45;&gt;24 -->
<g id="edge31" class="edge">
<title>24&#45;&gt;24</title>
<path fill="none" stroke="#0d1174" stroke-width=".5" d="M3598.0061,-30.7315C3603.7341,-29.4639 3607,-27.8867 3607,-26 3607,-24.526 3605.0067,-23.2409 3601.4033,-22.1448"/>
<polygon fill="#0d1174" stroke="#0d1174" stroke-width=".5" points="3601.7012,-20.9566 3598.0061,-21.2685 3601.0892,-23.3289 3601.7012,-20.9566"/>
<text text-anchor="middle" x="3626" y="-23.5" font-family="Arial" font-size="10.00" fill="#0d1174">288944×</text>
</g>
<!-- 25 -->
<g id="node27" class="node">
<title>25</title>
<polygon fill="#0d1174" stroke="#0d1174" points="3787,-144 3063,-144 3063,-92 3787,-92 3787,-144"/>
<text text-anchor="middle" x="3425" y="-132" font-family="Arial" font-size="10.00" fill="#ffffff">BillboardCloudRaw::create_billboard(TreeTypeData&amp;, Branch*, BBox&amp;, Visualizer&amp;, int, Billboard&amp;, TextureAtlas&amp;, BillboardCloudRaw::BillboardGenerationParams)</text>
<text text-anchor="middle" x="3425" y="-121" font-family="Arial" font-size="10.00" fill="#ffffff">0.91%</text>
<text text-anchor="middle" x="3425" y="-110" font-family="Arial" font-size="10.00" fill="#ffffff">(0.00%)</text>
<text text-anchor="middle" x="3425" y="-99" font-family="Arial" font-size="10.00" fill="#ffffff">506×</text>
</g>
<!-- 25&#45;&gt;24 -->
<g id="edge32" class="edge">
<title>25&#45;&gt;24</title>
<path fill="none" stroke="#0d1174" stroke-width=".5" d="M3425,-91.8826C3425,-80.6171 3425,-67.3815 3425,-55.7404"/>
<polygon fill="#0d1174" stroke="#0d1174" stroke-width=".5" points="3426.2251,-55.6827 3425,-52.1827 3423.7751,-55.6828 3426.2251,-55.6827"/>
<text text-anchor="middle" x="3439" y="-75" font-family="Arial" font-size="10.00" fill="#0d1174">0.91%</text>
<text text-anchor="middle" x="3439" y="-64" font-family="Arial" font-size="10.00" fill="#0d1174">1012×</text>
</g>
<!-- 28 -->
<g id="node29" class="node">
<title>28</title>
<polygon fill="#0d1074" stroke="#0d1074" points="3672,-328 3178,-328 3178,-276 3672,-276 3672,-328"/>
<text text-anchor="middle" x="3425" y="-316" font-family="Arial" font-size="10.00" fill="#ffffff">ImpostorClusteringHelper::convert_branch(Block&amp;, Branch*, ClusteringContext*, BaseBranchClusteringData&amp;)</text>
<text text-anchor="middle" x="3425" y="-305" font-family="Arial" font-size="10.00" fill="#ffffff">0.80%</text>
<text text-anchor="middle" x="3425" y="-294" font-family="Arial" font-size="10.00" fill="#ffffff">(0.00%)</text>
<text text-anchor="middle" x="3425" y="-283" font-family="Arial" font-size="10.00" fill="#ffffff">92×</text>
</g>
<!-- 26&#45;&gt;28 -->
<g id="edge33" class="edge">
<title>26&#45;&gt;28</title>
<path fill="none" stroke="#0d1074" stroke-width=".5" d="M3425,-367.8826C3425,-356.6171 3425,-343.3815 3425,-331.7404"/>
<polygon fill="#0d1074" stroke="#0d1074" stroke-width=".5" points="3426.2251,-331.6827 3425,-328.1827 3423.7751,-331.6828 3426.2251,-331.6827"/>
<text text-anchor="middle" x="3439" y="-351" font-family="Arial" font-size="10.00" fill="#0d1074">0.80%</text>
<text text-anchor="middle" x="3439" y="-340" font-family="Arial" font-size="10.00" fill="#0d1074">92×</text>
</g>
<!-- 29 -->
<g id="node30" class="node">
<title>29</title>
<polygon fill="#0d1074" stroke="#0d1074" points="3738.5,-236 3111.5,-236 3111.5,-184 3738.5,-184 3738.5,-236"/>
<text text-anchor="middle" x="3425" y="-224" font-family="Arial" font-size="10.00" fill="#ffffff">ImpostorBaker::make_impostor(Branch&amp;, TreeTypeData&amp;, Impostor&amp;, ImpostorBaker::ImpostorGenerationParams&amp;, TextureAtlas&amp;, BBox&amp;)</text>
<text text-anchor="middle" x="3425" y="-213" font-family="Arial" font-size="10.00" fill="#ffffff">0.69%</text>
<text text-anchor="middle" x="3425" y="-202" font-family="Arial" font-size="10.00" fill="#ffffff">(0.00%)</text>
<text text-anchor="middle" x="3425" y="-191" font-family="Arial" font-size="10.00" fill="#ffffff">94×</text>
</g>
<!-- 28&#45;&gt;29 -->
<g id="edge35" class="edge">
<title>28&#45;&gt;29</title>
<path fill="none" stroke="#0d1074" stroke-width=".5" d="M3425,-275.8826C3425,-264.6171 3425,-251.3815 3425,-239.7404"/>
<polygon fill="#0d1074" stroke="#0d1074" stroke-width=".5" points="3426.2251,-239.6827 3425,-236.1827 3423.7751,-239.6828 3426.2251,-239.6827"/>
<text text-anchor="middle" x="3439" y="-259" font-family="Arial" font-size="10.00" fill="#0d1074">0.68%</text>
<text text-anchor="middle" x="3439" y="-248" font-family="Arial" font-size="10.00" fill="#0d1074">92×</text>
</g>
<!-- 29&#45;&gt;25 -->
<g id="edge36" class="edge">
<title>29&#45;&gt;25</title>
<path fill="none" stroke="#0d1074" stroke-width=".5" d="M3425,-183.8826C3425,-172.6171 3425,-159.3815 3425,-147.7404"/>
<polygon fill="#0d1074" stroke="#0d1074" stroke-width=".5" points="3426.2251,-147.6827 3425,-144.1827 3423.7751,-147.6828 3426.2251,-147.6827"/>
<text text-anchor="middle" x="3439" y="-167" font-family="Arial" font-size="10.00" fill="#0d1074">0.69%</text>
<text text-anchor="middle" x="3439" y="-156" font-family="Arial" font-size="10.00" fill="#0d1074">386×</text>
</g>
<!-- 31&#45;&gt;31 -->
<g id="edge38" class="edge">
<title>31&#45;&gt;31</title>
<path fill="none" stroke="#0d0f74" stroke-width=".5" d="M364.7142,-491.1711C370.2754,-489.835 373.5,-488.1113 373.5,-486 373.5,-484.4165 371.6862,-483.051 368.4331,-481.9036"/>
<polygon fill="#0d0f74" stroke="#0d0f74" stroke-width=".5" points="368.4167,-480.6238 364.7142,-480.8289 367.7365,-482.9775 368.4167,-480.6238"/>
<text text-anchor="middle" x="398" y="-483.5" font-family="Arial" font-size="10.00" fill="#0d0f74">10415378×</text>
</g>
</g>
</svg>
