<?xml version="1.0" encoding="UTF-8" standalone="no"?>
<!DOCTYPE svg PUBLIC "-//W3C//DTD SVG 1.1//EN"
 "http://www.w3.org/Graphics/SVG/1.1/DTD/svg11.dtd">
<!-- Generated by graphviz version 2.40.1 (20161225.0304)
 -->
<!-- Title: %3 Pages: 1 -->
<svg width="3438pt" height="601pt"
 viewBox="0.00 0.00 3438.00 601.00" xmlns="http://www.w3.org/2000/svg" xmlns:xlink="http://www.w3.org/1999/xlink">
<g id="graph0" class="graph" transform="scale(1 1) rotate(0) translate(4 597)">
<title>%3</title>
<polygon fill="#ffffff" stroke="transparent" points="-4,4 -4,-597 3434,-597 3434,4 -4,4"/>
<!-- 1 -->
<g id="node1" class="node">
<title>1</title>
<polygon fill="#e88f04" stroke="#e88f04" points="1768,-593 1639,-593 1639,-552 1768,-552 1768,-593"/>
<text text-anchor="middle" x="1703.5" y="-581" font-family="Arial" font-size="10.00" fill="#ffffff">GenerationJob::generate()</text>
<text text-anchor="middle" x="1703.5" y="-570" font-family="Arial" font-size="10.00" fill="#ffffff">84.71%</text>
<text text-anchor="middle" x="1703.5" y="-559" font-family="Arial" font-size="10.00" fill="#ffffff">(0.00%)</text>
</g>
<!-- 2 -->
<g id="node2" class="node">
<title>2</title>
<polygon fill="#dfc005" stroke="#dfc005" points="1567,-512 826,-512 826,-460 1567,-460 1567,-512"/>
<text text-anchor="middle" x="1196.5" y="-500" font-family="Arial" font-size="10.00" fill="#ffffff">GroveGenerator::prepare_patch(GrovePrototype&amp;, std::vector&lt;TreeTypeData, std::allocator&lt;TreeTypeData&gt; &gt;&amp;, Heightmap&amp;, GroveMask&amp;, LightVoxelsCube&amp;, Tree*)</text>
<text text-anchor="middle" x="1196.5" y="-489" font-family="Arial" font-size="10.00" fill="#ffffff">78.51%</text>
<text text-anchor="middle" x="1196.5" y="-478" font-family="Arial" font-size="10.00" fill="#ffffff">(0.00%)</text>
<text text-anchor="middle" x="1196.5" y="-467" font-family="Arial" font-size="10.00" fill="#ffffff">2×</text>
</g>
<!-- 1&#45;&gt;2 -->
<g id="edge1" class="edge">
<title>1&#45;&gt;2</title>
<path fill="none" stroke="#dfc005" stroke-width="3.14" d="M1638.7731,-561.4569C1568.3596,-549.4435 1453.1175,-529.7819 1357.9228,-513.5406"/>
<polygon fill="#dfc005" stroke="#dfc005" stroke-width="3.14" points="1358.365,-510.4561 1349.0678,-512.0298 1357.3171,-516.5973 1358.365,-510.4561"/>
<text text-anchor="middle" x="1542.5" y="-535" font-family="Arial" font-size="10.00" fill="#dfc005">78.51%</text>
<text text-anchor="middle" x="1542.5" y="-524" font-family="Arial" font-size="10.00" fill="#dfc005">2×</text>
</g>
<!-- 13 -->
<g id="node3" class="node">
<title>13</title>
<polygon fill="#0d1e78" stroke="#0d1e78" points="1830.5,-512 1576.5,-512 1576.5,-460 1830.5,-460 1830.5,-512"/>
<text text-anchor="middle" x="1703.5" y="-500" font-family="Arial" font-size="10.00" fill="#ffffff">LightVoxelsCube::add_voxels_cube(LightVoxelsCube*)</text>
<text text-anchor="middle" x="1703.5" y="-489" font-family="Arial" font-size="10.00" fill="#ffffff">4.08%</text>
<text text-anchor="middle" x="1703.5" y="-478" font-family="Arial" font-size="10.00" fill="#ffffff">(3.97%)</text>
<text text-anchor="middle" x="1703.5" y="-467" font-family="Arial" font-size="10.00" fill="#ffffff">3×</text>
</g>
<!-- 1&#45;&gt;13 -->
<g id="edge2" class="edge">
<title>1&#45;&gt;13</title>
<path fill="none" stroke="#0d1e78" stroke-width=".5" d="M1703.5,-551.5608C1703.5,-540.7764 1703.5,-527.4435 1703.5,-515.6232"/>
<polygon fill="#0d1e78" stroke="#0d1e78" stroke-width=".5" points="1704.7251,-515.5078 1703.5,-512.0078 1702.2751,-515.5079 1704.7251,-515.5078"/>
<text text-anchor="middle" x="1717.5" y="-535" font-family="Arial" font-size="10.00" fill="#0d1e78">4.08%</text>
<text text-anchor="middle" x="1717.5" y="-524" font-family="Arial" font-size="10.00" fill="#0d1e78">3×</text>
</g>
<!-- 14 -->
<g id="node4" class="node">
<title>14</title>
<polygon fill="#0d1575" stroke="#0d1575" points="2565,-512 1840,-512 1840,-460 2565,-460 2565,-512"/>
<text text-anchor="middle" x="2202.5" y="-500" font-family="Arial" font-size="10.00" fill="#ffffff">LightVoxelsCube::LightVoxelsCube(LightVoxelsCube*, glm::vec&lt;3, int, (glm::qualifier)0&gt;, glm::vec&lt;3, int, (glm::qualifier)0&gt;, int, glm::vec&lt;2, float, (glm::qualifier)0&gt;)</text>
<text text-anchor="middle" x="2202.5" y="-489" font-family="Arial" font-size="10.00" fill="#ffffff">1.94%</text>
<text text-anchor="middle" x="2202.5" y="-478" font-family="Arial" font-size="10.00" fill="#ffffff">(1.94%)</text>
<text text-anchor="middle" x="2202.5" y="-467" font-family="Arial" font-size="10.00" fill="#ffffff">3×</text>
</g>
<!-- 1&#45;&gt;14 -->
<g id="edge3" class="edge">
<title>1&#45;&gt;14</title>
<path fill="none" stroke="#0d1575" stroke-width=".5" d="M1768.224,-561.2803C1838.9111,-549.0269 1954.6161,-528.9699 2048.8265,-512.6388"/>
<polygon fill="#0d1575" stroke="#0d1575" stroke-width=".5" points="2049.2106,-513.8156 2052.4499,-512.0107 2048.7921,-511.4016 2049.2106,-513.8156"/>
<text text-anchor="middle" x="2012.5" y="-535" font-family="Arial" font-size="10.00" fill="#0d1575">1.94%</text>
<text text-anchor="middle" x="2012.5" y="-524" font-family="Arial" font-size="10.00" fill="#0d1575">3×</text>
</g>
<!-- 3 -->
<g id="node5" class="node">
<title>3</title>
<polygon fill="#dfc105" stroke="#dfc105" points="1302.5,-420 1090.5,-420 1090.5,-368 1302.5,-368 1302.5,-420"/>
<text text-anchor="middle" x="1196.5" y="-408" font-family="Arial" font-size="10.00" fill="#ffffff">GETreeGenerator::iterate(LightVoxelsCube&amp;)</text>
<text text-anchor="middle" x="1196.5" y="-397" font-family="Arial" font-size="10.00" fill="#ffffff">78.41%</text>
<text text-anchor="middle" x="1196.5" y="-386" font-family="Arial" font-size="10.00" fill="#ffffff">(0.00%)</text>
<text text-anchor="middle" x="1196.5" y="-375" font-family="Arial" font-size="10.00" fill="#ffffff">66×</text>
</g>
<!-- 2&#45;&gt;3 -->
<g id="edge4" class="edge">
<title>2&#45;&gt;3</title>
<path fill="none" stroke="#dfc105" stroke-width="3.14" d="M1196.5,-459.8826C1196.5,-450.3652 1196.5,-439.4416 1196.5,-429.2614"/>
<polygon fill="#dfc105" stroke="#dfc105" stroke-width="3.14" points="1199.6151,-429.0827 1196.5,-420.1827 1193.3851,-429.0828 1199.6151,-429.0827"/>
<text text-anchor="middle" x="1213.5" y="-443" font-family="Arial" font-size="10.00" fill="#dfc105">78.41%</text>
<text text-anchor="middle" x="1213.5" y="-432" font-family="Arial" font-size="10.00" fill="#dfc105">66×</text>
</g>
<!-- 5 -->
<g id="node6" class="node">
<title>5</title>
<polygon fill="#0cb60a" stroke="#0cb60a" points="1728.5,-328 664.5,-328 664.5,-276 1728.5,-276 1728.5,-328"/>
<text text-anchor="middle" x="1196.5" y="-316" font-family="Arial" font-size="10.00" fill="#ffffff">GETreeGenerator::grow_nodes(GETreeGenerator::Tree&amp;, GETreeParameters&amp;, std::vector&lt;GETreeGenerator::GrowPoint, std::allocator&lt;GETreeGenerator::GrowPoint&gt; &gt;&amp;, GETreeGenerator::SpaceColonizationData&amp;, LightVoxelsCube&amp;, int)</text>
<text text-anchor="middle" x="1196.5" y="-305" font-family="Arial" font-size="10.00" fill="#ffffff">50.42%</text>
<text text-anchor="middle" x="1196.5" y="-294" font-family="Arial" font-size="10.00" fill="#ffffff">(0.24%)</text>
<text text-anchor="middle" x="1196.5" y="-283" font-family="Arial" font-size="10.00" fill="#ffffff">200×</text>
</g>
<!-- 3&#45;&gt;5 -->
<g id="edge5" class="edge">
<title>3&#45;&gt;5</title>
<path fill="none" stroke="#0cb60a" stroke-width="2.02" d="M1196.5,-367.8826C1196.5,-357.7825 1196.5,-346.0988 1196.5,-335.4004"/>
<polygon fill="#0cb60a" stroke="#0cb60a" stroke-width="2.02" points="1198.9851,-335.2827 1196.5,-328.1827 1194.0151,-335.2828 1198.9851,-335.2827"/>
<text text-anchor="middle" x="1213.5" y="-351" font-family="Arial" font-size="10.00" fill="#0cb60a">50.42%</text>
<text text-anchor="middle" x="1213.5" y="-340" font-family="Arial" font-size="10.00" fill="#0cb60a">200×</text>
</g>
<!-- 6 -->
<g id="node7" class="node">
<title>6</title>
<polygon fill="#0c968d" stroke="#0c968d" points="599,-328 0,-328 0,-276 599,-276 599,-328"/>
<text text-anchor="middle" x="299.5" y="-316" font-family="Arial" font-size="10.00" fill="#ffffff">GETreeGenerator::remove_branches(GETreeGenerator::Tree&amp;, GETreeGenerator::Branch&amp;, GETreeParameters&amp;, LightVoxelsCube&amp;)</text>
<text text-anchor="middle" x="299.5" y="-305" font-family="Arial" font-size="10.00" fill="#ffffff">26.63%</text>
<text text-anchor="middle" x="299.5" y="-294" font-family="Arial" font-size="10.00" fill="#ffffff">(0.21%)</text>
<text text-anchor="middle" x="299.5" y="-283" font-family="Arial" font-size="10.00" fill="#ffffff">226887×</text>
</g>
<!-- 3&#45;&gt;6 -->
<g id="edge6" class="edge">
<title>3&#45;&gt;6</title>
<path fill="none" stroke="#0c968d" stroke-width="1.07" d="M1090.0799,-383.0851C959.9145,-369.7348 735.1051,-346.6775 558.411,-328.555"/>
<polygon fill="#0c968d" stroke="#0c968d" stroke-width="1.07" points="558.5561,-326.7404 553.1976,-328.0203 558.1847,-330.3614 558.5561,-326.7404"/>
<text text-anchor="middle" x="872.5" y="-351" font-family="Arial" font-size="10.00" fill="#0c968d">26.63%</text>
<text text-anchor="middle" x="872.5" y="-340" font-family="Arial" font-size="10.00" fill="#0c968d">211×</text>
</g>
<!-- 17 -->
<g id="node8" class="node">
<title>17</title>
<polygon fill="#0d1074" stroke="#0d1074" points="2474.5,-328 1910.5,-328 1910.5,-276 2474.5,-276 2474.5,-328"/>
<text text-anchor="middle" x="2192.5" y="-316" font-family="Arial" font-size="10.00" fill="#ffffff">Octree::insert_vector(std::vector&lt;glm::vec&lt;3, float, (glm::qualifier)0&gt;, std::allocator&lt;glm::vec&lt;3, float, (glm::qualifier)0&gt; &gt; &gt;&amp;)</text>
<text text-anchor="middle" x="2192.5" y="-305" font-family="Arial" font-size="10.00" fill="#ffffff">0.91%</text>
<text text-anchor="middle" x="2192.5" y="-294" font-family="Arial" font-size="10.00" fill="#ffffff">(0.06%)</text>
<text text-anchor="middle" x="2192.5" y="-283" font-family="Arial" font-size="10.00" fill="#ffffff">185×</text>
</g>
<!-- 3&#45;&gt;17 -->
<g id="edge7" class="edge">
<title>3&#45;&gt;17</title>
<path fill="none" stroke="#0d1074" stroke-width=".5" d="M1302.6176,-384.198C1445.5074,-370.9993 1705.1458,-347.0167 1907.231,-328.3502"/>
<polygon fill="#0d1074" stroke="#0d1074" stroke-width=".5" points="1907.4257,-329.5625 1910.7982,-328.0207 1907.2003,-327.1229 1907.4257,-329.5625"/>
<text text-anchor="middle" x="1827.5" y="-351" font-family="Arial" font-size="10.00" fill="#0d1074">0.91%</text>
<text text-anchor="middle" x="1827.5" y="-340" font-family="Arial" font-size="10.00" fill="#0d1074">185×</text>
</g>
<!-- 4 -->
<g id="node9" class="node">
<title>4</title>
<polygon fill="#8fce07" stroke="#8fce07" points="725.5,-144 305.5,-144 305.5,-92 725.5,-92 725.5,-144"/>
<text text-anchor="middle" x="515.5" y="-132" font-family="Arial" font-size="10.00" fill="#ffffff">LightVoxelsCube::set_occluder_pyramid2(glm::vec&lt;3, float, (glm::qualifier)0&gt;, float, float, int)</text>
<text text-anchor="middle" x="515.5" y="-121" font-family="Arial" font-size="10.00" fill="#ffffff">67.13%</text>
<text text-anchor="middle" x="515.5" y="-110" font-family="Arial" font-size="10.00" fill="#ffffff">(66.85%)</text>
<text text-anchor="middle" x="515.5" y="-99" font-family="Arial" font-size="10.00" fill="#ffffff">292596×</text>
</g>
<!-- 5&#45;&gt;4 -->
<g id="edge8" class="edge">
<title>5&#45;&gt;4</title>
<path fill="none" stroke="#0ba945" stroke-width="1.63" d="M949.0627,-275.9485C896.685,-266.2529 851.0036,-253.2505 830.5,-236 811.6719,-220.1591 829.9997,-200.2233 811.5,-184 793.5995,-168.3022 751.4042,-155.4586 704.3138,-145.4117"/>
<polygon fill="#0ba945" stroke="#0ba945" stroke-width="1.63" points="704.6667,-143.1971 697.9431,-144.0754 703.7469,-147.5817 704.6667,-143.1971"/>
<text text-anchor="middle" x="849.5" y="-213" font-family="Arial" font-size="10.00" fill="#0ba945">40.79%</text>
<text text-anchor="middle" x="849.5" y="-202" font-family="Arial" font-size="10.00" fill="#0ba945">177768×</text>
</g>
<!-- 10 -->
<g id="node10" class="node">
<title>10</title>
<polygon fill="#0d337e" stroke="#0d337e" points="2253,-236 1338,-236 1338,-184 2253,-184 2253,-236"/>
<text text-anchor="middle" x="1795.5" y="-224" font-family="Arial" font-size="10.00" fill="#ffffff">GETreeGenerator::SpaceColonizationData::find_best_pos(LightVoxelsCube&amp;, float, glm::vec&lt;3, float, (glm::qualifier)0&gt;, glm::vec&lt;3, float, (glm::qualifier)0&gt;, float, glm::vec&lt;3, float, (glm::qualifier)0&gt;&amp;, float&amp;)</text>
<text text-anchor="middle" x="1795.5" y="-213" font-family="Arial" font-size="10.00" fill="#ffffff">8.47%</text>
<text text-anchor="middle" x="1795.5" y="-202" font-family="Arial" font-size="10.00" fill="#ffffff">(0.01%)</text>
<text text-anchor="middle" x="1795.5" y="-191" font-family="Arial" font-size="10.00" fill="#ffffff">227286×</text>
</g>
<!-- 5&#45;&gt;10 -->
<g id="edge9" class="edge">
<title>5&#45;&gt;10</title>
<path fill="none" stroke="#0d337e" stroke-width=".5" d="M1366.1472,-275.944C1446.2534,-263.6405 1541.729,-248.9765 1622.2838,-236.6042"/>
<polygon fill="#0d337e" stroke="#0d337e" stroke-width=".5" points="1622.8349,-237.759 1626.1083,-236.0168 1622.4629,-235.3374 1622.8349,-237.759"/>
<text text-anchor="middle" x="1586.5" y="-259" font-family="Arial" font-size="10.00" fill="#0d337e">8.47%</text>
<text text-anchor="middle" x="1586.5" y="-248" font-family="Arial" font-size="10.00" fill="#0d337e">227286×</text>
</g>
<!-- 16 -->
<g id="node11" class="node">
<title>16</title>
<polygon fill="#0d1074" stroke="#0d1074" points="1262,-236 873,-236 873,-184 1262,-184 1262,-236"/>
<text text-anchor="middle" x="1067.5" y="-224" font-family="Arial" font-size="10.00" fill="#ffffff">Octree::Node::remove_in_sphere(AABB&amp;, float, glm::vec&lt;3, float, (glm::qualifier)0&gt;&amp;)</text>
<text text-anchor="middle" x="1067.5" y="-213" font-family="Arial" font-size="10.00" fill="#ffffff">0.91%</text>
<text text-anchor="middle" x="1067.5" y="-202" font-family="Arial" font-size="10.00" fill="#ffffff">(0.91%)</text>
<text text-anchor="middle" x="1067.5" y="-191" font-family="Arial" font-size="10.00" fill="#ffffff">11057018×</text>
</g>
<!-- 5&#45;&gt;16 -->
<g id="edge10" class="edge">
<title>5&#45;&gt;16</title>
<path fill="none" stroke="#0d1074" stroke-width=".5" d="M1159.8788,-275.8826C1143.4018,-264.1315 1123.919,-250.2368 1107.1033,-238.2442"/>
<polygon fill="#0d1074" stroke="#0d1074" stroke-width=".5" points="1107.7736,-237.2177 1104.2127,-236.1827 1106.351,-239.2124 1107.7736,-237.2177"/>
<text text-anchor="middle" x="1166.5" y="-259" font-family="Arial" font-size="10.00" fill="#0d1074">0.91%</text>
<text text-anchor="middle" x="1166.5" y="-248" font-family="Arial" font-size="10.00" fill="#0d1074">179002×</text>
</g>
<!-- 6&#45;&gt;6 -->
<g id="edge12" class="edge">
<title>6&#45;&gt;6</title>
<path fill="none" stroke="#0c968d" stroke-width="1.07" d="M599.233,-305.7228C604.8861,-304.656 608,-303.415 608,-302 608,-301.1156 606.7836,-300.2992 604.4912,-299.5508"/>
<polygon fill="#0c968d" stroke="#0c968d" stroke-width="1.07" points="604.7154,-297.7326 599.233,-298.2772 603.8584,-301.2703 604.7154,-297.7326"/>
<text text-anchor="middle" x="627" y="-299.5" font-family="Arial" font-size="10.00" fill="#0c968d">226676×</text>
</g>
<!-- 6&#45;&gt;4 -->
<g id="edge11" class="edge">
<title>6&#45;&gt;4</title>
<path fill="none" stroke="#0c668a" stroke-width=".71" d="M261.8455,-275.9636C249.4471,-265.1845 237.1437,-251.5485 230.5,-236 221.4191,-214.7477 216.1191,-202.0918 230.5,-184 243.6116,-167.505 278.1653,-154.7691 318.8835,-145.0884"/>
<polygon fill="#0c668a" stroke="#0c668a" stroke-width=".71" points="319.6032,-146.4298 323.3583,-144.0423 318.9339,-143.567 319.6032,-146.4298"/>
<text text-anchor="middle" x="247.5" y="-213" font-family="Arial" font-size="10.00" fill="#0c668a">17.83%</text>
<text text-anchor="middle" x="247.5" y="-202" font-family="Arial" font-size="10.00" fill="#0c668a">77697×</text>
</g>
<!-- 9 -->
<g id="node12" class="node">
<title>9</title>
<polygon fill="#0d337e" stroke="#0d337e" points="761.5,-236 269.5,-236 269.5,-184 761.5,-184 761.5,-236"/>
<text text-anchor="middle" x="515.5" y="-224" font-family="Arial" font-size="10.00" fill="#ffffff">GETreeGenerator::set_occlusion(GETreeGenerator::Branch&amp;, LightVoxelsCube&amp;, GETreeParameters&amp;, float)</text>
<text text-anchor="middle" x="515.5" y="-213" font-family="Arial" font-size="10.00" fill="#ffffff">8.54%</text>
<text text-anchor="middle" x="515.5" y="-202" font-family="Arial" font-size="10.00" fill="#ffffff">(0.02%)</text>
<text text-anchor="middle" x="515.5" y="-191" font-family="Arial" font-size="10.00" fill="#ffffff">16418×</text>
</g>
<!-- 6&#45;&gt;9 -->
<g id="edge13" class="edge">
<title>6&#45;&gt;9</title>
<path fill="none" stroke="#0d337e" stroke-width=".5" d="M360.8192,-275.8826C388.9845,-263.8862 422.395,-249.6558 450.9447,-237.4958"/>
<polygon fill="#0d337e" stroke="#0d337e" stroke-width=".5" points="451.6616,-238.522 454.4016,-236.0234 450.7015,-236.2679 451.6616,-238.522"/>
<text text-anchor="middle" x="450" y="-259" font-family="Arial" font-size="10.00" fill="#0d337e">8.54%</text>
<text text-anchor="middle" x="450" y="-248" font-family="Arial" font-size="10.00" fill="#0d337e">14291×</text>
</g>
<!-- 18 -->
<g id="node21" class="node">
<title>18</title>
<polygon fill="#0d1074" stroke="#0d1074" points="2531,-236 2262,-236 2262,-184 2531,-184 2531,-236"/>
<text text-anchor="middle" x="2396.5" y="-224" font-family="Arial" font-size="10.00" fill="#ffffff">Octree::Node::insert(glm::vec&lt;3, float, (glm::qualifier)0&gt;&amp;)</text>
<text text-anchor="middle" x="2396.5" y="-213" font-family="Arial" font-size="10.00" fill="#ffffff">0.84%</text>
<text text-anchor="middle" x="2396.5" y="-202" font-family="Arial" font-size="10.00" fill="#ffffff">(0.74%)</text>
<text text-anchor="middle" x="2396.5" y="-191" font-family="Arial" font-size="10.00" fill="#ffffff">69518858×</text>
</g>
<!-- 17&#45;&gt;18 -->
<g id="edge25" class="edge">
<title>17&#45;&gt;18</title>
<path fill="none" stroke="#0d1074" stroke-width=".5" d="M2250.4125,-275.8826C2277.0132,-263.8862 2308.5675,-249.6558 2335.5311,-237.4958"/>
<polygon fill="#0d1074" stroke="#0d1074" stroke-width=".5" points="2336.109,-238.579 2338.796,-236.0234 2335.1018,-236.3456 2336.109,-238.579"/>
<text text-anchor="middle" x="2344" y="-259" font-family="Arial" font-size="10.00" fill="#0d1074">0.84%</text>
<text text-anchor="middle" x="2344" y="-248" font-family="Arial" font-size="10.00" fill="#0d1074">12681036×</text>
</g>
<!-- 11 -->
<g id="node18" class="node">
<title>11</title>
<polygon fill="#0d337e" stroke="#0d337e" points="2141.5,-144 1449.5,-144 1449.5,-92 2141.5,-92 2141.5,-144"/>
<text text-anchor="middle" x="1795.5" y="-132" font-family="Arial" font-size="10.00" fill="#ffffff">Octree::Node::apply_to_neighbours_sphere(AABB&amp;, float, glm::vec&lt;3, float, (glm::qualifier)0&gt;&amp;, std::function&lt;void (glm::vec&lt;3, float, (glm::qualifier)0&gt;&amp;)&gt;)</text>
<text text-anchor="middle" x="1795.5" y="-121" font-family="Arial" font-size="10.00" fill="#ffffff">8.46%</text>
<text text-anchor="middle" x="1795.5" y="-110" font-family="Arial" font-size="10.00" fill="#ffffff">(7.36%)</text>
<text text-anchor="middle" x="1795.5" y="-99" font-family="Arial" font-size="10.00" fill="#ffffff">40086488×</text>
</g>
<!-- 10&#45;&gt;11 -->
<g id="edge20" class="edge">
<title>10&#45;&gt;11</title>
<path fill="none" stroke="#0d337e" stroke-width=".5" d="M1795.5,-183.8826C1795.5,-172.6171 1795.5,-159.3815 1795.5,-147.7404"/>
<polygon fill="#0d337e" stroke="#0d337e" stroke-width=".5" points="1796.7251,-147.6827 1795.5,-144.1827 1794.2751,-147.6828 1796.7251,-147.6827"/>
<text text-anchor="middle" x="1814.5" y="-167" font-family="Arial" font-size="10.00" fill="#0d337e">8.46%</text>
<text text-anchor="middle" x="1814.5" y="-156" font-family="Arial" font-size="10.00" fill="#0d337e">204031×</text>
</g>
<!-- 16&#45;&gt;16 -->
<g id="edge24" class="edge">
<title>16&#45;&gt;16</title>
<path fill="none" stroke="#0d1074" stroke-width=".5" d="M1262.2736,-214.4552C1267.8514,-213.237 1271,-211.752 1271,-210 1271,-208.686 1269.2289,-207.5222 1265.9902,-206.5085"/>
<polygon fill="#0d1074" stroke="#0d1074" stroke-width=".5" points="1265.9691,-205.2376 1262.2736,-205.5448 1265.3541,-207.6091 1265.9691,-205.2376"/>
<text text-anchor="middle" x="1295.5" y="-207.5" font-family="Arial" font-size="10.00" fill="#0d1074">10878016×</text>
</g>
<!-- 9&#45;&gt;4 -->
<g id="edge18" class="edge">
<title>9&#45;&gt;4</title>
<path fill="none" stroke="#0d337e" stroke-width=".5" d="M515.5,-183.8826C515.5,-172.6171 515.5,-159.3815 515.5,-147.7404"/>
<polygon fill="#0d337e" stroke="#0d337e" stroke-width=".5" points="516.7251,-147.6827 515.5,-144.1827 514.2751,-147.6828 516.7251,-147.6827"/>
<text text-anchor="middle" x="532" y="-167" font-family="Arial" font-size="10.00" fill="#0d337e">8.52%</text>
<text text-anchor="middle" x="532" y="-156" font-family="Arial" font-size="10.00" fill="#0d337e">37131×</text>
</g>
<!-- 9&#45;&gt;9 -->
<g id="edge19" class="edge">
<title>9&#45;&gt;9</title>
<path fill="none" stroke="#0d337e" stroke-width=".5" d="M761.6187,-214.0719C767.3224,-212.9296 770.5,-211.5723 770.5,-210 770.5,-208.8208 768.7126,-207.7625 765.4126,-206.8251"/>
<polygon fill="#0d337e" stroke="#0d337e" stroke-width=".5" points="765.3067,-205.5414 761.6187,-205.9281 764.7429,-207.9256 765.3067,-205.5414"/>
<text text-anchor="middle" x="784.5" y="-207.5" font-family="Arial" font-size="10.00" fill="#0d337e">2127×</text>
</g>
<!-- 7 -->
<g id="node13" class="node">
<title>7</title>
<polygon fill="#0c5686" stroke="#0c5686" points="3338.5,-593 3186.5,-593 3186.5,-552 3338.5,-552 3338.5,-593"/>
<text text-anchor="middle" x="3262.5" y="-581" font-family="Arial" font-size="10.00" fill="#ffffff">parser::parser_main(int, char**)</text>
<text text-anchor="middle" x="3262.5" y="-570" font-family="Arial" font-size="10.00" fill="#ffffff">15.05%</text>
<text text-anchor="middle" x="3262.5" y="-559" font-family="Arial" font-size="10.00" fill="#ffffff">(0.01%)</text>
</g>
<!-- 8 -->
<g id="node14" class="node">
<title>8</title>
<polygon fill="#0d4e84" stroke="#0d4e84" points="3247.5,-512 3081.5,-512 3081.5,-460 3247.5,-460 3247.5,-512"/>
<text text-anchor="middle" x="3164.5" y="-500" font-family="Arial" font-size="10.00" fill="#ffffff">SceneGenerator::generate_grove()</text>
<text text-anchor="middle" x="3164.5" y="-489" font-family="Arial" font-size="10.00" fill="#ffffff">13.65%</text>
<text text-anchor="middle" x="3164.5" y="-478" font-family="Arial" font-size="10.00" fill="#ffffff">(6.35%)</text>
<text text-anchor="middle" x="3164.5" y="-467" font-family="Arial" font-size="10.00" fill="#ffffff">1×</text>
</g>
<!-- 7&#45;&gt;8 -->
<g id="edge14" class="edge">
<title>7&#45;&gt;8</title>
<path fill="none" stroke="#0d4e84" stroke-width=".55" d="M3238.7769,-551.5608C3226.2429,-540.4975 3210.6701,-526.7522 3197.026,-514.7092"/>
<polygon fill="#0d4e84" stroke="#0d4e84" stroke-width=".55" points="3197.5965,-513.4854 3193.9655,-512.0078 3195.8825,-515.4272 3197.5965,-513.4854"/>
<text text-anchor="middle" x="3245.5" y="-535" font-family="Arial" font-size="10.00" fill="#0d4e84">13.65%</text>
<text text-anchor="middle" x="3245.5" y="-524" font-family="Arial" font-size="10.00" fill="#0d4e84">1×</text>
</g>
<!-- 23 -->
<g id="node15" class="node">
<title>23</title>
<polygon fill="#0d0f74" stroke="#0d0f74" points="3334,-512 3257,-512 3257,-460 3334,-460 3334,-512"/>
<text text-anchor="middle" x="3295.5" y="-500" font-family="Arial" font-size="10.00" fill="#ffffff">View::render()</text>
<text text-anchor="middle" x="3295.5" y="-489" font-family="Arial" font-size="10.00" fill="#ffffff">0.65%</text>
<text text-anchor="middle" x="3295.5" y="-478" font-family="Arial" font-size="10.00" fill="#ffffff">(0.02%)</text>
<text text-anchor="middle" x="3295.5" y="-467" font-family="Arial" font-size="10.00" fill="#ffffff">18020×</text>
</g>
<!-- 7&#45;&gt;23 -->
<g id="edge15" class="edge">
<title>7&#45;&gt;23</title>
<path fill="none" stroke="#0d0f74" stroke-width=".5" d="M3270.4884,-551.5608C3274.6381,-540.6835 3279.7769,-527.2135 3284.3152,-515.3178"/>
<polygon fill="#0d0f74" stroke="#0d0f74" stroke-width=".5" points="3285.4749,-515.7146 3285.5779,-512.0078 3283.1858,-514.8413 3285.4749,-515.7146"/>
<text text-anchor="middle" x="3298" y="-535" font-family="Arial" font-size="10.00" fill="#0d0f74">0.65%</text>
<text text-anchor="middle" x="3298" y="-524" font-family="Arial" font-size="10.00" fill="#0d0f74">18020×</text>
</g>
<!-- 12 -->
<g id="node16" class="node">
<title>12</title>
<polygon fill="#0d2379" stroke="#0d2379" points="3116,-420 2667,-420 2667,-368 3116,-368 3116,-420"/>
<text text-anchor="middle" x="2891.5" y="-408" font-family="Arial" font-size="10.00" fill="#ffffff">RawTreesDatabase::pack_ready(GrovePacker&amp;, SceneGenerator::SceneGenerationContext&amp;, bool)</text>
<text text-anchor="middle" x="2891.5" y="-397" font-family="Arial" font-size="10.00" fill="#ffffff">5.17%</text>
<text text-anchor="middle" x="2891.5" y="-386" font-family="Arial" font-size="10.00" fill="#ffffff">(4.52%)</text>
<text text-anchor="middle" x="2891.5" y="-375" font-family="Arial" font-size="10.00" fill="#ffffff">871354541×</text>
</g>
<!-- 8&#45;&gt;12 -->
<g id="edge16" class="edge">
<title>8&#45;&gt;12</title>
<path fill="none" stroke="#0d2379" stroke-width=".5" d="M3086.9994,-459.8826C3051.1121,-447.7887 3008.4874,-433.4243 2972.2118,-421.1996"/>
<polygon fill="#0d2379" stroke="#0d2379" stroke-width=".5" points="2972.4295,-419.9803 2968.7216,-420.0234 2971.6471,-422.302 2972.4295,-419.9803"/>
<text text-anchor="middle" x="3087.5" y="-443" font-family="Arial" font-size="10.00" fill="#0d2379">5.17%</text>
<text text-anchor="middle" x="3087.5" y="-432" font-family="Arial" font-size="10.00" fill="#0d2379">871354541×</text>
</g>
<!-- 15 -->
<g id="node17" class="node">
<title>15</title>
<polygon fill="#0d1375" stroke="#0d1375" points="3430,-420 3125,-420 3125,-368 3430,-368 3430,-420"/>
<text text-anchor="middle" x="3277.5" y="-408" font-family="Arial" font-size="10.00" fill="#ffffff">void std::lock&lt;std::mutex, std::mutex&gt;(std::mutex&amp;, std::mutex&amp;)</text>
<text text-anchor="middle" x="3277.5" y="-397" font-family="Arial" font-size="10.00" fill="#ffffff">1.52%</text>
<text text-anchor="middle" x="3277.5" y="-386" font-family="Arial" font-size="10.00" fill="#ffffff">(1.52%)</text>
<text text-anchor="middle" x="3277.5" y="-375" font-family="Arial" font-size="10.00" fill="#ffffff">877983877×</text>
</g>
<!-- 8&#45;&gt;15 -->
<g id="edge17" class="edge">
<title>8&#45;&gt;15</title>
<path fill="none" stroke="#0d1375" stroke-width=".5" d="M3196.579,-459.8826C3210.8931,-448.2286 3227.7968,-434.4663 3242.4431,-422.5419"/>
<polygon fill="#0d1375" stroke="#0d1375" stroke-width=".5" points="3243.4,-423.3425 3245.3408,-420.1827 3241.8531,-421.4426 3243.4,-423.3425"/>
<text text-anchor="middle" x="3260.5" y="-443" font-family="Arial" font-size="10.00" fill="#0d1375">1.52%</text>
<text text-anchor="middle" x="3260.5" y="-432" font-family="Arial" font-size="10.00" fill="#0d1375">877983877×</text>
</g>
<!-- 20 -->
<g id="node20" class="node">
<title>20</title>
<polygon fill="#0d0f74" stroke="#0d0f74" points="3126.5,-328 2656.5,-328 2656.5,-276 3126.5,-276 3126.5,-328"/>
<text text-anchor="middle" x="2891.5" y="-316" font-family="Arial" font-size="10.00" fill="#ffffff">GrovePacker::add_trees_to_grove(GroveGenerationData, GrovePacked&amp;, Tree*, Heightmap*, bool, bool)</text>
<text text-anchor="middle" x="2891.5" y="-305" font-family="Arial" font-size="10.00" fill="#ffffff">0.65%</text>
<text text-anchor="middle" x="2891.5" y="-294" font-family="Arial" font-size="10.00" fill="#ffffff">(0.00%)</text>
<text text-anchor="middle" x="2891.5" y="-283" font-family="Arial" font-size="10.00" fill="#ffffff">1×</text>
</g>
<!-- 12&#45;&gt;20 -->
<g id="edge23" class="edge">
<title>12&#45;&gt;20</title>
<path fill="none" stroke="#0d0f74" stroke-width=".5" d="M2891.5,-367.8826C2891.5,-356.6171 2891.5,-343.3815 2891.5,-331.7404"/>
<polygon fill="#0d0f74" stroke="#0d0f74" stroke-width=".5" points="2892.7251,-331.6827 2891.5,-328.1827 2890.2751,-331.6828 2892.7251,-331.6827"/>
<text text-anchor="middle" x="2905.5" y="-351" font-family="Arial" font-size="10.00" fill="#0d0f74">0.65%</text>
<text text-anchor="middle" x="2905.5" y="-340" font-family="Arial" font-size="10.00" fill="#0d0f74">1×</text>
</g>
<!-- 11&#45;&gt;11 -->
<g id="edge21" class="edge">
<title>11&#45;&gt;11</title>
<path fill="none" stroke="#0d337e" stroke-width=".5" d="M2141.6152,-121.5175C2147.3573,-120.4977 2150.5,-119.3252 2150.5,-118 2150.5,-117.0061 2148.7322,-116.0981 2145.4259,-115.276"/>
<polygon fill="#0d337e" stroke="#0d337e" stroke-width=".5" points="2145.2914,-113.9968 2141.6152,-114.4825 2144.7919,-116.3954 2145.2914,-113.9968"/>
<text text-anchor="middle" x="2175" y="-115.5" font-family="Arial" font-size="10.00" fill="#0d337e">39882457×</text>
</g>
<!-- 19 -->
<g id="node19" class="node">
<title>19</title>
<polygon fill="#0d1074" stroke="#0d1074" points="3245.5,-52 345.5,-52 345.5,0 3245.5,0 3245.5,-52"/>
<text text-anchor="middle" x="1795.5" y="-40" font-family="Arial" font-size="10.00" fill="#ffffff">std::_Function_base::_Base_manager&lt;GETreeGenerator::SpaceColonizationData::find_best_pos(LightVoxelsCube&amp;, float, glm::vec&lt;3, float, (glm::qualifier)0&gt;, glm::vec&lt;3, float, (glm::qualifier)0&gt;, float, glm::vec&lt;3, float, (glm::qualifier)0&gt;&amp;, float&amp;)::{lambda(glm::vec&lt;3, float, (glm::qualifier)0&gt;&amp;)#1}&gt;::_M_manager(std::_Any_data&amp;, std::_Function_base::_Base_manager&lt;GETreeGenerator::SpaceColonizationData::find_best_pos(LightVoxelsCube&amp;, float, glm::vec&lt;3, float, (glm::qualifier)0&gt;, glm::vec&lt;3, float, (glm::qualifier)0&gt;, float, glm::vec&lt;3, float, (glm::qualifier)0&gt;&amp;, float&amp;)::{lambda(glm::vec&lt;3, float, (glm::qualifier)0&gt;&amp;)#1}&gt; const&amp;, std::_Manager_operation)</text>
<text text-anchor="middle" x="1795.5" y="-29" font-family="Arial" font-size="10.00" fill="#ffffff">0.77%</text>
<text text-anchor="middle" x="1795.5" y="-18" font-family="Arial" font-size="10.00" fill="#ffffff">(0.77%)</text>
<text text-anchor="middle" x="1795.5" y="-7" font-family="Arial" font-size="10.00" fill="#ffffff">164490798×</text>
</g>
<!-- 11&#45;&gt;19 -->
<g id="edge22" class="edge">
<title>11&#45;&gt;19</title>
<path fill="none" stroke="#0d1074" stroke-width=".5" d="M1795.5,-91.8826C1795.5,-80.6171 1795.5,-67.3815 1795.5,-55.7404"/>
<polygon fill="#0d1074" stroke="#0d1074" stroke-width=".5" points="1796.7251,-55.6827 1795.5,-52.1827 1794.2751,-55.6828 1796.7251,-55.6827"/>
<text text-anchor="middle" x="1822.5" y="-75" font-family="Arial" font-size="10.00" fill="#0d1074">0.77%</text>
<text text-anchor="middle" x="1822.5" y="-64" font-family="Arial" font-size="10.00" fill="#0d1074">163520613×</text>
</g>
<!-- 21 -->
<g id="node22" class="node">
<title>21</title>
<polygon fill="#0d0f74" stroke="#0d0f74" points="3145,-236 2638,-236 2638,-184 3145,-184 3145,-236"/>
<text text-anchor="middle" x="2891.5" y="-224" font-family="Arial" font-size="10.00" fill="#ffffff">GrovePacker::add_trees_to_grove_internal(GroveGenerationData, GrovePacked&amp;, Tree*, Heightmap*, bool, bool)</text>
<text text-anchor="middle" x="2891.5" y="-213" font-family="Arial" font-size="10.00" fill="#ffffff">0.65%</text>
<text text-anchor="middle" x="2891.5" y="-202" font-family="Arial" font-size="10.00" fill="#ffffff">(0.00%)</text>
<text text-anchor="middle" x="2891.5" y="-191" font-family="Arial" font-size="10.00" fill="#ffffff">1×</text>
</g>
<!-- 20&#45;&gt;21 -->
<g id="edge27" class="edge">
<title>20&#45;&gt;21</title>
<path fill="none" stroke="#0d0f74" stroke-width=".5" d="M2891.5,-275.8826C2891.5,-264.6171 2891.5,-251.3815 2891.5,-239.7404"/>
<polygon fill="#0d0f74" stroke="#0d0f74" stroke-width=".5" points="2892.7251,-239.6827 2891.5,-236.1827 2890.2751,-239.6828 2892.7251,-239.6827"/>
<text text-anchor="middle" x="2905.5" y="-259" font-family="Arial" font-size="10.00" fill="#0d0f74">0.65%</text>
<text text-anchor="middle" x="2905.5" y="-248" font-family="Arial" font-size="10.00" fill="#0d0f74">1×</text>
</g>
<!-- 18&#45;&gt;18 -->
<g id="edge26" class="edge">
<title>18&#45;&gt;18</title>
<path fill="none" stroke="#0d1074" stroke-width=".5" d="M2531.2142,-215.1711C2536.7754,-213.835 2540,-212.1113 2540,-210 2540,-208.4165 2538.1862,-207.051 2534.9331,-205.9036"/>
<polygon fill="#0d1074" stroke="#0d1074" stroke-width=".5" points="2534.9167,-204.6238 2531.2142,-204.8289 2534.2365,-206.9775 2534.9167,-204.6238"/>
<text text-anchor="middle" x="2564.5" y="-207.5" font-family="Arial" font-size="10.00" fill="#0d1074">56837822×</text>
</g>
<!-- 22 -->
<g id="node23" class="node">
<title>22</title>
<polygon fill="#0d0f74" stroke="#0d0f74" points="3372,-144 2411,-144 2411,-92 3372,-92 3372,-144"/>
<text text-anchor="middle" x="2891.5" y="-132" font-family="Arial" font-size="10.00" fill="#ffffff">GrovePacker::pack_layer(Block&amp;, GroveGenerationData, GrovePacked&amp;, Tree*, Heightmap*, std::vector&lt;ClusterPackingLayer, std::allocator&lt;ClusterPackingLayer&gt; &gt;&amp;, LightVoxelsCube*, int, int, bool, bool, bool, bool)</text>
<text text-anchor="middle" x="2891.5" y="-121" font-family="Arial" font-size="10.00" fill="#ffffff">0.64%</text>
<text text-anchor="middle" x="2891.5" y="-110" font-family="Arial" font-size="10.00" fill="#ffffff">(0.00%)</text>
<text text-anchor="middle" x="2891.5" y="-99" font-family="Arial" font-size="10.00" fill="#ffffff">3×</text>
</g>
<!-- 21&#45;&gt;22 -->
<g id="edge28" class="edge">
<title>21&#45;&gt;22</title>
<path fill="none" stroke="#0d0f74" stroke-width=".5" d="M2891.5,-183.8826C2891.5,-172.6171 2891.5,-159.3815 2891.5,-147.7404"/>
<polygon fill="#0d0f74" stroke="#0d0f74" stroke-width=".5" points="2892.7251,-147.6827 2891.5,-144.1827 2890.2751,-147.6828 2892.7251,-147.6827"/>
<text text-anchor="middle" x="2905.5" y="-167" font-family="Arial" font-size="10.00" fill="#0d0f74">0.64%</text>
<text text-anchor="middle" x="2905.5" y="-156" font-family="Arial" font-size="10.00" fill="#0d0f74">3×</text>
</g>
</g>
</svg>
