<?xml version="1.0" encoding="UTF-8" standalone="no"?>
<!DOCTYPE svg PUBLIC "-//W3C//DTD SVG 1.1//EN"
 "http://www.w3.org/Graphics/SVG/1.1/DTD/svg11.dtd">
<!-- Generated by graphviz version 2.40.1 (20161225.0304)
 -->
<!-- Title: %3 Pages: 1 -->
<svg width="4706pt" height="1245pt"
 viewBox="0.00 0.00 4706.00 1245.00" xmlns="http://www.w3.org/2000/svg" xmlns:xlink="http://www.w3.org/1999/xlink">
<g id="graph0" class="graph" transform="scale(1 1) rotate(0) translate(4 1241)">
<title>%3</title>
<polygon fill="#ffffff" stroke="transparent" points="-4,4 -4,-1241 4702,-1241 4702,4 -4,4"/>
<!-- 1 -->
<g id="node1" class="node">
<title>1</title>
<polygon fill="#eb7e03" stroke="#eb7e03" points="3285.5,-1237 3156.5,-1237 3156.5,-1196 3285.5,-1196 3285.5,-1237"/>
<text text-anchor="middle" x="3221" y="-1225" font-family="Arial" font-size="10.00" fill="#ffffff">GenerationJob::generate()</text>
<text text-anchor="middle" x="3221" y="-1214" font-family="Arial" font-size="10.00" fill="#ffffff">86.79%</text>
<text text-anchor="middle" x="3221" y="-1203" font-family="Arial" font-size="10.00" fill="#ffffff">(0.66%)</text>
</g>
<!-- 2 -->
<g id="node2" class="node">
<title>2</title>
<polygon fill="#0ab024" stroke="#0ab024" points="2834.5,-1156 2093.5,-1156 2093.5,-1104 2834.5,-1104 2834.5,-1156"/>
<text text-anchor="middle" x="2464" y="-1144" font-family="Arial" font-size="10.00" fill="#ffffff">GroveGenerator::prepare_patch(GrovePrototype&amp;, std::vector&lt;TreeTypeData, std::allocator&lt;TreeTypeData&gt; &gt;&amp;, Heightmap&amp;, GroveMask&amp;, LightVoxelsCube&amp;, Tree*)</text>
<text text-anchor="middle" x="2464" y="-1133" font-family="Arial" font-size="10.00" fill="#ffffff">46.04%</text>
<text text-anchor="middle" x="2464" y="-1122" font-family="Arial" font-size="10.00" fill="#ffffff">(0.00%)</text>
<text text-anchor="middle" x="2464" y="-1111" font-family="Arial" font-size="10.00" fill="#ffffff">22×</text>
</g>
<!-- 1&#45;&gt;2 -->
<g id="edge1" class="edge">
<title>1&#45;&gt;2</title>
<path fill="none" stroke="#0ab024" stroke-width="1.84" d="M3156.4586,-1209.1251C3056.0506,-1197.6517 2857.4698,-1174.9606 2698.6158,-1156.8088"/>
<polygon fill="#0ab024" stroke="#0ab024" stroke-width="1.84" points="2698.5842,-1154.4098 2691.5579,-1156.0023 2698.0437,-1159.139 2698.5842,-1154.4098"/>
<text text-anchor="middle" x="2972" y="-1179" font-family="Arial" font-size="10.00" fill="#0ab024">46.04%</text>
<text text-anchor="middle" x="2972" y="-1168" font-family="Arial" font-size="10.00" fill="#0ab024">22×</text>
</g>
<!-- 6 -->
<g id="node3" class="node">
<title>6</title>
<polygon fill="#0c6b8b" stroke="#0c6b8b" points="3098,-1156 2844,-1156 2844,-1104 3098,-1104 3098,-1156"/>
<text text-anchor="middle" x="2971" y="-1144" font-family="Arial" font-size="10.00" fill="#ffffff">LightVoxelsCube::add_voxels_cube(LightVoxelsCube*)</text>
<text text-anchor="middle" x="2971" y="-1133" font-family="Arial" font-size="10.00" fill="#ffffff">18.75%</text>
<text text-anchor="middle" x="2971" y="-1122" font-family="Arial" font-size="10.00" fill="#ffffff">(18.49%)</text>
<text text-anchor="middle" x="2971" y="-1111" font-family="Arial" font-size="10.00" fill="#ffffff">37×</text>
</g>
<!-- 1&#45;&gt;6 -->
<g id="edge2" class="edge">
<title>1&#45;&gt;6</title>
<path fill="none" stroke="#0c6b8b" stroke-width=".75" d="M3161.4364,-1195.891C3128.2675,-1184.4146 3086.5379,-1169.9761 3050.6014,-1157.5421"/>
<polygon fill="#0c6b8b" stroke="#0c6b8b" stroke-width=".75" points="3050.8043,-1156.0198 3046.2486,-1156.036 3049.8201,-1158.8644 3050.8043,-1156.0198"/>
<text text-anchor="middle" x="3150" y="-1179" font-family="Arial" font-size="10.00" fill="#0c6b8b">18.75%</text>
<text text-anchor="middle" x="3150" y="-1168" font-family="Arial" font-size="10.00" fill="#0c6b8b">37×</text>
</g>
<!-- 9 -->
<g id="node4" class="node">
<title>9</title>
<polygon fill="#0d4282" stroke="#0d4282" points="3832.5,-1156 3107.5,-1156 3107.5,-1104 3832.5,-1104 3832.5,-1156"/>
<text text-anchor="middle" x="3470" y="-1144" font-family="Arial" font-size="10.00" fill="#ffffff">LightVoxelsCube::LightVoxelsCube(LightVoxelsCube*, glm::vec&lt;3, int, (glm::qualifier)0&gt;, glm::vec&lt;3, int, (glm::qualifier)0&gt;, int, glm::vec&lt;2, float, (glm::qualifier)0&gt;)</text>
<text text-anchor="middle" x="3470" y="-1133" font-family="Arial" font-size="10.00" fill="#ffffff">11.48%</text>
<text text-anchor="middle" x="3470" y="-1122" font-family="Arial" font-size="10.00" fill="#ffffff">(11.48%)</text>
<text text-anchor="middle" x="3470" y="-1111" font-family="Arial" font-size="10.00" fill="#ffffff">9×</text>
</g>
<!-- 1&#45;&gt;9 -->
<g id="edge3" class="edge">
<title>1&#45;&gt;9</title>
<path fill="none" stroke="#0d4282" stroke-width=".5" d="M3280.3254,-1195.891C3313.6302,-1184.3213 3355.6007,-1169.7411 3391.5889,-1157.2392"/>
<polygon fill="#0d4282" stroke="#0d4282" stroke-width=".5" points="3392.1482,-1158.3418 3395.0524,-1156.036 3391.3442,-1156.0274 3392.1482,-1158.3418"/>
<text text-anchor="middle" x="3384.5" y="-1179" font-family="Arial" font-size="10.00" fill="#0d4282">11.48%</text>
<text text-anchor="middle" x="3384.5" y="-1168" font-family="Arial" font-size="10.00" fill="#0d4282">9×</text>
</g>
<!-- 11 -->
<g id="node5" class="node">
<title>11</title>
<polygon fill="#0d387f" stroke="#0d387f" points="4040,-1156 3842,-1156 3842,-1104 4040,-1104 4040,-1156"/>
<text text-anchor="middle" x="3941" y="-1144" font-family="Arial" font-size="10.00" fill="#ffffff">GenerationJob::remove_unused_borders()</text>
<text text-anchor="middle" x="3941" y="-1133" font-family="Arial" font-size="10.00" fill="#ffffff">9.39%</text>
<text text-anchor="middle" x="3941" y="-1122" font-family="Arial" font-size="10.00" fill="#ffffff">(9.30%)</text>
<text text-anchor="middle" x="3941" y="-1111" font-family="Arial" font-size="10.00" fill="#ffffff">87429412×</text>
</g>
<!-- 1&#45;&gt;11 -->
<g id="edge4" class="edge">
<title>1&#45;&gt;11</title>
<path fill="none" stroke="#0d387f" stroke-width=".5" d="M3285.7141,-1213.2821C3398.4003,-1206.9815 3637.674,-1190.5111 3837,-1156 3837.4126,-1155.9286 3837.826,-1155.8564 3838.2401,-1155.7834"/>
<polygon fill="#0d387f" stroke="#0d387f" stroke-width=".5" points="3838.759,-1156.9347 3841.9859,-1155.1078 3838.324,-1154.5236 3838.759,-1156.9347"/>
<text text-anchor="middle" x="3795.5" y="-1179" font-family="Arial" font-size="10.00" fill="#0d387f">9.39%</text>
<text text-anchor="middle" x="3795.5" y="-1168" font-family="Arial" font-size="10.00" fill="#0d387f">87429412×</text>
</g>
<!-- 3 -->
<g id="node6" class="node">
<title>3</title>
<polygon fill="#0ab026" stroke="#0ab026" points="2570,-1064 2358,-1064 2358,-1012 2570,-1012 2570,-1064"/>
<text text-anchor="middle" x="2464" y="-1052" font-family="Arial" font-size="10.00" fill="#ffffff">GETreeGenerator::iterate(LightVoxelsCube&amp;)</text>
<text text-anchor="middle" x="2464" y="-1041" font-family="Arial" font-size="10.00" fill="#ffffff">45.81%</text>
<text text-anchor="middle" x="2464" y="-1030" font-family="Arial" font-size="10.00" fill="#ffffff">(0.00%)</text>
<text text-anchor="middle" x="2464" y="-1019" font-family="Arial" font-size="10.00" fill="#ffffff">262×</text>
</g>
<!-- 2&#45;&gt;3 -->
<g id="edge5" class="edge">
<title>2&#45;&gt;3</title>
<path fill="none" stroke="#0ab026" stroke-width="1.83" d="M2464,-1103.8826C2464,-1093.6854 2464,-1081.874 2464,-1071.092"/>
<polygon fill="#0ab026" stroke="#0ab026" stroke-width="1.83" points="2466.3801,-1070.9827 2464,-1064.1827 2461.6201,-1070.9828 2466.3801,-1070.9827"/>
<text text-anchor="middle" x="2481" y="-1087" font-family="Arial" font-size="10.00" fill="#0ab026">45.81%</text>
<text text-anchor="middle" x="2481" y="-1076" font-family="Arial" font-size="10.00" fill="#0ab026">262×</text>
</g>
<!-- 5 -->
<g id="node7" class="node">
<title>5</title>
<polygon fill="#0b9e6f" stroke="#0b9e6f" points="2155,-972 1091,-972 1091,-920 2155,-920 2155,-972"/>
<text text-anchor="middle" x="1623" y="-960" font-family="Arial" font-size="10.00" fill="#ffffff">GETreeGenerator::grow_nodes(GETreeGenerator::Tree&amp;, GETreeParameters&amp;, std::vector&lt;GETreeGenerator::GrowPoint, std::allocator&lt;GETreeGenerator::GrowPoint&gt; &gt;&amp;, GETreeGenerator::SpaceColonizationData&amp;, LightVoxelsCube&amp;, int)</text>
<text text-anchor="middle" x="1623" y="-949" font-family="Arial" font-size="10.00" fill="#ffffff">32.98%</text>
<text text-anchor="middle" x="1623" y="-938" font-family="Arial" font-size="10.00" fill="#ffffff">(0.13%)</text>
<text text-anchor="middle" x="1623" y="-927" font-family="Arial" font-size="10.00" fill="#ffffff">1368×</text>
</g>
<!-- 3&#45;&gt;5 -->
<g id="edge6" class="edge">
<title>3&#45;&gt;5</title>
<path fill="none" stroke="#0b9e6f" stroke-width="1.32" d="M2357.9129,-1026.3948C2235.2831,-1012.9798 2029.4743,-990.4657 1866.7954,-972.6697"/>
<polygon fill="#0b9e6f" stroke="#0b9e6f" stroke-width="1.32" points="1866.91,-970.6754 1861.0268,-972.0386 1866.4761,-974.6417 1866.91,-970.6754"/>
<text text-anchor="middle" x="2161" y="-995" font-family="Arial" font-size="10.00" fill="#0b9e6f">32.98%</text>
<text text-anchor="middle" x="2161" y="-984" font-family="Arial" font-size="10.00" fill="#0b9e6f">1368×</text>
</g>
<!-- 10 -->
<g id="node8" class="node">
<title>10</title>
<polygon fill="#0d4281" stroke="#0d4281" points="2763.5,-972 2164.5,-972 2164.5,-920 2763.5,-920 2763.5,-972"/>
<text text-anchor="middle" x="2464" y="-960" font-family="Arial" font-size="10.00" fill="#ffffff">GETreeGenerator::remove_branches(GETreeGenerator::Tree&amp;, GETreeGenerator::Branch&amp;, GETreeParameters&amp;, LightVoxelsCube&amp;)</text>
<text text-anchor="middle" x="2464" y="-949" font-family="Arial" font-size="10.00" fill="#ffffff">11.33%</text>
<text text-anchor="middle" x="2464" y="-938" font-family="Arial" font-size="10.00" fill="#ffffff">(0.10%)</text>
<text text-anchor="middle" x="2464" y="-927" font-family="Arial" font-size="10.00" fill="#ffffff">547810×</text>
</g>
<!-- 3&#45;&gt;10 -->
<g id="edge7" class="edge">
<title>3&#45;&gt;10</title>
<path fill="none" stroke="#0d4281" stroke-width=".5" d="M2464,-1011.8826C2464,-1000.6171 2464,-987.3815 2464,-975.7404"/>
<polygon fill="#0d4281" stroke="#0d4281" stroke-width=".5" points="2465.2251,-975.6827 2464,-972.1827 2462.7751,-975.6828 2465.2251,-975.6827"/>
<text text-anchor="middle" x="2480.5" y="-995" font-family="Arial" font-size="10.00" fill="#0d4281">11.33%</text>
<text text-anchor="middle" x="2480.5" y="-984" font-family="Arial" font-size="10.00" fill="#0d4281">1436×</text>
</g>
<!-- 27 -->
<g id="node9" class="node">
<title>27</title>
<polygon fill="#0d1174" stroke="#0d1174" points="3393,-972 2829,-972 2829,-920 3393,-920 3393,-972"/>
<text text-anchor="middle" x="3111" y="-960" font-family="Arial" font-size="10.00" fill="#ffffff">Octree::insert_vector(std::vector&lt;glm::vec&lt;3, float, (glm::qualifier)0&gt;, std::allocator&lt;glm::vec&lt;3, float, (glm::qualifier)0&gt; &gt; &gt;&amp;)</text>
<text text-anchor="middle" x="3111" y="-949" font-family="Arial" font-size="10.00" fill="#ffffff">0.92%</text>
<text text-anchor="middle" x="3111" y="-938" font-family="Arial" font-size="10.00" fill="#ffffff">(0.06%)</text>
<text text-anchor="middle" x="3111" y="-927" font-family="Arial" font-size="10.00" fill="#ffffff">1309×</text>
</g>
<!-- 3&#45;&gt;27 -->
<g id="edge8" class="edge">
<title>3&#45;&gt;27</title>
<path fill="none" stroke="#0d1174" stroke-width=".5" d="M2570.1144,-1022.9111C2665.9583,-1009.2826 2809.1843,-988.9166 2924.178,-972.5651"/>
<polygon fill="#0d1174" stroke="#0d1174" stroke-width=".5" points="2924.6213,-973.7395 2927.914,-972.0339 2924.2763,-971.3139 2924.6213,-973.7395"/>
<text text-anchor="middle" x="2879" y="-995" font-family="Arial" font-size="10.00" fill="#0d1174">0.92%</text>
<text text-anchor="middle" x="2879" y="-984" font-family="Arial" font-size="10.00" fill="#0d1174">1309×</text>
</g>
<!-- 4 -->
<g id="node10" class="node">
<title>4</title>
<polygon fill="#0ba650" stroke="#0ba650" points="2428,-788 2008,-788 2008,-736 2428,-736 2428,-788"/>
<text text-anchor="middle" x="2218" y="-776" font-family="Arial" font-size="10.00" fill="#ffffff">LightVoxelsCube::set_occluder_pyramid2(glm::vec&lt;3, float, (glm::qualifier)0&gt;, float, float, int)</text>
<text text-anchor="middle" x="2218" y="-765" font-family="Arial" font-size="10.00" fill="#ffffff">38.83%</text>
<text text-anchor="middle" x="2218" y="-754" font-family="Arial" font-size="10.00" fill="#ffffff">(38.68%)</text>
<text text-anchor="middle" x="2218" y="-743" font-family="Arial" font-size="10.00" fill="#ffffff">442522×</text>
</g>
<!-- 5&#45;&gt;4 -->
<g id="edge9" class="edge">
<title>5&#45;&gt;4</title>
<path fill="none" stroke="#0c9788" stroke-width="1.11" d="M1801.1007,-919.992C1849.7218,-909.7447 1893.9895,-896.4344 1912,-880 1929.9611,-863.6107 1911.0389,-844.3893 1929,-828 1946.3421,-812.1754 1988.0288,-799.2475 2034.5055,-789.1614"/>
<polygon fill="#0c9788" stroke="#0c9788" stroke-width="1.11" points="2035.1045,-790.9304 2039.8993,-788.008 2034.3286,-787.3024 2035.1045,-790.9304"/>
<text text-anchor="middle" x="1948" y="-857" font-family="Arial" font-size="10.00" fill="#0c9788">27.66%</text>
<text text-anchor="middle" x="1948" y="-846" font-family="Arial" font-size="10.00" fill="#0c9788">315169×</text>
</g>
<!-- 13 -->
<g id="node11" class="node">
<title>13</title>
<polygon fill="#0d2179" stroke="#0d2179" points="1907.5,-880 992.5,-880 992.5,-828 1907.5,-828 1907.5,-880"/>
<text text-anchor="middle" x="1450" y="-868" font-family="Arial" font-size="10.00" fill="#ffffff">GETreeGenerator::SpaceColonizationData::find_best_pos(LightVoxelsCube&amp;, float, glm::vec&lt;3, float, (glm::qualifier)0&gt;, glm::vec&lt;3, float, (glm::qualifier)0&gt;, float, glm::vec&lt;3, float, (glm::qualifier)0&gt;&amp;, float&amp;)</text>
<text text-anchor="middle" x="1450" y="-857" font-family="Arial" font-size="10.00" fill="#ffffff">4.78%</text>
<text text-anchor="middle" x="1450" y="-846" font-family="Arial" font-size="10.00" fill="#ffffff">(0.00%)</text>
<text text-anchor="middle" x="1450" y="-835" font-family="Arial" font-size="10.00" fill="#ffffff">414860×</text>
</g>
<!-- 5&#45;&gt;13 -->
<g id="edge10" class="edge">
<title>5&#45;&gt;13</title>
<path fill="none" stroke="#0d2179" stroke-width=".5" d="M1573.8879,-919.8826C1551.5129,-907.9837 1525.0051,-893.8871 1502.2625,-881.7928"/>
<polygon fill="#0d2179" stroke="#0d2179" stroke-width=".5" points="1502.6007,-880.5852 1498.9353,-880.0234 1501.4503,-882.7484 1502.6007,-880.5852"/>
<text text-anchor="middle" x="1577" y="-903" font-family="Arial" font-size="10.00" fill="#0d2179">4.78%</text>
<text text-anchor="middle" x="1577" y="-892" font-family="Arial" font-size="10.00" fill="#0d2179">414860×</text>
</g>
<!-- 10&#45;&gt;10 -->
<g id="edge15" class="edge">
<title>10&#45;&gt;10</title>
<path fill="none" stroke="#0d4281" stroke-width=".5" d="M2763.733,-949.7228C2769.3861,-948.656 2772.5,-947.415 2772.5,-946 2772.5,-944.9387 2770.7484,-943.9754 2767.4878,-943.11"/>
<polygon fill="#0d4281" stroke="#0d4281" stroke-width=".5" points="2767.4153,-941.8392 2763.733,-942.2772 2766.8847,-944.2311 2767.4153,-941.8392"/>
<text text-anchor="middle" x="2791.5" y="-943.5" font-family="Arial" font-size="10.00" fill="#0d4281">546374×</text>
</g>
<!-- 10&#45;&gt;4 -->
<g id="edge14" class="edge">
<title>10&#45;&gt;4</title>
<path fill="none" stroke="#0d327d" stroke-width=".5" d="M2487.5033,-919.718C2507.4586,-894.1111 2529.6833,-855.1726 2508,-828 2494.6866,-811.3162 2459.7259,-798.5249 2418.4886,-788.8519"/>
<polygon fill="#0d327d" stroke="#0d327d" stroke-width=".5" points="2418.6823,-787.6395 2414.9962,-788.0435 2418.1298,-790.0264 2418.6823,-787.6395"/>
<text text-anchor="middle" x="2533" y="-857" font-family="Arial" font-size="10.00" fill="#0d327d">8.22%</text>
<text text-anchor="middle" x="2533" y="-846" font-family="Arial" font-size="10.00" fill="#0d327d">93711×</text>
</g>
<!-- 18 -->
<g id="node16" class="node">
<title>18</title>
<polygon fill="#0d1977" stroke="#0d1977" points="2464,-880 1972,-880 1972,-828 2464,-828 2464,-880"/>
<text text-anchor="middle" x="2218" y="-868" font-family="Arial" font-size="10.00" fill="#ffffff">GETreeGenerator::set_occlusion(GETreeGenerator::Branch&amp;, LightVoxelsCube&amp;, GETreeParameters&amp;, float)</text>
<text text-anchor="middle" x="2218" y="-857" font-family="Arial" font-size="10.00" fill="#ffffff">2.95%</text>
<text text-anchor="middle" x="2218" y="-846" font-family="Arial" font-size="10.00" fill="#ffffff">(0.00%)</text>
<text text-anchor="middle" x="2218" y="-835" font-family="Arial" font-size="10.00" fill="#ffffff">18034×</text>
</g>
<!-- 10&#45;&gt;18 -->
<g id="edge16" class="edge">
<title>10&#45;&gt;18</title>
<path fill="none" stroke="#0d1977" stroke-width=".5" d="M2394.1643,-919.8826C2361.9567,-907.8374 2323.7268,-893.5401 2291.125,-881.3476"/>
<polygon fill="#0d1977" stroke="#0d1977" stroke-width=".5" points="2291.2916,-880.1021 2287.5843,-880.0234 2290.4334,-882.3968 2291.2916,-880.1021"/>
<text text-anchor="middle" x="2387.5" y="-903" font-family="Arial" font-size="10.00" fill="#0d1977">2.95%</text>
<text text-anchor="middle" x="2387.5" y="-892" font-family="Arial" font-size="10.00" fill="#0d1977">17047×</text>
</g>
<!-- 28 -->
<g id="node30" class="node">
<title>28</title>
<polygon fill="#0d1074" stroke="#0d1074" points="3245.5,-880 2976.5,-880 2976.5,-828 3245.5,-828 3245.5,-880"/>
<text text-anchor="middle" x="3111" y="-868" font-family="Arial" font-size="10.00" fill="#ffffff">Octree::Node::insert(glm::vec&lt;3, float, (glm::qualifier)0&gt;&amp;)</text>
<text text-anchor="middle" x="3111" y="-857" font-family="Arial" font-size="10.00" fill="#ffffff">0.87%</text>
<text text-anchor="middle" x="3111" y="-846" font-family="Arial" font-size="10.00" fill="#ffffff">(0.67%)</text>
<text text-anchor="middle" x="3111" y="-835" font-family="Arial" font-size="10.00" fill="#ffffff">170974984×</text>
</g>
<!-- 27&#45;&gt;28 -->
<g id="edge34" class="edge">
<title>27&#45;&gt;28</title>
<path fill="none" stroke="#0d1074" stroke-width=".5" d="M3111,-919.8826C3111,-908.6171 3111,-895.3815 3111,-883.7404"/>
<polygon fill="#0d1074" stroke="#0d1074" stroke-width=".5" points="3112.2251,-883.6827 3111,-880.1827 3109.7751,-883.6828 3112.2251,-883.6827"/>
<text text-anchor="middle" x="3135.5" y="-903" font-family="Arial" font-size="10.00" fill="#0d1074">0.87%</text>
<text text-anchor="middle" x="3135.5" y="-892" font-family="Arial" font-size="10.00" fill="#0d1074">26846089×</text>
</g>
<!-- 14 -->
<g id="node18" class="node">
<title>14</title>
<polygon fill="#0d2179" stroke="#0d2179" points="1796,-788 1104,-788 1104,-736 1796,-736 1796,-788"/>
<text text-anchor="middle" x="1450" y="-776" font-family="Arial" font-size="10.00" fill="#ffffff">Octree::Node::apply_to_neighbours_sphere(AABB&amp;, float, glm::vec&lt;3, float, (glm::qualifier)0&gt;&amp;, std::function&lt;void (glm::vec&lt;3, float, (glm::qualifier)0&gt;&amp;)&gt;)</text>
<text text-anchor="middle" x="1450" y="-765" font-family="Arial" font-size="10.00" fill="#ffffff">4.77%</text>
<text text-anchor="middle" x="1450" y="-754" font-family="Arial" font-size="10.00" fill="#ffffff">(3.94%)</text>
<text text-anchor="middle" x="1450" y="-743" font-family="Arial" font-size="10.00" fill="#ffffff">52646019×</text>
</g>
<!-- 13&#45;&gt;14 -->
<g id="edge18" class="edge">
<title>13&#45;&gt;14</title>
<path fill="none" stroke="#0d2179" stroke-width=".5" d="M1450,-827.8826C1450,-816.6171 1450,-803.3815 1450,-791.7404"/>
<polygon fill="#0d2179" stroke="#0d2179" stroke-width=".5" points="1451.2251,-791.6827 1450,-788.1827 1448.7751,-791.6828 1451.2251,-791.6827"/>
<text text-anchor="middle" x="1469" y="-811" font-family="Arial" font-size="10.00" fill="#0d2179">4.77%</text>
<text text-anchor="middle" x="1469" y="-800" font-family="Arial" font-size="10.00" fill="#0d2179">380855×</text>
</g>
<!-- 7 -->
<g id="node12" class="node">
<title>7</title>
<polygon fill="#0d4b84" stroke="#0d4b84" points="4208,-1237 4056,-1237 4056,-1196 4208,-1196 4208,-1237"/>
<text text-anchor="middle" x="4132" y="-1225" font-family="Arial" font-size="10.00" fill="#ffffff">parser::parser_main(int, char**)</text>
<text text-anchor="middle" x="4132" y="-1214" font-family="Arial" font-size="10.00" fill="#ffffff">13.10%</text>
<text text-anchor="middle" x="4132" y="-1203" font-family="Arial" font-size="10.00" fill="#ffffff">(0.01%)</text>
</g>
<!-- 8 -->
<g id="node13" class="node">
<title>8</title>
<polygon fill="#0d4582" stroke="#0d4582" points="4215,-1156 4049,-1156 4049,-1104 4215,-1104 4215,-1156"/>
<text text-anchor="middle" x="4132" y="-1144" font-family="Arial" font-size="10.00" fill="#ffffff">SceneGenerator::generate_grove()</text>
<text text-anchor="middle" x="4132" y="-1133" font-family="Arial" font-size="10.00" fill="#ffffff">11.98%</text>
<text text-anchor="middle" x="4132" y="-1122" font-family="Arial" font-size="10.00" fill="#ffffff">(2.40%)</text>
<text text-anchor="middle" x="4132" y="-1111" font-family="Arial" font-size="10.00" fill="#ffffff">1×</text>
</g>
<!-- 7&#45;&gt;8 -->
<g id="edge11" class="edge">
<title>7&#45;&gt;8</title>
<path fill="none" stroke="#0d4582" stroke-width=".5" d="M4132,-1195.5608C4132,-1184.7764 4132,-1171.4435 4132,-1159.6232"/>
<polygon fill="#0d4582" stroke="#0d4582" stroke-width=".5" points="4133.2251,-1159.5078 4132,-1156.0078 4130.7751,-1159.5079 4133.2251,-1159.5078"/>
<text text-anchor="middle" x="4148.5" y="-1179" font-family="Arial" font-size="10.00" fill="#0d4582">11.98%</text>
<text text-anchor="middle" x="4148.5" y="-1168" font-family="Arial" font-size="10.00" fill="#0d4582">1×</text>
</g>
<!-- 12 -->
<g id="node14" class="node">
<title>12</title>
<polygon fill="#0d327d" stroke="#0d327d" points="4083.5,-1064 3634.5,-1064 3634.5,-1012 4083.5,-1012 4083.5,-1064"/>
<text text-anchor="middle" x="3859" y="-1052" font-family="Arial" font-size="10.00" fill="#ffffff">RawTreesDatabase::pack_ready(GrovePacker&amp;, SceneGenerator::SceneGenerationContext&amp;, bool)</text>
<text text-anchor="middle" x="3859" y="-1041" font-family="Arial" font-size="10.00" fill="#ffffff">8.32%</text>
<text text-anchor="middle" x="3859" y="-1030" font-family="Arial" font-size="10.00" fill="#ffffff">(5.04%)</text>
<text text-anchor="middle" x="3859" y="-1019" font-family="Arial" font-size="10.00" fill="#ffffff">657890432×</text>
</g>
<!-- 8&#45;&gt;12 -->
<g id="edge12" class="edge">
<title>8&#45;&gt;12</title>
<path fill="none" stroke="#0d327d" stroke-width=".5" d="M4054.4994,-1103.8826C4018.6121,-1091.7887 3975.9874,-1077.4243 3939.7118,-1065.1996"/>
<polygon fill="#0d327d" stroke="#0d327d" stroke-width=".5" points="3939.9295,-1063.9803 3936.2216,-1064.0234 3939.1471,-1066.302 3939.9295,-1063.9803"/>
<text text-anchor="middle" x="4055" y="-1087" font-family="Arial" font-size="10.00" fill="#0d327d">8.32%</text>
<text text-anchor="middle" x="4055" y="-1076" font-family="Arial" font-size="10.00" fill="#0d327d">657890432×</text>
</g>
<!-- 25 -->
<g id="node15" class="node">
<title>25</title>
<polygon fill="#0d1174" stroke="#0d1174" points="4397.5,-1064 4092.5,-1064 4092.5,-1012 4397.5,-1012 4397.5,-1064"/>
<text text-anchor="middle" x="4245" y="-1052" font-family="Arial" font-size="10.00" fill="#ffffff">void std::lock&lt;std::mutex, std::mutex&gt;(std::mutex&amp;, std::mutex&amp;)</text>
<text text-anchor="middle" x="4245" y="-1041" font-family="Arial" font-size="10.00" fill="#ffffff">1.04%</text>
<text text-anchor="middle" x="4245" y="-1030" font-family="Arial" font-size="10.00" fill="#ffffff">(1.04%)</text>
<text text-anchor="middle" x="4245" y="-1019" font-family="Arial" font-size="10.00" fill="#ffffff">665346145×</text>
</g>
<!-- 8&#45;&gt;25 -->
<g id="edge13" class="edge">
<title>8&#45;&gt;25</title>
<path fill="none" stroke="#0d1174" stroke-width=".5" d="M4164.079,-1103.8826C4178.3931,-1092.2286 4195.2968,-1078.4663 4209.9431,-1066.5419"/>
<polygon fill="#0d1174" stroke="#0d1174" stroke-width=".5" points="4210.9,-1067.3425 4212.8408,-1064.1827 4209.3531,-1065.4426 4210.9,-1067.3425"/>
<text text-anchor="middle" x="4228" y="-1087" font-family="Arial" font-size="10.00" fill="#0d1174">1.04%</text>
<text text-anchor="middle" x="4228" y="-1076" font-family="Arial" font-size="10.00" fill="#0d1174">665346145×</text>
</g>
<!-- 15 -->
<g id="node17" class="node">
<title>15</title>
<polygon fill="#0d1b77" stroke="#0d1b77" points="4094,-972 3624,-972 3624,-920 4094,-920 4094,-972"/>
<text text-anchor="middle" x="3859" y="-960" font-family="Arial" font-size="10.00" fill="#ffffff">GrovePacker::add_trees_to_grove(GroveGenerationData, GrovePacked&amp;, Tree*, Heightmap*, bool, bool)</text>
<text text-anchor="middle" x="3859" y="-949" font-family="Arial" font-size="10.00" fill="#ffffff">3.27%</text>
<text text-anchor="middle" x="3859" y="-938" font-family="Arial" font-size="10.00" fill="#ffffff">(0.00%)</text>
<text text-anchor="middle" x="3859" y="-927" font-family="Arial" font-size="10.00" fill="#ffffff">4×</text>
</g>
<!-- 12&#45;&gt;15 -->
<g id="edge17" class="edge">
<title>12&#45;&gt;15</title>
<path fill="none" stroke="#0d1b77" stroke-width=".5" d="M3859,-1011.8826C3859,-1000.6171 3859,-987.3815 3859,-975.7404"/>
<polygon fill="#0d1b77" stroke="#0d1b77" stroke-width=".5" points="3860.2251,-975.6827 3859,-972.1827 3857.7751,-975.6828 3860.2251,-975.6827"/>
<text text-anchor="middle" x="3873" y="-995" font-family="Arial" font-size="10.00" fill="#0d1b77">3.27%</text>
<text text-anchor="middle" x="3873" y="-984" font-family="Arial" font-size="10.00" fill="#0d1b77">4×</text>
</g>
<!-- 18&#45;&gt;4 -->
<g id="edge24" class="edge">
<title>18&#45;&gt;4</title>
<path fill="none" stroke="#0d1977" stroke-width=".5" d="M2218,-827.8826C2218,-816.6171 2218,-803.3815 2218,-791.7404"/>
<polygon fill="#0d1977" stroke="#0d1977" stroke-width=".5" points="2219.2251,-791.6827 2218,-788.1827 2216.7751,-791.6828 2219.2251,-791.6827"/>
<text text-anchor="middle" x="2234.5" y="-811" font-family="Arial" font-size="10.00" fill="#0d1977">2.95%</text>
<text text-anchor="middle" x="2234.5" y="-800" font-family="Arial" font-size="10.00" fill="#0d1977">33642×</text>
</g>
<!-- 18&#45;&gt;18 -->
<g id="edge25" class="edge">
<title>18&#45;&gt;18</title>
<path fill="none" stroke="#0d1977" stroke-width=".5" d="M2464.1187,-858.0719C2469.8224,-856.9296 2473,-855.5723 2473,-854 2473,-852.8208 2471.2126,-851.7625 2467.9126,-850.8251"/>
<polygon fill="#0d1977" stroke="#0d1977" stroke-width=".5" points="2467.8067,-849.5414 2464.1187,-849.9281 2467.2429,-851.9256 2467.8067,-849.5414"/>
<text text-anchor="middle" x="2484" y="-851.5" font-family="Arial" font-size="10.00" fill="#0d1977">987×</text>
</g>
<!-- 16 -->
<g id="node20" class="node">
<title>16</title>
<polygon fill="#0d1b77" stroke="#0d1b77" points="4112.5,-880 3605.5,-880 3605.5,-828 4112.5,-828 4112.5,-880"/>
<text text-anchor="middle" x="3859" y="-868" font-family="Arial" font-size="10.00" fill="#ffffff">GrovePacker::add_trees_to_grove_internal(GroveGenerationData, GrovePacked&amp;, Tree*, Heightmap*, bool, bool)</text>
<text text-anchor="middle" x="3859" y="-857" font-family="Arial" font-size="10.00" fill="#ffffff">3.27%</text>
<text text-anchor="middle" x="3859" y="-846" font-family="Arial" font-size="10.00" fill="#ffffff">(0.00%)</text>
<text text-anchor="middle" x="3859" y="-835" font-family="Arial" font-size="10.00" fill="#ffffff">4×</text>
</g>
<!-- 15&#45;&gt;16 -->
<g id="edge21" class="edge">
<title>15&#45;&gt;16</title>
<path fill="none" stroke="#0d1b77" stroke-width=".5" d="M3859,-919.8826C3859,-908.6171 3859,-895.3815 3859,-883.7404"/>
<polygon fill="#0d1b77" stroke="#0d1b77" stroke-width=".5" points="3860.2251,-883.6827 3859,-880.1827 3857.7751,-883.6828 3860.2251,-883.6827"/>
<text text-anchor="middle" x="3873" y="-903" font-family="Arial" font-size="10.00" fill="#0d1b77">3.27%</text>
<text text-anchor="middle" x="3873" y="-892" font-family="Arial" font-size="10.00" fill="#0d1b77">4×</text>
</g>
<!-- 14&#45;&gt;14 -->
<g id="edge19" class="edge">
<title>14&#45;&gt;14</title>
<path fill="none" stroke="#0d2179" stroke-width=".5" d="M1796.1152,-765.5175C1801.8573,-764.4977 1805,-763.3252 1805,-762 1805,-761.0061 1803.2322,-760.0981 1799.9259,-759.276"/>
<polygon fill="#0d2179" stroke="#0d2179" stroke-width=".5" points="1799.7914,-757.9968 1796.1152,-758.4825 1799.2919,-760.3954 1799.7914,-757.9968"/>
<text text-anchor="middle" x="1829.5" y="-759.5" font-family="Arial" font-size="10.00" fill="#0d2179">52265164×</text>
</g>
<!-- 30 -->
<g id="node19" class="node">
<title>30</title>
<polygon fill="#0d0f74" stroke="#0d0f74" points="2900,-696 0,-696 0,-644 2900,-644 2900,-696"/>
<text text-anchor="middle" x="1450" y="-684" font-family="Arial" font-size="10.00" fill="#ffffff">std::_Function_base::_Base_manager&lt;GETreeGenerator::SpaceColonizationData::find_best_pos(LightVoxelsCube&amp;, float, glm::vec&lt;3, float, (glm::qualifier)0&gt;, glm::vec&lt;3, float, (glm::qualifier)0&gt;, float, glm::vec&lt;3, float, (glm::qualifier)0&gt;&amp;, float&amp;)::{lambda(glm::vec&lt;3, float, (glm::qualifier)0&gt;&amp;)#1}&gt;::_M_manager(std::_Any_data&amp;, std::_Function_base::_Base_manager&lt;GETreeGenerator::SpaceColonizationData::find_best_pos(LightVoxelsCube&amp;, float, glm::vec&lt;3, float, (glm::qualifier)0&gt;, glm::vec&lt;3, float, (glm::qualifier)0&gt;, float, glm::vec&lt;3, float, (glm::qualifier)0&gt;&amp;, float&amp;)::{lambda(glm::vec&lt;3, float, (glm::qualifier)0&gt;&amp;)#1}&gt; const&amp;, std::_Manager_operation)</text>
<text text-anchor="middle" x="1450" y="-673" font-family="Arial" font-size="10.00" fill="#ffffff">0.59%</text>
<text text-anchor="middle" x="1450" y="-662" font-family="Arial" font-size="10.00" fill="#ffffff">(0.59%)</text>
<text text-anchor="middle" x="1450" y="-651" font-family="Arial" font-size="10.00" fill="#ffffff">265993959×</text>
</g>
<!-- 14&#45;&gt;30 -->
<g id="edge20" class="edge">
<title>14&#45;&gt;30</title>
<path fill="none" stroke="#0d0f73" stroke-width=".5" d="M1450,-735.8826C1450,-724.6171 1450,-711.3815 1450,-699.7404"/>
<polygon fill="#0d0f73" stroke="#0d0f73" stroke-width=".5" points="1451.2251,-699.6827 1450,-696.1827 1448.7751,-699.6828 1451.2251,-699.6827"/>
<text text-anchor="middle" x="1477" y="-719" font-family="Arial" font-size="10.00" fill="#0d0f73">0.59%</text>
<text text-anchor="middle" x="1477" y="-708" font-family="Arial" font-size="10.00" fill="#0d0f73">264153985×</text>
</g>
<!-- 17 -->
<g id="node21" class="node">
<title>17</title>
<polygon fill="#0d1a77" stroke="#0d1a77" points="4339.5,-788 3378.5,-788 3378.5,-736 4339.5,-736 4339.5,-788"/>
<text text-anchor="middle" x="3859" y="-776" font-family="Arial" font-size="10.00" fill="#ffffff">GrovePacker::pack_layer(Block&amp;, GroveGenerationData, GrovePacked&amp;, Tree*, Heightmap*, std::vector&lt;ClusterPackingLayer, std::allocator&lt;ClusterPackingLayer&gt; &gt;&amp;, LightVoxelsCube*, int, int, bool, bool, bool, bool)</text>
<text text-anchor="middle" x="3859" y="-765" font-family="Arial" font-size="10.00" fill="#ffffff">3.18%</text>
<text text-anchor="middle" x="3859" y="-754" font-family="Arial" font-size="10.00" fill="#ffffff">(0.00%)</text>
<text text-anchor="middle" x="3859" y="-743" font-family="Arial" font-size="10.00" fill="#ffffff">18×</text>
</g>
<!-- 16&#45;&gt;17 -->
<g id="edge22" class="edge">
<title>16&#45;&gt;17</title>
<path fill="none" stroke="#0d1a77" stroke-width=".5" d="M3859,-827.8826C3859,-816.6171 3859,-803.3815 3859,-791.7404"/>
<polygon fill="#0d1a77" stroke="#0d1a77" stroke-width=".5" points="3860.2251,-791.6827 3859,-788.1827 3857.7751,-791.6828 3860.2251,-791.6827"/>
<text text-anchor="middle" x="3873" y="-811" font-family="Arial" font-size="10.00" fill="#0d1a77">3.18%</text>
<text text-anchor="middle" x="3873" y="-800" font-family="Arial" font-size="10.00" fill="#0d1a77">18×</text>
</g>
<!-- 22 -->
<g id="node22" class="node">
<title>22</title>
<polygon fill="#0d1776" stroke="#0d1776" points="4154.5,-696 3563.5,-696 3563.5,-644 4154.5,-644 4154.5,-696"/>
<text text-anchor="middle" x="3859" y="-684" font-family="Arial" font-size="10.00" fill="#ffffff">Clusterizer2::get_base_clusters(Block&amp;, Tree*, int, int, std::vector&lt;ClusterData, std::allocator&lt;ClusterData&gt; &gt;&amp;, ClusteringContext*)</text>
<text text-anchor="middle" x="3859" y="-673" font-family="Arial" font-size="10.00" fill="#ffffff">2.51%</text>
<text text-anchor="middle" x="3859" y="-662" font-family="Arial" font-size="10.00" fill="#ffffff">(0.00%)</text>
<text text-anchor="middle" x="3859" y="-651" font-family="Arial" font-size="10.00" fill="#ffffff">16×</text>
</g>
<!-- 17&#45;&gt;22 -->
<g id="edge23" class="edge">
<title>17&#45;&gt;22</title>
<path fill="none" stroke="#0d1776" stroke-width=".5" d="M3859,-735.8826C3859,-724.6171 3859,-711.3815 3859,-699.7404"/>
<polygon fill="#0d1776" stroke="#0d1776" stroke-width=".5" points="3860.2251,-699.6827 3859,-696.1827 3857.7751,-699.6828 3860.2251,-699.6827"/>
<text text-anchor="middle" x="3873" y="-719" font-family="Arial" font-size="10.00" fill="#0d1776">2.51%</text>
<text text-anchor="middle" x="3873" y="-708" font-family="Arial" font-size="10.00" fill="#0d1776">16×</text>
</g>
<!-- 21 -->
<g id="node27" class="node">
<title>21</title>
<polygon fill="#0d1776" stroke="#0d1776" points="4012,-604 3706,-604 3706,-552 4012,-552 4012,-604"/>
<text text-anchor="middle" x="3859" y="-592" font-family="Arial" font-size="10.00" fill="#ffffff">Clusterizer2::convert_branch(Block&amp;, Branch*, ClusteringContext*)</text>
<text text-anchor="middle" x="3859" y="-581" font-family="Arial" font-size="10.00" fill="#ffffff">2.51%</text>
<text text-anchor="middle" x="3859" y="-570" font-family="Arial" font-size="10.00" fill="#ffffff">(0.00%)</text>
<text text-anchor="middle" x="3859" y="-559" font-family="Arial" font-size="10.00" fill="#ffffff">1842×</text>
</g>
<!-- 22&#45;&gt;21 -->
<g id="edge31" class="edge">
<title>22&#45;&gt;21</title>
<path fill="none" stroke="#0d1776" stroke-width=".5" d="M3859,-643.8826C3859,-632.6171 3859,-619.3815 3859,-607.7404"/>
<polygon fill="#0d1776" stroke="#0d1776" stroke-width=".5" points="3860.2251,-607.6827 3859,-604.1827 3857.7751,-607.6828 3860.2251,-607.6827"/>
<text text-anchor="middle" x="3873" y="-627" font-family="Arial" font-size="10.00" fill="#0d1776">2.51%</text>
<text text-anchor="middle" x="3873" y="-616" font-family="Arial" font-size="10.00" fill="#0d1776">1842×</text>
</g>
<!-- 19 -->
<g id="node23" class="node">
<title>19</title>
<polygon fill="#0d1876" stroke="#0d1876" points="4221,-328 3497,-328 3497,-276 4221,-276 4221,-328"/>
<text text-anchor="middle" x="3859" y="-316" font-family="Arial" font-size="10.00" fill="#ffffff">BillboardCloudRaw::create_billboard(TreeTypeData&amp;, Branch*, BBox&amp;, Visualizer&amp;, int, Billboard&amp;, TextureAtlas&amp;, BillboardCloudRaw::BillboardGenerationParams)</text>
<text text-anchor="middle" x="3859" y="-305" font-family="Arial" font-size="10.00" fill="#ffffff">2.59%</text>
<text text-anchor="middle" x="3859" y="-294" font-family="Arial" font-size="10.00" fill="#ffffff">(0.00%)</text>
<text text-anchor="middle" x="3859" y="-283" font-family="Arial" font-size="10.00" fill="#ffffff">9019×</text>
</g>
<!-- 20 -->
<g id="node24" class="node">
<title>20</title>
<polygon fill="#0d1876" stroke="#0d1876" points="4032,-236 3686,-236 3686,-184 4032,-184 4032,-236"/>
<text text-anchor="middle" x="3859" y="-224" font-family="Arial" font-size="10.00" fill="#ffffff">Visualizer::recursive_branch_to_model(Branch&amp;, Model*, bool, float, int, int)</text>
<text text-anchor="middle" x="3859" y="-213" font-family="Arial" font-size="10.00" fill="#ffffff">2.58%</text>
<text text-anchor="middle" x="3859" y="-202" font-family="Arial" font-size="10.00" fill="#ffffff">(0.61%)</text>
<text text-anchor="middle" x="3859" y="-191" font-family="Arial" font-size="10.00" fill="#ffffff">4178802×</text>
</g>
<!-- 19&#45;&gt;20 -->
<g id="edge26" class="edge">
<title>19&#45;&gt;20</title>
<path fill="none" stroke="#0d1876" stroke-width=".5" d="M3859,-275.8826C3859,-264.6171 3859,-251.3815 3859,-239.7404"/>
<polygon fill="#0d1876" stroke="#0d1876" stroke-width=".5" points="3860.2251,-239.6827 3859,-236.1827 3857.7751,-239.6828 3860.2251,-239.6827"/>
<text text-anchor="middle" x="3875.5" y="-259" font-family="Arial" font-size="10.00" fill="#0d1876">2.58%</text>
<text text-anchor="middle" x="3875.5" y="-248" font-family="Arial" font-size="10.00" fill="#0d1876">17874×</text>
</g>
<!-- 20&#45;&gt;20 -->
<g id="edge27" class="edge">
<title>20&#45;&gt;20</title>
<path fill="none" stroke="#0d1876" stroke-width=".5" d="M4032.0061,-214.7315C4037.7341,-213.4639 4041,-211.8867 4041,-210 4041,-208.526 4039.0067,-207.2409 4035.4033,-206.1448"/>
<polygon fill="#0d1876" stroke="#0d1876" stroke-width=".5" points="4035.7012,-204.9566 4032.0061,-205.2685 4035.0892,-207.3289 4035.7012,-204.9566"/>
<text text-anchor="middle" x="4062.5" y="-207.5" font-family="Arial" font-size="10.00" fill="#0d1876">4160928×</text>
</g>
<!-- 26 -->
<g id="node25" class="node">
<title>26</title>
<polygon fill="#0d1174" stroke="#0d1174" points="4057.5,-144 3604.5,-144 3604.5,-92 4057.5,-92 4057.5,-144"/>
<text text-anchor="middle" x="3831" y="-132" font-family="Arial" font-size="10.00" fill="#ffffff">Visualizer::seg_vertexes_to_model(SegmentVertexes&amp;, Model*, glm::vec&lt;2, float, (glm::qualifier)0&gt;)</text>
<text text-anchor="middle" x="3831" y="-121" font-family="Arial" font-size="10.00" fill="#ffffff">1.01%</text>
<text text-anchor="middle" x="3831" y="-110" font-family="Arial" font-size="10.00" fill="#ffffff">(0.73%)</text>
<text text-anchor="middle" x="3831" y="-99" font-family="Arial" font-size="10.00" fill="#ffffff">4559758×</text>
</g>
<!-- 20&#45;&gt;26 -->
<g id="edge28" class="edge">
<title>20&#45;&gt;26</title>
<path fill="none" stroke="#0d1174" stroke-width=".5" d="M3851.0512,-183.8826C3847.6226,-172.6171 3843.5944,-159.3815 3840.0514,-147.7404"/>
<polygon fill="#0d1174" stroke="#0d1174" stroke-width=".5" points="3841.1597,-147.1744 3838.9687,-144.1827 3838.8159,-147.8878 3841.1597,-147.1744"/>
<text text-anchor="middle" x="3870.5" y="-167" font-family="Arial" font-size="10.00" fill="#0d1174">1.00%</text>
<text text-anchor="middle" x="3870.5" y="-156" font-family="Arial" font-size="10.00" fill="#0d1174">4482260×</text>
</g>
<!-- 31 -->
<g id="node26" class="node">
<title>31</title>
<polygon fill="#0d0f74" stroke="#0d0f74" points="4400,-144 4066,-144 4066,-92 4400,-92 4400,-144"/>
<text text-anchor="middle" x="4233" y="-132" font-family="Arial" font-size="10.00" fill="#ffffff">Visualizer::get_base_ring(Segment&amp;, SegmentVertexes&amp;, int, float, float)</text>
<text text-anchor="middle" x="4233" y="-121" font-family="Arial" font-size="10.00" fill="#ffffff">0.59%</text>
<text text-anchor="middle" x="4233" y="-110" font-family="Arial" font-size="10.00" fill="#ffffff">(0.07%)</text>
<text text-anchor="middle" x="4233" y="-99" font-family="Arial" font-size="10.00" fill="#ffffff">4496061×</text>
</g>
<!-- 20&#45;&gt;31 -->
<g id="edge29" class="edge">
<title>20&#45;&gt;31</title>
<path fill="none" stroke="#0d0f74" stroke-width=".5" d="M3965.173,-183.8826C4014.7338,-171.6912 4073.674,-157.1925 4123.6284,-144.9043"/>
<polygon fill="#0d0f74" stroke="#0d0f74" stroke-width=".5" points="4124.1033,-146.049 4127.2093,-144.0234 4123.518,-143.67 4124.1033,-146.049"/>
<text text-anchor="middle" x="4112.5" y="-167" font-family="Arial" font-size="10.00" fill="#0d0f74">0.59%</text>
<text text-anchor="middle" x="4112.5" y="-156" font-family="Arial" font-size="10.00" fill="#0d0f74">4496061×</text>
</g>
<!-- 29 -->
<g id="node31" class="node">
<title>29</title>
<polygon fill="#0d0f74" stroke="#0d0f74" points="4698,-52 3768,-52 3768,0 4698,0 4698,-52"/>
<text text-anchor="middle" x="4233" y="-40" font-family="Arial" font-size="10.00" fill="#ffffff">Visualizer::get_ring(glm::vec&lt;3, float, (glm::qualifier)0&gt;&amp;, glm::vec&lt;3, float, (glm::qualifier)0&gt;&amp;, float, SegmentVertexes&amp;, int, float, std::vector&lt;float, std::allocator&lt;float&gt; &gt;&amp;, glm::vec&lt;3, float, (glm::qualifier)0&gt;)</text>
<text text-anchor="middle" x="4233" y="-29" font-family="Arial" font-size="10.00" fill="#ffffff">0.64%</text>
<text text-anchor="middle" x="4233" y="-18" font-family="Arial" font-size="10.00" fill="#ffffff">(0.51%)</text>
<text text-anchor="middle" x="4233" y="-7" font-family="Arial" font-size="10.00" fill="#ffffff">5334200×</text>
</g>
<!-- 31&#45;&gt;29 -->
<g id="edge36" class="edge">
<title>31&#45;&gt;29</title>
<path fill="none" stroke="#0d0f73" stroke-width=".5" d="M4233,-91.8826C4233,-80.6171 4233,-67.3815 4233,-55.7404"/>
<polygon fill="#0d0f73" stroke="#0d0f73" stroke-width=".5" points="4234.2251,-55.6827 4233,-52.1827 4231.7751,-55.6828 4234.2251,-55.6827"/>
<text text-anchor="middle" x="4254.5" y="-75" font-family="Arial" font-size="10.00" fill="#0d0f73">0.52%</text>
<text text-anchor="middle" x="4254.5" y="-64" font-family="Arial" font-size="10.00" fill="#0d0f73">4384663×</text>
</g>
<!-- 23 -->
<g id="node28" class="node">
<title>23</title>
<polygon fill="#0d1776" stroke="#0d1776" points="4106,-512 3612,-512 3612,-460 4106,-460 4106,-512"/>
<text text-anchor="middle" x="3859" y="-500" font-family="Arial" font-size="10.00" fill="#ffffff">ImpostorClusteringHelper::convert_branch(Block&amp;, Branch*, ClusteringContext*, BaseBranchClusteringData&amp;)</text>
<text text-anchor="middle" x="3859" y="-489" font-family="Arial" font-size="10.00" fill="#ffffff">2.46%</text>
<text text-anchor="middle" x="3859" y="-478" font-family="Arial" font-size="10.00" fill="#ffffff">(0.04%)</text>
<text text-anchor="middle" x="3859" y="-467" font-family="Arial" font-size="10.00" fill="#ffffff">1874×</text>
</g>
<!-- 21&#45;&gt;23 -->
<g id="edge30" class="edge">
<title>21&#45;&gt;23</title>
<path fill="none" stroke="#0d1776" stroke-width=".5" d="M3859,-551.8826C3859,-540.6171 3859,-527.3815 3859,-515.7404"/>
<polygon fill="#0d1776" stroke="#0d1776" stroke-width=".5" points="3860.2251,-515.6827 3859,-512.1827 3857.7751,-515.6828 3860.2251,-515.6827"/>
<text text-anchor="middle" x="3873" y="-535" font-family="Arial" font-size="10.00" fill="#0d1776">2.46%</text>
<text text-anchor="middle" x="3873" y="-524" font-family="Arial" font-size="10.00" fill="#0d1776">1874×</text>
</g>
<!-- 24 -->
<g id="node29" class="node">
<title>24</title>
<polygon fill="#0d1676" stroke="#0d1676" points="4172.5,-420 3545.5,-420 3545.5,-368 4172.5,-368 4172.5,-420"/>
<text text-anchor="middle" x="3859" y="-408" font-family="Arial" font-size="10.00" fill="#ffffff">ImpostorBaker::make_impostor(Branch&amp;, TreeTypeData&amp;, Impostor&amp;, ImpostorBaker::ImpostorGenerationParams&amp;, TextureAtlas&amp;, BBox&amp;)</text>
<text text-anchor="middle" x="3859" y="-397" font-family="Arial" font-size="10.00" fill="#ffffff">2.26%</text>
<text text-anchor="middle" x="3859" y="-386" font-family="Arial" font-size="10.00" fill="#ffffff">(0.00%)</text>
<text text-anchor="middle" x="3859" y="-375" font-family="Arial" font-size="10.00" fill="#ffffff">1928×</text>
</g>
<!-- 23&#45;&gt;24 -->
<g id="edge32" class="edge">
<title>23&#45;&gt;24</title>
<path fill="none" stroke="#0d1676" stroke-width=".5" d="M3859,-459.8826C3859,-448.6171 3859,-435.3815 3859,-423.7404"/>
<polygon fill="#0d1676" stroke="#0d1676" stroke-width=".5" points="3860.2251,-423.6827 3859,-420.1827 3857.7751,-423.6828 3860.2251,-423.6827"/>
<text text-anchor="middle" x="3873" y="-443" font-family="Arial" font-size="10.00" fill="#0d1676">2.19%</text>
<text text-anchor="middle" x="3873" y="-432" font-family="Arial" font-size="10.00" fill="#0d1676">1873×</text>
</g>
<!-- 24&#45;&gt;19 -->
<g id="edge33" class="edge">
<title>24&#45;&gt;19</title>
<path fill="none" stroke="#0d1676" stroke-width=".5" d="M3859,-367.8826C3859,-356.6171 3859,-343.3815 3859,-331.7404"/>
<polygon fill="#0d1676" stroke="#0d1676" stroke-width=".5" points="3860.2251,-331.6827 3859,-328.1827 3857.7751,-331.6828 3860.2251,-331.6827"/>
<text text-anchor="middle" x="3873" y="-351" font-family="Arial" font-size="10.00" fill="#0d1676">2.25%</text>
<text text-anchor="middle" x="3873" y="-340" font-family="Arial" font-size="10.00" fill="#0d1676">7841×</text>
</g>
<!-- 28&#45;&gt;28 -->
<g id="edge35" class="edge">
<title>28&#45;&gt;28</title>
<path fill="none" stroke="#0d1074" stroke-width=".5" d="M3245.7142,-859.1711C3251.2754,-857.835 3254.5,-856.1113 3254.5,-854 3254.5,-852.4165 3252.6862,-851.051 3249.4331,-849.9036"/>
<polygon fill="#0d1074" stroke="#0d1074" stroke-width=".5" points="3249.4167,-848.6238 3245.7142,-848.8289 3248.7365,-850.9775 3249.4167,-848.6238"/>
<text text-anchor="middle" x="3281.5" y="-851.5" font-family="Arial" font-size="10.00" fill="#0d1074">144128895×</text>
</g>
</g>
</svg>
