# Blender v2.79 (sub 0) OBJ File: ''
# www.blender.org
mtllib house.mtl
o Object002_Untitled
v -7.013252 -0.029309 7.769435
v 6.965170 -0.029309 7.769435
v -7.013252 -0.029310 -7.756753
v 6.965170 -0.029310 -7.756753
v -7.013252 5.970691 7.769435
v 6.965170 5.970691 7.769435
v -7.013252 5.970690 -7.756754
v 6.965170 5.970690 -7.756754
v -7.362712 5.970691 7.924697
v 7.314630 5.970691 7.924697
v -7.362712 5.970690 -7.912016
v 7.314630 5.970690 -7.912016
v -0.207837 8.470691 4.643532
v 0.159756 8.470691 4.643532
v -0.207838 8.470691 -4.630851
v 0.159755 8.470691 -4.630851
v -4.358622 6.958898 -2.940691
v -3.402881 6.958898 -2.940691
v -4.358622 6.958898 -3.338543
v -3.402881 6.958898 -3.338543
v -4.358622 8.307837 -2.940692
v -3.402881 8.307837 -2.940692
v -4.358622 8.307837 -3.338543
v -3.402881 8.307837 -3.338543
v 3.163284 6.958898 -2.940691
v 4.119024 6.958898 -2.940691
v 3.163284 6.958898 -3.338543
v 4.119024 6.958898 -3.338543
v 3.163284 8.307837 -2.940692
v 4.119024 8.307837 -2.940692
v 3.163284 8.307837 -3.338543
v 4.119024 8.307837 -3.338543
v 3.163284 6.958898 3.216792
v 4.119024 6.958898 3.216792
v 3.163284 6.958898 2.818940
v 4.119024 6.958898 2.818940
v 3.163284 8.307837 3.216792
v 4.119024 8.307837 3.216792
v 3.163284 8.307837 2.818940
v 4.119024 8.307837 2.818940
v -4.358622 6.958898 3.216792
v -3.402881 6.958898 3.216792
v -4.358622 6.958898 2.818940
v -3.402881 6.958898 2.818940
v -4.358622 8.307837 3.216792
v -3.402881 8.307837 3.216792
v -4.358622 8.307837 2.818940
v -3.402881 8.307837 2.818940
v -7.016737 1.440412 0.594071
v -6.933678 1.500805 0.594071
v -7.016737 1.440412 0.521277
v -6.933678 1.500805 0.521277
v -7.489243 2.223152 0.594071
v -7.406184 2.283545 0.594071
v -7.489243 2.223152 0.521277
v -7.406184 2.283545 0.521277
v -7.016737 1.440412 -0.763678
v -6.933678 1.500805 -0.763678
v -7.016737 1.440412 -0.836472
v -6.933678 1.500805 -0.836472
v -7.489243 2.223152 -0.763678
v -7.406184 2.283545 -0.763678
v -7.489243 2.223152 -0.836472
v -7.406184 2.283545 -0.836472
v 0.794821 1.467013 -7.763844
v 0.794821 1.527406 -7.680784
v 0.867615 1.467013 -7.763844
v 0.867615 1.527406 -7.680784
v 0.794821 2.249753 -8.236349
v 0.794821 2.310146 -8.153290
v 0.867615 2.249753 -8.236349
v 0.867615 2.310146 -8.153290
v -0.562928 1.467013 -7.763844
v -0.562928 1.527406 -7.680784
v -0.490134 1.467013 -7.763844
v -0.490134 1.527406 -7.680784
v -0.562928 2.249753 -8.236349
v -0.562928 2.310146 -8.153290
v -0.490134 2.249753 -8.236349
v -0.490134 2.310146 -8.153290
v -7.616739 2.144439 1.054532
v -7.616739 2.144439 -1.227131
v -6.973028 2.144439 -1.227131
v -6.973028 2.144439 1.054532
v -6.973028 3.058322 -0.086299
v -7.616739 3.058322 -0.086299
v -7.616739 2.223749 0.931933
v -6.973028 2.223749 0.931933
v -7.616739 2.223749 -1.104532
v -6.973028 2.223749 -1.104532
v -6.973028 2.144439 0.931933
v -6.973028 2.144439 -1.104532
v -7.616739 2.187349 0.931933
v -7.553935 2.187349 0.931933
v -7.553935 2.223749 0.886494
v -7.616739 2.223749 0.886494
v -7.616739 2.144439 0.985500
v -7.553935 2.144439 0.985500
v -7.616739 3.003022 -0.086299
v -7.553935 2.144439 0.931933
v -7.553935 2.223749 -1.059092
v -7.553935 2.144439 -1.104532
v -7.553935 2.187349 -1.104532
v -7.553935 2.144439 -1.158098
v -7.616739 2.144439 -1.158098
v -7.616739 2.223749 -1.059092
v -7.616739 2.187349 -1.104532
v -7.553935 3.003022 -0.086299
v -1.023390 2.171039 -8.363846
v 1.258273 2.171039 -8.363846
v 1.258273 2.171040 -7.720135
v -1.023390 2.171040 -7.720135
v 0.117442 3.084923 -7.720135
v 0.117442 3.084923 -8.363846
v -0.900791 2.250350 -8.363846
v -0.900791 2.250350 -7.720135
v 1.135674 2.250350 -8.363846
v 1.135674 2.250350 -7.720135
v -0.900791 2.171040 -7.720135
v 1.135674 2.171040 -7.720135
v -0.900791 2.213949 -8.363846
v -0.900791 2.213949 -8.301042
v -0.855351 2.250350 -8.301042
v -0.855351 2.250350 -8.363846
v -0.954357 2.171039 -8.363846
v -0.954357 2.171039 -8.301042
v 0.117442 3.029623 -8.363846
v -0.900791 2.171039 -8.301042
v 1.090234 2.250350 -8.301042
v 1.135674 2.171039 -8.301042
v 1.135674 2.213949 -8.301042
v 1.189240 2.171039 -8.301042
v 1.189240 2.171039 -8.363846
v 1.090234 2.250350 -8.363846
v 1.135674 2.213949 -8.363846
v 0.117442 3.029623 -8.301042
vt 0.002528 0.000763
vt 0.999085 0.000763
vt 0.999085 0.573617
vt 0.002528 0.573617
vt 0.002528 0.000763
vt 0.999085 0.000763
vt 0.999085 0.573617
vt 0.002528 0.573617
vt 0.002528 0.000763
vt 0.999085 0.000763
vt 0.999085 0.573617
vt 0.002528 0.573617
vt 0.002528 0.000763
vt 0.999085 0.000763
vt 0.999085 0.573617
vt 0.002528 0.573617
vt 0.064161 0.577905
vt 0.212658 0.577905
vt 0.759878 0.577905
vt 0.783474 0.577905
vt 0.493514 0.997720
vt 0.479809 0.997720
vt 0.415326 0.998283
vt 0.433341 0.998283
vt 0.432825 0.998236
vt 0.414810 0.998236
vt 0.001733 0.577125
vt 0.785440 0.577125
vt 0.623066 0.997528
vt 0.164108 0.997528
vt 0.064677 0.577953
vt 0.783990 0.577953
vt 0.001373 0.578359
vt 0.785079 0.578359
vt 0.622705 0.998763
vt 0.163747 0.998763
vt 0.797339 0.581673
vt 0.998017 0.581673
vt 0.998017 0.994873
vt 0.797339 0.994873
vt 0.797339 0.581673
vt 0.998017 0.581673
vt 0.998017 0.994873
vt 0.797339 0.994873
vt 0.797339 0.581673
vt 0.998017 0.581673
vt 0.998017 0.994873
vt 0.797339 0.994873
vt 0.797339 0.581673
vt 0.998017 0.581673
vt 0.998017 0.994873
vt 0.797339 0.994873
vt 0.797339 0.581673
vt 0.998017 0.581673
vt 0.998017 0.994873
vt 0.797339 0.994873
vt 0.797339 0.581673
vt 0.998017 0.581673
vt 0.998017 0.994873
vt 0.797339 0.994873
vt 0.797339 0.581673
vt 0.998017 0.581673
vt 0.998017 0.994873
vt 0.797339 0.994873
vt 0.797339 0.581673
vt 0.998017 0.581673
vt 0.998017 0.994873
vt 0.797339 0.994873
vt 0.797339 0.581673
vt 0.998017 0.581673
vt 0.998017 0.994873
vt 0.797339 0.994873
vt 0.797339 0.581673
vt 0.998017 0.581673
vt 0.998017 0.994873
vt 0.797339 0.994873
vt 0.797339 0.581673
vt 0.998017 0.581673
vt 0.998017 0.994873
vt 0.797339 0.994873
vt 0.797339 0.581673
vt 0.998017 0.581673
vt 0.998017 0.994873
vt 0.797339 0.994873
vt 0.797339 0.581673
vt 0.998017 0.581673
vt 0.998017 0.994873
vt 0.797339 0.994873
vt 0.797339 0.581673
vt 0.998017 0.581673
vt 0.998017 0.994873
vt 0.797339 0.994873
vt 0.797339 0.581673
vt 0.998017 0.581673
vt 0.998017 0.994873
vt 0.797339 0.994873
vt 0.797339 0.581673
vt 0.998017 0.581673
vt 0.998017 0.994873
vt 0.797339 0.994873
vt 0.524814 0.142236
vt 0.533749 0.142236
vt 0.533749 0.203588
vt 0.524814 0.203588
vt 0.524814 0.142236
vt 0.533749 0.142236
vt 0.533749 0.203588
vt 0.524814 0.203588
vt 0.524814 0.142236
vt 0.533749 0.142236
vt 0.533749 0.203588
vt 0.524814 0.203588
vt 0.524814 0.142236
vt 0.533749 0.142236
vt 0.533749 0.203588
vt 0.524814 0.203588
vt 0.524814 0.142236
vt 0.533749 0.142236
vt 0.533749 0.203588
vt 0.524814 0.203588
vt 0.524814 0.142236
vt 0.533749 0.142236
vt 0.533749 0.203588
vt 0.524814 0.203588
vt 0.524814 0.142236
vt 0.533749 0.142236
vt 0.533749 0.203588
vt 0.524814 0.203588
vt 0.524814 0.142236
vt 0.533749 0.142236
vt 0.533749 0.203588
vt 0.524814 0.203588
vt 0.524814 0.142236
vt 0.533749 0.142236
vt 0.533749 0.203588
vt 0.524814 0.203588
vt 0.524814 0.142236
vt 0.533749 0.142236
vt 0.533749 0.203588
vt 0.524814 0.203588
vt 0.524814 0.142236
vt 0.533749 0.142236
vt 0.533749 0.203588
vt 0.524814 0.203588
vt 0.524814 0.142236
vt 0.533749 0.142236
vt 0.533749 0.203588
vt 0.524814 0.203588
vt 0.524814 0.142236
vt 0.533749 0.142236
vt 0.533749 0.203588
vt 0.524814 0.203588
vt 0.524814 0.142236
vt 0.533749 0.142236
vt 0.533749 0.203588
vt 0.524814 0.203588
vt 0.524814 0.142236
vt 0.533749 0.142236
vt 0.533749 0.203588
vt 0.524814 0.203588
vt 0.524814 0.142236
vt 0.533749 0.142236
vt 0.533749 0.203588
vt 0.524814 0.203588
vt 0.152492 0.904639
vt 0.063499 0.904639
vt 0.063499 0.828056
vt 0.152492 0.828056
vt 0.152492 0.981223
vt 0.063499 0.981223
vt 0.733000 0.002000
vt 0.751136 0.002000
vt 0.733000 0.017016
vt 0.351253 0.364140
vt 0.351253 0.356858
vt 0.344028 0.356858
vt 0.344028 0.364140
vt 0.625917 0.356858
vt 0.625917 0.364140
vt 0.633141 0.364140
vt 0.633141 0.356858
vt 0.025373 0.002000
vt 0.043509 0.002000
vt 0.043509 0.017016
vt 0.619788 0.356858
vt 0.488585 0.356858
vt 0.488585 0.364140
vt 0.619788 0.364140
vt 0.431438 0.224345
vt 0.551764 0.224345
vt 0.491601 0.273279
vt 0.357381 0.364140
vt 0.357381 0.356858
vt 0.854023 0.315051
vt 0.924301 0.315051
vt 0.924301 0.329549
vt 0.931899 0.329549
vt 0.931899 0.341848
vt 0.854023 0.341848
vt 0.351253 0.356858
vt 0.351253 0.289508
vt 0.334718 0.289508
vt 0.334718 0.364140
vt 0.625917 0.364140
vt 0.625917 0.289508
vt 0.351253 0.364140
vt 0.351253 0.289508
vt 0.779133 0.329549
vt 0.779133 0.315051
vt 0.849412 0.315051
vt 0.849412 0.341848
vt 0.771535 0.341848
vt 0.771535 0.329549
vt 0.625917 0.289508
vt 0.625917 0.356858
vt 0.642452 0.364140
vt 0.642452 0.289508
vt 0.413287 0.045452
vt 0.446539 0.023837
vt 0.448092 0.023837
vt 0.448092 0.022827
vt 0.449923 0.021637
vt 0.452282 0.021637
vt 0.413287 0.046986
vt 0.374291 0.021637
vt 0.376651 0.021637
vt 0.378482 0.022827
vt 0.378482 0.023837
vt 0.380035 0.023837
vt 0.152492 0.904639
vt 0.063499 0.904639
vt 0.063499 0.828056
vt 0.152492 0.828056
vt 0.152492 0.981223
vt 0.063499 0.981223
vt 0.733000 0.002000
vt 0.751136 0.002000
vt 0.733000 0.017016
vt 0.351253 0.364140
vt 0.351253 0.356858
vt 0.344028 0.356858
vt 0.344028 0.364140
vt 0.625917 0.356858
vt 0.625917 0.364140
vt 0.633141 0.364140
vt 0.633141 0.356858
vt 0.025373 0.002000
vt 0.043509 0.002000
vt 0.043509 0.017016
vt 0.619788 0.356858
vt 0.488585 0.356858
vt 0.488585 0.364140
vt 0.619788 0.364140
vt 0.431438 0.224345
vt 0.551764 0.224345
vt 0.491601 0.273279
vt 0.357381 0.364140
vt 0.357381 0.356858
vt 0.854023 0.315051
vt 0.924301 0.315051
vt 0.924301 0.329549
vt 0.931899 0.329549
vt 0.931899 0.341848
vt 0.854023 0.341848
vt 0.351253 0.356858
vt 0.351253 0.289508
vt 0.334718 0.289508
vt 0.334718 0.364140
vt 0.625917 0.364140
vt 0.625917 0.289508
vt 0.351253 0.364140
vt 0.351253 0.289508
vt 0.779133 0.329549
vt 0.779133 0.315051
vt 0.849412 0.315051
vt 0.849412 0.341848
vt 0.771535 0.341848
vt 0.771535 0.329549
vt 0.625917 0.289508
vt 0.625917 0.356858
vt 0.642452 0.364140
vt 0.642452 0.289508
vt 0.413287 0.045452
vt 0.446539 0.023837
vt 0.448092 0.023837
vt 0.448092 0.022827
vt 0.449923 0.021637
vt 0.452282 0.021637
vt 0.413287 0.046986
vt 0.374291 0.021637
vt 0.376651 0.021637
vt 0.378482 0.022827
vt 0.378482 0.023837
vt 0.380035 0.023837
vn 0.0000 0.0000 1.0000
vn 1.0000 0.0000 0.0000
vn 0.0000 -0.0000 -1.0000
vn -1.0000 -0.0000 0.0000
vn 0.0000 -1.0000 0.0000
vn 0.0000 1.0000 0.0000
vn 0.0000 0.7954 0.6061
vn 0.3299 0.9440 -0.0000
vn 0.0000 0.7954 -0.6061
vn -0.3299 0.9440 -0.0000
vn 0.8561 0.5168 0.0000
vn -0.8561 -0.5168 0.0000
vn 0.0000 0.5168 0.8561
vn 0.0000 -0.5168 -0.8561
vn 0.0000 0.7805 0.6252
vn 0.0000 0.7805 -0.6252
vn 0.0000 -0.7805 -0.6252
vn 0.0000 -0.7805 0.6252
vn -0.6252 0.7805 -0.0000
vn 0.6252 0.7805 0.0000
vn 0.6252 -0.7805 0.0000
vn -0.6252 -0.7805 0.0000
usemtl 01_-_Default
s 1
f 1/1/1 2/2/1 6/3/1
f 6/3/1 5/4/1 1/1/1
f 2/5/2 4/6/2 8/7/2
f 8/7/2 6/8/2 2/5/2
f 4/9/3 3/10/3 7/11/3
f 7/11/3 8/12/3 4/9/3
f 3/13/4 1/14/4 5/15/4
f 5/15/4 7/16/4 3/13/4
f 9/17/5 11/18/5 12/19/5
f 12/19/5 10/20/5 9/17/5
f 13/21/6 14/22/6 16/23/6
f 16/23/6 15/24/6 13/21/6
f 9/17/7 10/20/7 14/25/7
f 14/25/7 13/26/7 9/17/7
f 10/27/8 12/28/8 16/29/8
f 16/29/8 14/30/8 10/27/8
f 12/31/9 11/32/9 15/24/9
f 15/24/9 16/23/9 12/31/9
f 11/33/10 9/34/10 13/35/10
f 13/35/10 15/36/10 11/33/10
f 17/37/1 18/38/1 22/39/1
f 22/39/1 21/40/1 17/37/1
f 18/41/2 20/42/2 24/43/2
f 24/43/2 22/44/2 18/41/2
f 20/45/3 19/46/3 23/47/3
f 23/47/3 24/48/3 20/45/3
f 19/49/4 17/50/4 21/51/4
f 21/51/4 23/52/4 19/49/4
f 25/53/1 26/54/1 30/55/1
f 30/55/1 29/56/1 25/53/1
f 26/57/2 28/58/2 32/59/2
f 32/59/2 30/60/2 26/57/2
f 28/61/3 27/62/3 31/63/3
f 31/63/3 32/64/3 28/61/3
f 27/65/4 25/66/4 29/67/4
f 29/67/4 31/68/4 27/65/4
f 33/69/1 34/70/1 38/71/1
f 38/71/1 37/72/1 33/69/1
f 34/73/2 36/74/2 40/75/2
f 40/75/2 38/76/2 34/73/2
f 36/77/3 35/78/3 39/79/3
f 39/79/3 40/80/3 36/77/3
f 35/81/4 33/82/4 37/83/4
f 37/83/4 39/84/4 35/81/4
f 41/85/1 42/86/1 46/87/1
f 46/87/1 45/88/1 41/85/1
f 42/89/2 44/90/2 48/91/2
f 48/91/2 46/92/2 42/89/2
f 44/93/3 43/94/3 47/95/3
f 47/95/3 48/96/3 44/93/3
f 43/97/4 41/98/4 45/99/4
f 45/99/4 47/100/4 43/97/4
f 49/101/1 50/102/1 54/103/1
f 54/103/1 53/104/1 49/101/1
f 50/105/11 52/106/11 56/107/11
f 56/107/11 54/108/11 50/105/11
f 52/109/3 51/110/3 55/111/3
f 55/111/3 56/112/3 52/109/3
f 51/113/12 49/114/12 53/115/12
f 53/115/12 55/116/12 51/113/12
f 57/117/1 58/118/1 62/119/1
f 62/119/1 61/120/1 57/117/1
f 58/121/11 60/122/11 64/123/11
f 64/123/11 62/124/11 58/121/11
f 60/125/3 59/126/3 63/127/3
f 63/127/3 64/128/3 60/125/3
f 59/129/12 57/130/12 61/131/12
f 61/131/12 63/132/12 59/129/12
f 65/133/4 66/134/4 70/135/4
f 70/135/4 69/136/4 65/133/4
f 66/137/13 68/138/13 72/139/13
f 72/139/13 70/140/13 66/137/13
f 68/141/2 67/142/2 71/143/2
f 71/143/2 72/144/2 68/141/2
f 67/145/14 65/146/14 69/147/14
f 69/147/14 71/148/14 67/145/14
f 73/149/4 74/150/4 78/151/4
f 78/151/4 77/152/4 73/149/4
f 74/153/13 76/154/13 80/155/13
f 80/155/13 78/156/13 74/153/13
f 76/157/2 75/158/2 79/159/2
f 79/159/2 80/160/2 76/157/2
f 75/161/14 73/162/14 77/163/14
f 77/163/14 79/164/14 75/161/14
f 85/165/15 86/166/15 81/167/15
f 81/167/15 84/168/15 85/165/15
f 86/166/16 85/165/16 83/169/16
f 83/169/16 82/170/16 86/166/16
f 100/171/4 98/172/4 94/173/4
f 93/174/17 94/175/17 98/176/17
f 98/176/17 97/177/17 93/174/17
f 103/178/18 107/179/18 105/180/18
f 105/180/18 104/181/18 103/178/18
f 104/182/4 102/183/4 103/184/4
f 101/185/18 108/186/18 99/187/18
f 99/187/18 106/188/18 101/185/18
f 101/189/4 95/190/4 108/191/4
f 96/192/17 99/187/17 108/186/17
f 108/186/17 95/193/17 96/192/17
f 91/194/3 100/195/3 94/196/3
f 94/196/3 93/197/3 87/198/3
f 91/194/3 94/196/3 87/198/3
f 91/194/3 87/198/3 88/199/3
f 98/176/5 100/200/5 91/201/5
f 98/176/5 91/201/5 84/202/5
f 98/176/5 84/202/5 81/203/5
f 98/176/5 81/203/5 97/177/5
f 101/185/5 106/188/5 89/204/5
f 101/185/5 89/204/5 90/205/5
f 87/206/5 96/192/5 95/193/5
f 88/207/5 87/206/5 95/193/5
f 90/205/5 88/207/5 95/193/5
f 101/185/5 90/205/5 95/193/5
f 103/208/1 102/209/1 92/210/1
f 103/208/1 92/210/1 90/211/1
f 103/208/1 90/211/1 89/212/1
f 103/208/1 89/212/1 107/213/1
f 92/214/5 102/215/5 104/181/5
f 104/181/5 105/180/5 82/216/5
f 92/214/5 104/181/5 82/216/5
f 92/214/5 82/216/5 83/217/5
f 99/218/4 96/219/4 87/220/4
f 87/220/4 93/221/4 97/222/4
f 87/220/4 97/222/4 81/223/4
f 99/218/4 87/220/4 81/223/4
f 99/218/4 81/223/4 86/224/4
f 82/225/4 105/226/4 107/227/4
f 82/225/4 107/227/4 89/228/4
f 86/224/4 82/225/4 89/228/4
f 99/218/4 86/224/4 89/228/4
f 99/218/4 89/228/4 106/229/4
f 113/230/19 114/231/19 109/232/19
f 109/232/19 112/233/19 113/230/19
f 114/231/20 113/230/20 111/234/20
f 111/234/20 110/235/20 114/231/20
f 128/236/3 126/237/3 122/238/3
f 121/239/21 122/240/21 126/241/21
f 126/241/21 125/242/21 121/239/21
f 131/243/22 135/244/22 133/245/22
f 133/245/22 132/246/22 131/243/22
f 132/247/3 130/248/3 131/249/3
f 129/250/22 136/251/22 127/252/22
f 127/252/22 134/253/22 129/250/22
f 129/254/3 123/255/3 136/256/3
f 124/257/21 127/252/21 136/251/21
f 136/251/21 123/258/21 124/257/21
f 119/259/2 128/260/2 122/261/2
f 122/261/2 121/262/2 115/263/2
f 119/259/2 122/261/2 115/263/2
f 119/259/2 115/263/2 116/264/2
f 126/241/5 128/265/5 119/266/5
f 126/241/5 119/266/5 112/267/5
f 126/241/5 112/267/5 109/268/5
f 126/241/5 109/268/5 125/242/5
f 129/250/5 134/253/5 117/269/5
f 129/250/5 117/269/5 118/270/5
f 115/271/5 124/257/5 123/258/5
f 116/272/5 115/271/5 123/258/5
f 118/270/5 116/272/5 123/258/5
f 129/250/5 118/270/5 123/258/5
f 131/273/4 130/274/4 120/275/4
f 131/273/4 120/275/4 118/276/4
f 131/273/4 118/276/4 117/277/4
f 131/273/4 117/277/4 135/278/4
f 120/279/5 130/280/5 132/246/5
f 132/246/5 133/245/5 110/281/5
f 120/279/5 132/246/5 110/281/5
f 120/279/5 110/281/5 111/282/5
f 127/283/3 124/284/3 115/285/3
f 115/285/3 121/286/3 125/287/3
f 115/285/3 125/287/3 109/288/3
f 127/283/3 115/285/3 109/288/3
f 127/283/3 109/288/3 114/289/3
f 110/290/3 133/291/3 135/292/3
f 110/290/3 135/292/3 117/293/3
f 114/289/3 110/290/3 117/293/3
f 127/283/3 114/289/3 117/293/3
f 127/283/3 117/293/3 134/294/3
