ply
format ascii 1.0
comment Created by Blender 2.79 (sub 0) - www.blender.org, source file: ''
element vertex 294
property float x
property float y
property float z
property float nx
property float ny
property float nz
property float s
property float t
element face 178
property list uchar uint vertex_indices
end_header
-0.463083 -0.525972 -0.338860 -0.707083 -0.707083 0.000000 0.002528 0.000763
0.468812 -0.525972 -0.338860 0.707083 -0.707083 0.000000 0.999085 0.000763
0.468812 -0.525972 0.061140 0.707083 -0.707083 0.000000 0.999085 0.573617
-0.463083 -0.525972 0.061140 -0.707083 -0.707083 0.000000 0.002528 0.573617
0.468812 -0.525972 -0.338860 0.707083 -0.707083 0.000000 0.002528 0.000763
0.468812 0.519458 -0.338860 0.707083 0.707083 0.000000 0.999085 0.000763
0.468812 0.519458 0.061140 0.707083 0.707083 0.000000 0.999085 0.573617
0.468812 -0.525972 0.061140 0.707083 -0.707083 0.000000 0.002528 0.573617
0.468812 0.519458 -0.338860 0.707083 0.707083 0.000000 0.002528 0.000763
-0.463083 0.519458 -0.338860 -0.707083 0.707083 0.000000 0.999085 0.000763
-0.463083 0.519458 0.061140 -0.707083 0.707083 0.000000 0.999085 0.573617
0.468812 0.519458 0.061140 0.707083 0.707083 0.000000 0.002528 0.573617
-0.463083 0.519458 -0.338860 -0.707083 0.707083 0.000000 0.002528 0.000763
-0.463083 -0.525972 -0.338860 -0.707083 -0.707083 0.000000 0.999085 0.000763
-0.463083 -0.525972 0.061140 -0.707083 -0.707083 0.000000 0.999085 0.573617
-0.463083 0.519458 0.061140 -0.707083 0.707083 0.000000 0.002528 0.573617
-0.486380 -0.536427 0.061140 -0.764946 -0.633747 -0.114780 0.064161 0.577905
-0.486380 0.529912 0.061140 -0.764946 0.633747 -0.114780 0.212658 0.577905
0.492109 0.529912 0.061140 0.764946 0.633747 -0.114780 0.759878 0.577905
0.492109 -0.536427 0.061140 0.764946 -0.633747 -0.114780 0.783474 0.577905
-0.009389 -0.315495 0.227807 -0.112980 -0.272164 0.955565 0.493514 0.997720
0.015117 -0.315495 0.227807 0.112980 -0.272164 0.955565 0.479809 0.997720
0.015117 0.308980 0.227807 0.112980 0.272164 0.955565 0.415326 0.998283
-0.009389 0.308980 0.227807 -0.112980 0.272164 0.955565 0.433341 0.998283
0.015117 -0.315495 0.227807 0.112980 -0.272164 0.955565 0.432825 0.998236
-0.009389 -0.315495 0.227807 -0.112980 -0.272164 0.955565 0.414810 0.998236
0.492109 -0.536427 0.061140 0.764946 -0.633747 -0.114780 0.001733 0.577125
0.492109 0.529912 0.061140 0.764946 0.633747 -0.114780 0.785440 0.577125
0.015117 0.308980 0.227807 0.112980 0.272164 0.955565 0.623066 0.997528
0.015117 -0.315495 0.227807 0.112980 -0.272164 0.955565 0.164108 0.997528
0.492109 0.529912 0.061140 0.764946 0.633747 -0.114780 0.064677 0.577953
-0.486380 0.529912 0.061140 -0.764946 0.633747 -0.114780 0.783990 0.577953
-0.486380 0.529912 0.061140 -0.764946 0.633747 -0.114780 0.001373 0.578359
-0.486380 -0.536427 0.061140 -0.764946 -0.633747 -0.114780 0.785079 0.578359
-0.009389 -0.315495 0.227807 -0.112980 -0.272164 0.955565 0.622705 0.998763
-0.009389 0.308980 0.227807 -0.112980 0.272164 0.955565 0.163747 0.998763
-0.286108 0.195176 0.127021 -0.707083 -0.707083 0.000000 0.797339 0.581673
-0.222392 0.195176 0.127021 0.707083 -0.707083 0.000000 0.998017 0.581673
-0.222392 0.195176 0.216950 0.707083 -0.707083 0.000000 0.998017 0.994873
-0.286108 0.195176 0.216950 -0.707083 -0.707083 0.000000 0.797339 0.994873
-0.222392 0.195176 0.127021 0.707083 -0.707083 0.000000 0.797339 0.581673
-0.222392 0.221965 0.127021 0.707083 0.707083 0.000000 0.998017 0.581673
-0.222392 0.221965 0.216950 0.707083 0.707083 0.000000 0.998017 0.994873
-0.222392 0.195176 0.216950 0.707083 -0.707083 0.000000 0.797339 0.994873
-0.222392 0.221965 0.127021 0.707083 0.707083 0.000000 0.797339 0.581673
-0.286108 0.221965 0.127021 -0.707083 0.707083 0.000000 0.998017 0.581673
-0.286108 0.221965 0.216950 -0.707083 0.707083 0.000000 0.998017 0.994873
-0.222392 0.221965 0.216950 0.707083 0.707083 0.000000 0.797339 0.994873
-0.286108 0.221965 0.127021 -0.707083 0.707083 0.000000 0.797339 0.581673
-0.286108 0.195176 0.127021 -0.707083 -0.707083 0.000000 0.998017 0.581673
-0.286108 0.195176 0.216950 -0.707083 -0.707083 0.000000 0.998017 0.994873
-0.286108 0.221965 0.216950 -0.707083 0.707083 0.000000 0.797339 0.994873
0.215353 0.195176 0.127021 -0.707083 -0.707083 0.000000 0.797339 0.581673
0.279069 0.195176 0.127021 0.707083 -0.707083 0.000000 0.998017 0.581673
0.279069 0.195176 0.216950 0.707083 -0.707083 0.000000 0.998017 0.994873
0.215353 0.195176 0.216950 -0.707083 -0.707083 0.000000 0.797339 0.994873
0.279069 0.195176 0.127021 0.707083 -0.707083 0.000000 0.797339 0.581673
0.279069 0.221965 0.127021 0.707083 0.707083 0.000000 0.998017 0.581673
0.279069 0.221965 0.216950 0.707083 0.707083 0.000000 0.998017 0.994873
0.279069 0.195176 0.216950 0.707083 -0.707083 0.000000 0.797339 0.994873
0.279069 0.221965 0.127021 0.707083 0.707083 0.000000 0.797339 0.581673
0.215353 0.221965 0.127021 -0.707083 0.707083 0.000000 0.998017 0.581673
0.215353 0.221965 0.216950 -0.707083 0.707083 0.000000 0.998017 0.994873
0.279069 0.221965 0.216950 0.707083 0.707083 0.000000 0.797339 0.994873
0.215353 0.221965 0.127021 -0.707083 0.707083 0.000000 0.797339 0.581673
0.215353 0.195176 0.127021 -0.707083 -0.707083 0.000000 0.998017 0.581673
0.215353 0.195176 0.216950 -0.707083 -0.707083 0.000000 0.998017 0.994873
0.215353 0.221965 0.216950 -0.707083 0.707083 0.000000 0.797339 0.994873
0.215353 -0.219428 0.127021 -0.707083 -0.707083 0.000000 0.797339 0.581673
0.279069 -0.219428 0.127021 0.707083 -0.707083 0.000000 0.998017 0.581673
0.279069 -0.219428 0.216950 0.707083 -0.707083 0.000000 0.998017 0.994873
0.215353 -0.219428 0.216950 -0.707083 -0.707083 0.000000 0.797339 0.994873
0.279069 -0.219428 0.127021 0.707083 -0.707083 0.000000 0.797339 0.581673
0.279069 -0.192639 0.127021 0.707083 0.707083 0.000000 0.998017 0.581673
0.279069 -0.192639 0.216950 0.707083 0.707083 0.000000 0.998017 0.994873
0.279069 -0.219428 0.216950 0.707083 -0.707083 0.000000 0.797339 0.994873
0.279069 -0.192639 0.127021 0.707083 0.707083 0.000000 0.797339 0.581673
0.215353 -0.192639 0.127021 -0.707083 0.707083 0.000000 0.998017 0.581673
0.215353 -0.192639 0.216950 -0.707083 0.707083 0.000000 0.998017 0.994873
0.279069 -0.192639 0.216950 0.707083 0.707083 0.000000 0.797339 0.994873
0.215353 -0.192639 0.127021 -0.707083 0.707083 0.000000 0.797339 0.581673
0.215353 -0.219428 0.127021 -0.707083 -0.707083 0.000000 0.998017 0.581673
0.215353 -0.219428 0.216950 -0.707083 -0.707083 0.000000 0.998017 0.994873
0.215353 -0.192639 0.216950 -0.707083 0.707083 0.000000 0.797339 0.994873
-0.286108 -0.219428 0.127021 -0.707083 -0.707083 0.000000 0.797339 0.581673
-0.222392 -0.219428 0.127021 0.707083 -0.707083 0.000000 0.998017 0.581673
-0.222392 -0.219428 0.216950 0.707083 -0.707083 0.000000 0.998017 0.994873
-0.286108 -0.219428 0.216950 -0.707083 -0.707083 0.000000 0.797339 0.994873
-0.222392 -0.219428 0.127021 0.707083 -0.707083 0.000000 0.797339 0.581673
-0.222392 -0.192639 0.127021 0.707083 0.707083 0.000000 0.998017 0.581673
-0.222392 -0.192639 0.216950 0.707083 0.707083 0.000000 0.998017 0.994873
-0.222392 -0.219428 0.216950 0.707083 -0.707083 0.000000 0.797339 0.994873
-0.222392 -0.192639 0.127021 0.707083 0.707083 0.000000 0.797339 0.581673
-0.286108 -0.192639 0.127021 -0.707083 0.707083 0.000000 0.998017 0.581673
-0.286108 -0.192639 0.216950 -0.707083 0.707083 0.000000 0.998017 0.994873
-0.222392 -0.192639 0.216950 0.707083 0.707083 0.000000 0.797339 0.994873
-0.286108 -0.192639 0.127021 -0.707083 0.707083 0.000000 0.797339 0.581673
-0.286108 -0.219428 0.127021 -0.707083 -0.707083 0.000000 0.998017 0.581673
-0.286108 -0.219428 0.216950 -0.707083 -0.707083 0.000000 0.998017 0.994873
-0.286108 -0.192639 0.216950 -0.707083 0.707083 0.000000 0.797339 0.994873
-0.463315 -0.042831 -0.240878 -0.622059 -0.687033 -0.375500 0.524814 0.142236
-0.457778 -0.042831 -0.236852 0.589099 -0.725578 0.355602 0.533749 0.142236
-0.489279 -0.042831 -0.184669 0.622059 -0.687033 0.375500 0.533749 0.203588
-0.494816 -0.042831 -0.188696 -0.589099 -0.725578 -0.355602 0.524814 0.203588
-0.457778 -0.042831 -0.236852 0.589099 -0.725578 0.355602 0.524814 0.142236
-0.457778 -0.037930 -0.236852 0.589099 0.725578 0.355602 0.533749 0.142236
-0.489279 -0.037930 -0.184669 0.622059 0.687033 0.375500 0.533749 0.203588
-0.489279 -0.042831 -0.184669 0.622059 -0.687033 0.375500 0.524814 0.203588
-0.457778 -0.037930 -0.236852 0.589099 0.725578 0.355602 0.524814 0.142236
-0.463315 -0.037930 -0.240878 -0.622059 0.687033 -0.375500 0.533749 0.142236
-0.494816 -0.037930 -0.188696 -0.589099 0.725578 -0.355602 0.533749 0.203588
-0.489279 -0.037930 -0.184669 0.622059 0.687033 0.375500 0.524814 0.203588
-0.463315 -0.037930 -0.240878 -0.622059 0.687033 -0.375500 0.524814 0.142236
-0.463315 -0.042831 -0.240878 -0.622059 -0.687033 -0.375500 0.533749 0.142236
-0.494816 -0.042831 -0.188696 -0.589099 -0.725578 -0.355602 0.533749 0.203588
-0.494816 -0.037930 -0.188696 -0.589099 0.725578 -0.355602 0.524814 0.203588
-0.463315 0.048591 -0.240878 -0.622059 -0.687033 -0.375500 0.524814 0.142236
-0.457778 0.048591 -0.236852 0.589099 -0.725578 0.355602 0.533749 0.142236
-0.489279 0.048591 -0.184669 0.622059 -0.687033 0.375500 0.533749 0.203588
-0.494816 0.048591 -0.188696 -0.589099 -0.725578 -0.355602 0.524814 0.203588
-0.457778 0.048591 -0.236852 0.589099 -0.725578 0.355602 0.524814 0.142236
-0.457778 0.053492 -0.236852 0.589099 0.725578 0.355602 0.533749 0.142236
-0.489279 0.053492 -0.184669 0.622059 0.687033 0.375500 0.533749 0.203588
-0.489279 0.048591 -0.184669 0.622059 -0.687033 0.375500 0.524814 0.203588
-0.457778 0.053492 -0.236852 0.589099 0.725578 0.355602 0.524814 0.142236
-0.463315 0.053492 -0.240878 -0.622059 0.687033 -0.375500 0.533749 0.142236
-0.494816 0.053492 -0.188696 -0.589099 0.725578 -0.355602 0.533749 0.203588
-0.489279 0.053492 -0.184669 0.622059 0.687033 0.375500 0.524814 0.203588
-0.463315 0.053492 -0.240878 -0.622059 0.687033 -0.375500 0.524814 0.142236
-0.463315 0.048591 -0.240878 -0.622059 -0.687033 -0.375500 0.533749 0.142236
-0.494816 0.048591 -0.188696 -0.589099 -0.725578 -0.355602 0.533749 0.203588
-0.494816 0.053492 -0.188696 -0.589099 0.725578 -0.355602 0.524814 0.203588
0.057455 0.519935 -0.239105 -0.689230 0.618580 -0.377148 0.524814 0.142236
0.057455 0.514342 -0.235079 -0.723685 -0.589221 0.359233 0.533749 0.142236
0.057455 0.546158 -0.182896 -0.689230 -0.618580 0.377148 0.533749 0.203588
0.057455 0.551751 -0.186922 -0.723685 0.589221 -0.359233 0.524814 0.203588
0.057455 0.514342 -0.235079 -0.723685 -0.589221 0.359233 0.524814 0.142236
0.062308 0.514342 -0.235079 0.723685 -0.589221 0.359233 0.533749 0.142236
0.062308 0.546158 -0.182896 0.689230 -0.618580 0.377148 0.533749 0.203588
0.057455 0.546158 -0.182896 -0.689230 -0.618580 0.377148 0.524814 0.203588
0.062308 0.514342 -0.235079 0.723685 -0.589221 0.359233 0.524814 0.142236
0.062308 0.519935 -0.239105 0.689230 0.618580 -0.377148 0.533749 0.142236
0.062308 0.551751 -0.186922 0.723685 0.589221 -0.359233 0.533749 0.203588
0.062308 0.546158 -0.182896 0.689230 -0.618580 0.377148 0.524814 0.203588
0.062308 0.519935 -0.239105 0.689230 0.618580 -0.377148 0.524814 0.142236
0.057455 0.519935 -0.239105 -0.689230 0.618580 -0.377148 0.533749 0.142236
0.057455 0.551751 -0.186922 -0.723685 0.589221 -0.359233 0.533749 0.203588
0.062308 0.551751 -0.186922 0.723685 0.589221 -0.359233 0.524814 0.203588
-0.033061 0.519935 -0.239105 -0.689230 0.618580 -0.377148 0.524814 0.142236
-0.033061 0.514342 -0.235079 -0.723685 -0.589221 0.359233 0.533749 0.142236
-0.033061 0.546158 -0.182896 -0.689230 -0.618580 0.377148 0.533749 0.203588
-0.033061 0.551751 -0.186922 -0.723685 0.589221 -0.359233 0.524814 0.203588
-0.033061 0.514342 -0.235079 -0.723685 -0.589221 0.359233 0.524814 0.142236
-0.028209 0.514342 -0.235079 0.723685 -0.589221 0.359233 0.533749 0.142236
-0.028209 0.546158 -0.182896 0.689230 -0.618580 0.377148 0.533749 0.203588
-0.033061 0.546158 -0.182896 -0.689230 -0.618580 0.377148 0.524814 0.203588
-0.028209 0.514342 -0.235079 0.723685 -0.589221 0.359233 0.524814 0.142236
-0.028209 0.519935 -0.239105 0.689230 0.618580 -0.377148 0.533749 0.142236
-0.028209 0.551751 -0.186922 0.723685 0.589221 -0.359233 0.533749 0.203588
-0.028209 0.546158 -0.182896 0.689230 -0.618580 0.377148 0.524814 0.203588
-0.028209 0.519935 -0.239105 0.689230 0.618580 -0.377148 0.524814 0.142236
-0.033061 0.519935 -0.239105 -0.689230 0.618580 -0.377148 0.533749 0.142236
-0.033061 0.551751 -0.186922 -0.723685 0.589221 -0.359233 0.533749 0.203588
-0.028209 0.551751 -0.186922 0.723685 0.589221 -0.359233 0.524814 0.203588
-0.460402 0.002981 -0.133017 0.000000 0.000000 1.000000 0.152492 0.904639
-0.503316 0.002981 -0.133017 -0.590381 0.000000 0.807092 0.063499 0.904639
-0.503316 -0.073835 -0.193943 -0.544206 -0.792199 -0.276009 0.063499 0.828056
-0.460402 -0.073835 -0.193943 0.000000 -0.944304 -0.329020 0.152492 0.828056
-0.460402 0.079797 -0.193943 0.000000 0.944304 -0.329020 0.152492 0.981223
-0.503316 0.079797 -0.193943 -0.544206 0.792199 -0.276009 0.063499 0.981223
-0.499129 -0.065580 -0.193943 -0.577349 0.577349 -0.577349 0.733000 0.002000
-0.499129 -0.069187 -0.193943 -0.110630 0.161046 -0.980712 0.751136 0.002000
-0.499129 -0.065580 -0.191082 -0.152837 0.965880 -0.208960 0.733000 0.017016
-0.503316 -0.065580 -0.191082 -0.621021 0.705679 -0.340983 0.351253 0.364140
-0.499129 -0.065580 -0.191082 -0.152837 0.965880 -0.208960 0.351253 0.356858
-0.499129 -0.069187 -0.193943 -0.110630 0.161046 -0.980712 0.344028 0.356858
-0.503316 -0.069187 -0.193943 -0.640004 0.252785 -0.725578 0.344028 0.364140
-0.499129 0.071542 -0.191082 -0.152837 -0.965880 -0.208960 0.625917 0.356858
-0.503316 0.071542 -0.191082 -0.621021 -0.705679 -0.340983 0.625917 0.364140
-0.503316 0.075148 -0.193943 -0.640004 -0.252815 -0.725578 0.633141 0.364140
-0.499129 0.075148 -0.193943 -0.110630 -0.161077 -0.980712 0.633141 0.356858
-0.499129 0.075148 -0.193943 -0.110630 -0.161077 -0.980712 0.025373 0.002000
-0.499129 0.071542 -0.193943 -0.577349 -0.577349 -0.577349 0.043509 0.002000
-0.499129 0.071542 -0.191082 -0.152837 -0.965880 -0.208960 0.043509 0.017016
-0.499129 0.068482 -0.188656 -0.110630 -0.161046 -0.980712 0.619788 0.356858
-0.499129 0.002981 -0.136704 -0.590381 0.000000 -0.807092 0.488585 0.356858
-0.503316 0.002981 -0.136704 -0.876522 0.000000 -0.481277 0.488585 0.364140
-0.503316 0.068482 -0.188656 -0.640004 -0.252785 -0.725578 0.619788 0.364140
-0.499129 0.068482 -0.188656 -0.110630 -0.161046 -0.980712 0.431438 0.224345
-0.499129 -0.062521 -0.188656 -0.110630 0.161077 -0.980712 0.551764 0.224345
-0.499129 0.002981 -0.136704 -0.590381 0.000000 -0.807092 0.491601 0.273279
-0.503316 -0.062521 -0.188656 -0.640004 0.252785 -0.725578 0.357381 0.364140
-0.499129 -0.062521 -0.188656 -0.110630 0.161077 -0.980712 0.357381 0.356858
-0.460402 -0.065580 -0.193943 0.000000 0.707083 -0.707083 0.854023 0.315051
-0.499129 -0.065580 -0.193943 -0.577349 0.577349 -0.577349 0.924301 0.315051
-0.499129 -0.065580 -0.191082 -0.152837 0.965880 -0.208960 0.924301 0.329549
-0.503316 -0.065580 -0.191082 -0.621021 0.705679 -0.340983 0.931899 0.329549
-0.503316 -0.065580 -0.188656 -0.904508 0.301492 -0.301492 0.931899 0.341848
-0.460402 -0.065580 -0.188656 0.000000 0.707083 -0.707083 0.854023 0.341848
-0.499129 -0.065580 -0.193943 -0.577349 0.577349 -0.577349 0.351253 0.356858
-0.460402 -0.065580 -0.193943 0.000000 0.707083 -0.707083 0.351253 0.289508
-0.460402 -0.073835 -0.193943 0.000000 -0.944304 -0.329020 0.334718 0.289508
-0.503316 -0.073835 -0.193943 -0.544206 -0.792199 -0.276009 0.334718 0.364140
-0.503316 0.071542 -0.188656 -0.904508 -0.301492 -0.301492 0.625917 0.364140
-0.460402 0.071542 -0.188656 0.000000 -0.707083 -0.707083 0.625917 0.289508
-0.503316 -0.065580 -0.188656 -0.904508 0.301492 -0.301492 0.351253 0.364140
-0.460402 -0.065580 -0.188656 0.000000 0.707083 -0.707083 0.351253 0.289508
-0.499129 0.071542 -0.191082 -0.152837 -0.965880 -0.208960 0.779133 0.329549
-0.499129 0.071542 -0.193943 -0.577349 -0.577349 -0.577349 0.779133 0.315051
-0.460402 0.071542 -0.193943 0.000000 -0.707083 -0.707083 0.849412 0.315051
-0.460402 0.071542 -0.188656 0.000000 -0.707083 -0.707083 0.849412 0.341848
-0.503316 0.071542 -0.188656 -0.904508 -0.301492 -0.301492 0.771535 0.341848
-0.503316 0.071542 -0.191082 -0.621021 -0.705679 -0.340983 0.771535 0.329549
-0.460402 0.071542 -0.193943 0.000000 -0.707083 -0.707083 0.625917 0.289508
-0.499129 0.071542 -0.193943 -0.577349 -0.577349 -0.577349 0.625917 0.356858
-0.503316 0.079797 -0.193943 -0.544206 0.792199 -0.276009 0.642452 0.364140
-0.460402 0.079797 -0.193943 0.000000 0.944304 -0.329020 0.642452 0.289508
-0.503316 0.002981 -0.136704 -0.876522 0.000000 -0.481277 0.413287 0.045452
-0.503316 -0.062521 -0.188656 -0.640004 0.252785 -0.725578 0.446539 0.023837
-0.503316 -0.065580 -0.188656 -0.904508 0.301492 -0.301492 0.448092 0.023837
-0.503316 -0.065580 -0.191082 -0.621021 0.705679 -0.340983 0.448092 0.022827
-0.503316 -0.069187 -0.193943 -0.640004 0.252785 -0.725578 0.449923 0.021637
-0.503316 -0.073835 -0.193943 -0.544206 -0.792199 -0.276009 0.452282 0.021637
-0.503316 0.002981 -0.133017 -0.590381 0.000000 0.807092 0.413287 0.046986
-0.503316 0.079797 -0.193943 -0.544206 0.792199 -0.276009 0.374291 0.021637
-0.503316 0.075148 -0.193943 -0.640004 -0.252815 -0.725578 0.376651 0.021637
-0.503316 0.071542 -0.191082 -0.621021 -0.705679 -0.340983 0.378482 0.022827
-0.503316 0.071542 -0.188656 -0.904508 -0.301492 -0.301492 0.378482 0.023837
-0.503316 0.068482 -0.188656 -0.640004 -0.252785 -0.725578 0.380035 0.023837
0.012297 0.516992 -0.131244 0.000000 0.000000 1.000000 0.152492 0.904639
0.012297 0.560335 -0.131244 0.000000 0.589801 0.807520 0.063499 0.904639
-0.063759 0.560335 -0.192170 -0.791467 0.544328 -0.277902 0.063499 0.828056
-0.063759 0.516992 -0.192170 -0.943510 0.000000 -0.331309 0.152492 0.828056
0.088352 0.516992 -0.192170 0.943510 0.000000 -0.331309 0.152492 0.981223
0.088352 0.560335 -0.192170 0.791467 0.544328 -0.277902 0.063499 0.981223
-0.055586 0.556107 -0.192170 0.577349 0.577349 -0.577349 0.733000 0.002000
-0.059157 0.556107 -0.192170 0.162114 0.111484 -0.980438 0.751136 0.002000
-0.055586 0.556107 -0.189309 0.966247 0.151921 -0.208014 0.733000 0.017016
-0.055586 0.560335 -0.189309 0.706259 0.621418 -0.339152 0.351253 0.364140
-0.055586 0.556107 -0.189309 0.966247 0.151921 -0.208014 0.351253 0.356858
-0.059157 0.556107 -0.192170 0.162114 0.111484 -0.980438 0.344028 0.356858
-0.059157 0.560335 -0.192170 0.254677 0.639576 -0.725303 0.344028 0.364140
0.080179 0.556107 -0.189309 -0.966247 0.151921 -0.208014 0.625917 0.356858
0.080179 0.560335 -0.189309 -0.706259 0.621418 -0.339152 0.625917 0.364140
0.083750 0.560335 -0.192170 -0.254677 0.639576 -0.725303 0.633141 0.364140
0.083750 0.556107 -0.192170 -0.162145 0.111484 -0.980438 0.633141 0.356858
0.083750 0.556107 -0.192170 -0.162145 0.111484 -0.980438 0.025373 0.002000
0.080179 0.556107 -0.192170 -0.577349 0.577349 -0.577349 0.043509 0.002000
0.080179 0.556107 -0.189309 -0.966247 0.151921 -0.208014 0.043509 0.017016
0.077149 0.556107 -0.186882 -0.162145 0.111484 -0.980438 0.619788 0.356858
0.012297 0.556107 -0.134931 0.000000 0.589801 -0.807520 0.488585 0.356858
0.012297 0.560335 -0.134931 0.000000 0.877743 -0.479049 0.488585 0.364140
0.077149 0.560335 -0.186882 -0.254677 0.639546 -0.725303 0.619788 0.364140
0.077149 0.556107 -0.186882 -0.162145 0.111484 -0.980438 0.431438 0.224345
-0.052556 0.556107 -0.186882 0.162114 0.111484 -0.980438 0.551764 0.224345
0.012297 0.556107 -0.134931 0.000000 0.589801 -0.807520 0.491601 0.273279
-0.052556 0.560335 -0.186882 0.254677 0.639546 -0.725303 0.357381 0.364140
-0.052556 0.556107 -0.186882 0.162114 0.111484 -0.980438 0.357381 0.356858
-0.055586 0.516992 -0.192170 0.707083 0.000000 -0.707083 0.854023 0.315051
-0.055586 0.556107 -0.192170 0.577349 0.577349 -0.577349 0.924301 0.315051
-0.055586 0.556107 -0.189309 0.966247 0.151921 -0.208014 0.924301 0.329549
-0.055586 0.560335 -0.189309 0.706259 0.621418 -0.339152 0.931899 0.329549
-0.055586 0.560335 -0.186882 0.301492 0.904538 -0.301462 0.931899 0.341848
-0.055586 0.516992 -0.186882 0.707083 0.000000 -0.707083 0.854023 0.341848
-0.055586 0.556107 -0.192170 0.577349 0.577349 -0.577349 0.351253 0.356858
-0.055586 0.516992 -0.192170 0.707083 0.000000 -0.707083 0.351253 0.289508
-0.063759 0.516992 -0.192170 -0.943510 0.000000 -0.331309 0.334718 0.289508
-0.063759 0.560335 -0.192170 -0.791467 0.544328 -0.277902 0.334718 0.364140
0.080179 0.560335 -0.186882 -0.301492 0.904508 -0.301492 0.625917 0.364140
0.080179 0.516992 -0.186882 -0.707083 0.000000 -0.707083 0.625917 0.289508
-0.055586 0.560335 -0.186882 0.301492 0.904538 -0.301462 0.351253 0.364140
-0.055586 0.516992 -0.186882 0.707083 0.000000 -0.707083 0.351253 0.289508
0.080179 0.556107 -0.189309 -0.966247 0.151921 -0.208014 0.779133 0.329549
0.080179 0.556107 -0.192170 -0.577349 0.577349 -0.577349 0.779133 0.315051
0.080179 0.516992 -0.192170 -0.707083 0.000000 -0.707083 0.849412 0.315051
0.080179 0.516992 -0.186882 -0.707083 0.000000 -0.707083 0.849412 0.341848
0.080179 0.560335 -0.186882 -0.301492 0.904508 -0.301492 0.771535 0.341848
0.080179 0.560335 -0.189309 -0.706259 0.621418 -0.339152 0.771535 0.329549
0.080179 0.516992 -0.192170 -0.707083 0.000000 -0.707083 0.625917 0.289508
0.080179 0.556107 -0.192170 -0.577349 0.577349 -0.577349 0.625917 0.356858
0.088352 0.560335 -0.192170 0.791467 0.544328 -0.277902 0.642452 0.364140
0.088352 0.516992 -0.192170 0.943510 0.000000 -0.331309 0.642452 0.289508
0.012297 0.560335 -0.134931 0.000000 0.877743 -0.479049 0.413287 0.045452
-0.052556 0.560335 -0.186882 0.254677 0.639546 -0.725303 0.446539 0.023837
-0.055586 0.560335 -0.186882 0.301492 0.904538 -0.301462 0.448092 0.023837
-0.055586 0.560335 -0.189309 0.706259 0.621418 -0.339152 0.448092 0.022827
-0.059157 0.560335 -0.192170 0.254677 0.639576 -0.725303 0.449923 0.021637
-0.063759 0.560335 -0.192170 -0.791467 0.544328 -0.277902 0.452282 0.021637
0.012297 0.560335 -0.131244 0.000000 0.589801 0.807520 0.413287 0.046986
0.088352 0.560335 -0.192170 0.791467 0.544328 -0.277902 0.374291 0.021637
0.083750 0.560335 -0.192170 -0.254677 0.639576 -0.725303 0.376651 0.021637
0.080179 0.560335 -0.189309 -0.706259 0.621418 -0.339152 0.378482 0.022827
0.080179 0.560335 -0.186882 -0.301492 0.904508 -0.301492 0.378482 0.023837
0.077149 0.560335 -0.186882 -0.254677 0.639546 -0.725303 0.380035 0.023837
3 0 1 2
3 2 3 0
3 4 5 6
3 6 7 4
3 8 9 10
3 10 11 8
3 12 13 14
3 14 15 12
3 16 17 18
3 18 19 16
3 20 21 22
3 22 23 20
3 16 19 24
3 24 25 16
3 26 27 28
3 28 29 26
3 30 31 23
3 23 22 30
3 32 33 34
3 34 35 32
3 36 37 38
3 38 39 36
3 40 41 42
3 42 43 40
3 44 45 46
3 46 47 44
3 48 49 50
3 50 51 48
3 52 53 54
3 54 55 52
3 56 57 58
3 58 59 56
3 60 61 62
3 62 63 60
3 64 65 66
3 66 67 64
3 68 69 70
3 70 71 68
3 72 73 74
3 74 75 72
3 76 77 78
3 78 79 76
3 80 81 82
3 82 83 80
3 84 85 86
3 86 87 84
3 88 89 90
3 90 91 88
3 92 93 94
3 94 95 92
3 96 97 98
3 98 99 96
3 100 101 102
3 102 103 100
3 104 105 106
3 106 107 104
3 108 109 110
3 110 111 108
3 112 113 114
3 114 115 112
3 116 117 118
3 118 119 116
3 120 121 122
3 122 123 120
3 124 125 126
3 126 127 124
3 128 129 130
3 130 131 128
3 132 133 134
3 134 135 132
3 136 137 138
3 138 139 136
3 140 141 142
3 142 143 140
3 144 145 146
3 146 147 144
3 148 149 150
3 150 151 148
3 152 153 154
3 154 155 152
3 156 157 158
3 158 159 156
3 160 161 162
3 162 163 160
3 164 165 166
3 166 167 164
3 165 164 168
3 168 169 165
3 170 171 172
3 173 174 175
3 175 176 173
3 177 178 179
3 179 180 177
3 181 182 183
3 184 185 186
3 186 187 184
3 188 189 190
3 191 186 185
3 185 192 191
3 193 194 195
3 195 196 197
3 193 195 197
3 193 197 198
3 175 199 200
3 175 200 201
3 175 201 202
3 175 202 176
3 184 187 203
3 184 203 204
3 205 191 192
3 206 205 192
3 204 206 192
3 184 204 192
3 207 208 209
3 207 209 210
3 207 210 211
3 207 211 212
3 213 214 180
3 180 179 215
3 213 180 215
3 213 215 216
3 217 218 219
3 219 220 221
3 219 221 222
3 217 219 222
3 217 222 223
3 224 225 226
3 224 226 227
3 223 224 227
3 217 223 227
3 217 227 228
3 229 230 231
3 231 232 229
3 230 229 233
3 233 234 230
3 235 236 237
3 238 239 240
3 240 241 238
3 242 243 244
3 244 245 242
3 246 247 248
3 249 250 251
3 251 252 249
3 253 254 255
3 256 251 250
3 250 257 256
3 258 259 260
3 260 261 262
3 258 260 262
3 258 262 263
3 240 264 265
3 240 265 266
3 240 266 267
3 240 267 241
3 249 252 268
3 249 268 269
3 270 256 257
3 271 270 257
3 269 271 257
3 249 269 257
3 272 273 274
3 272 274 275
3 272 275 276
3 272 276 277
3 278 279 245
3 245 244 280
3 278 245 280
3 278 280 281
3 282 283 284
3 284 285 286
3 284 286 287
3 282 284 287
3 282 287 288
3 289 290 291
3 289 291 292
3 288 289 292
3 282 288 292
3 282 292 293
